<svg xmlns="http://www.w3.org/2000/svg" viewBox="0 0 792 612"><defs><style>.cls-1{fill:none;stroke:#ff17ac;stroke-miterlimit:10;stroke-width:0.7px;}</style></defs><g id="Layer_2" data-name="Layer 2"><path d="M791,1V611H1V1H791m1-1H0V612H792V0Z"/></g><g id="Layer_1" data-name="Layer 1"><g id="Pen"><path class="cls-1" d="M146.76,402c-.3,2.7-.2,5.4,2.4,7.3a2.15,2.15,0,0,0,2.9,0c2.9-3.3,4.9,0,7.2.7.5.2.9.6.5,1.3-.9,2-5.9,3.3-8,2-2.5-1.5-4.5-.9-5.1,1.8a14.56,14.56,0,0,0,0,5.1c.6,3.6,2.8,4.3,6.1,2.2,2.6-1.6,5-1.8,7.4.2.7.6,1.3,1.3.3,2.1-1.7,1.4-6.5,2-8.5.9s-3.6-.6-4.4,1.1a11.36,11.36,0,0,0,.1,10.6c1.2,2.3,3.1,2.5,5,.6a7,7,0,0,1,3.6-1.9c5.6-1.5,11.4-1.7,17.3-1.7a7.09,7.09,0,0,1,4.5,1.6c2.9,2.2,6,1.3,7-2,1.2-3.8.9-7.6.2-11.4-.5-2.7-4.1-4.6-6.3-3-4.3,3-8,.4-12-.3-.7-.1-1.7-.6-1.7-1.4s1-1.2,1.8-1.3l8-1.5a2.23,2.23,0,0,1,2.5.8c1.3,1.8,3.2,1.6,5.1,1.1a3.81,3.81,0,0,0,3-3.9,30.67,30.67,0,0,0-.3-8c-.9-4.1-4.3-5.4-8-2.9a6,6,0,0,1-4.2,1.3c-5.6-.6-11.3-1.2-16.9-2.1-1.6-.3-4-.5-3.9-2.9-.6-.3-1.2-.5-1.8-.8C147.66,397.76,147.06,399.76,146.76,402Z"/><path class="cls-1" d="M152.56,398.26c.8,0,1.8.2,2.3-.5,1.4-2.1,3.7-2.1,5.9-2.1,6.6,0,13,.6,19,3.2,1.4.6,2.9,1,4.3-.1,1.9-1.5,2.3-5.3.8-8.1-1.7-3.1-4.4-4.6-7.3-3.7a24.21,24.21,0,0,1-8.4,1c-2-.1-5.1.8-5.2-1.7-.1-2.2,3.1-2.3,5.2-2.2,3.8.1,7.6.5,11.3.7,1.9.1,3.7-.1,4.5-1.8a9.58,9.58,0,0,0-.4-9c-.8-1.5-2.3-1.7-4-.8a23.19,23.19,0,0,1-7.4,2c-4,.6-7.9,1.2-11.9,1.9-4.2.7-5.6,3.1-4.2,6.8a19.83,19.83,0,0,0,1.1,2c.4.8,1.6,1.6,1,2.6-.8,1.2-2.2.4-3.3.3a50.5,50.5,0,0,1-5.6-.6c-2.8-.5-3.3.7-2.8,2.9a18.25,18.25,0,0,0,3.3,6.7"/><path class="cls-1" d="M163.46,314.86c-6-.2-9,4.7-6.1,9.6.8,1.4,4.5,3.1-.4,4.1-.2,0-.4.8-.3,1.1a10.32,10.32,0,0,0,3.7,6.7,2.42,2.42,0,0,0,3.5-.1c2-2.4,4.6-2.3,7.4-1.7,3.1.7,6.1,1.6,9.2,2.4,2.4.6,4.4.1,5.1-2.2.8-2.8.7-5.6-1.5-7.9-2-2.1-4.7-2.2-7.5-1.6a32.52,32.52,0,0,1-7.7,1.1h-1.1c-1.8-.1-4.4.3-4.5-2-.1-2.5,2.6-2.5,4.5-2.5,4,0,8.1.1,11.9,1.4,3,1,4.5,0,5.7-2.2,1-2,.7-4.2.3-6.3-.5-2.4-1.8-3.6-5-2.8C175,313.36,169.46,315.06,163.46,314.86Z"/><path class="cls-1" d="M157.46,272.66c1.3,1.5,2.6,1.2,4.3.3,2.8-1.5,5.2.3,7.6,1.2.5.2,1.1.6.6,1.2a8.11,8.11,0,0,1-6.1,2.9h-1.8c-6-.2-6.8.8-4.1,6.1.3.6.6,1.2.9,1.7,1.9,2.9,3.4,3,6.1.6a5.24,5.24,0,0,1,1.8-1,126.28,126.28,0,0,1,14.8-4.5c1.3-.3,2.6-.5,3.5.7-2.7,2.6-2.7,4.3-.1,5.6a6.8,6.8,0,0,0,7.8-1.1c2.1-1.9,2.2-4.2.7-6.5s-4.2-3.7-6.9-4.8c-5.6-2.4-11.6-3.7-17.5-5.1-2.5-.6-5-1.3-6.8-3.1-1.2-1.1-2.6-2.1-4.3-.8C156.36,267.06,156.16,271.16,157.46,272.66Z"/><path class="cls-1" d="M173.86,294.76c1.3,2.8-1.2,6-4.6,6-1.9,0-2.3-.8-1.5-2.3a8,8,0,0,0,.9-5c-.4-4-2.7-5.2-6.8-3.6-6.1,2.3-7.1,10.6-1.8,15.2,3.3,2.8,7.4,4.1,12.7,4.1a16.37,16.37,0,0,0,7.7-2c3.6-2,5.4-5,5.3-8.8a9.06,9.06,0,0,0-5.6-8.3c-2-1-4.3-1.6-6.3-.1S173.06,293.06,173.86,294.76Zm-12.5,2.4c-.1-1.2.2-2.6,1.8-2.6s.8,1.6,1.1,2.5c-.3.9.7,2.5-1,2.6C161.76,299.86,161.46,298.36,161.36,297.16Z"/><path class="cls-1" d="M177.56,338.86c-1.8,3.7-5.3,3.8-8.7,4.5-5,1-5.5.7-6.6-3.7a2,2,0,0,0-2.2-1.7c-1.2,0-2.2.4-2.1,1.7.2,3.1-1.8,3.8-4.7,3.7-2-.1-3.5.5-3.8,2.5s.7,3.1,2.6,3.6c2.6.7,4.9,1.6,4.5,4.7-.1,1.3,1.1,1.7,2.5,1.8,1.2,0,2.3-.3,2.3-1.5.1-3.9,3-3.2,5.5-2.8,3.5.5,6.8,1.8,10.4,1.9,5.6.1,8.4-2.3,8.4-8a8.28,8.28,0,0,0-3.3-6.4C181.06,338,178.56,336.86,177.56,338.86Z"/><path class="cls-1" d="M166.16,242c-.8,1.3-1.8,3.6-3.7,2.5-2.5-1.6.6-2.5,1.5-3.6.1-.2.3-.3.4-.5.9-1.2,1.1-2.5,0-3.5s-2.4-.4-3.5.3a8.59,8.59,0,0,0-4.2,8.9c.8,5.2,6.3,7.3,11.1,4.4a26,26,0,0,1,3.6-2.1c2.1-.8,3.5-.1,2.7,2-.9,2.5.4,2.8,2.5,2.7,5.7-.1,9.1-3.4,9.1-8.9a9,9,0,0,0-10-9C171.06,235.66,168.46,238.56,166.16,242Z"/><path class="cls-1" d="M160.26,359.26a2.57,2.57,0,0,0-3.5,2.9,12.11,12.11,0,0,0,3.2,7.3c1.1,1.2,2.7,2.1,4.2.5,2.1-2.3,4.8-1.9,7.5-1.5s4.9,1.4,7.3,2.3c3.3,1.2,5,.4,6.2-2.7a9.7,9.7,0,0,0,.7-4.5,9.26,9.26,0,0,0-.9-4.6c-.9-1.6-2.2-3-4.5-2C174,359.66,167.46,361.46,160.26,359.26Z"/><path class="cls-1" d="M147,257.36c-.9,2.2.2,4,2.3,5.2,2.6,1.4,5.2,2.7,8,.1a3.44,3.44,0,0,1,3.9-.8c1.4.6,3,.5,3.8-.7s-.2-2.5-1.2-3.4a15.05,15.05,0,0,0-9.8-3.9C151,254.06,148.16,254.46,147,257.36Z"/><path class="cls-1" d="M231.46,234.36c-5.6,1.6-11.3,3.1-17.4,2.9-2.8-.1-4.2,1.5-4.4,4.1a8.72,8.72,0,0,0,3.3,8c-5.1,3.9-5.2,5.3-1.1,10.7.6,1.4.6,1.4-2.3,1.2-1.1,3.1.9,8.3,3.6,9.8,1.1.6,2.4.9,3.2-.2,1.4-2,3.6-1.9,5.7-1.8a44.75,44.75,0,0,1,10.9,1.5c1.9.6,3.6.2,4.6-1.4,2.5-3.8-.1-8.9-4.9-9.6a20.31,20.31,0,0,0-8.5.2,11.82,11.82,0,0,1-4.6.2c-1.4-.3-2.9-.7-2.9-2.3,0-1.8,1.8-1.7,3.1-1.9,4.1-.5,8,.8,11.9,1.5s5.6,0,6.3-2.8c.9-3.4-.4-5.8-3.9-6.7a13.42,13.42,0,0,0-6.3-.1,48.42,48.42,0,0,1-8.5.4c-1.5,0-3.6,0-3.6-1.7,0-1.5,2-1.4,3.5-1.4h13.9c2,0,3.8-.4,4.6-2.3a6.06,6.06,0,0,0-.8-6.9C235.56,233.86,233.66,233.66,231.46,234.36Z"/><path class="cls-1" d="M210.56,343.86c1.4-.8,2.6-1.7,1.8-3.3-1.5-3.2-4.6-2.7-7.6-2.4-2.3.3-4.4.7-3.1,3.6.2.5-.6,1.5-1.1,2.2-2.2,3-2,6-.4,9.1,1.8,3.7,5.2,6,9.1,7.7,9.3,4.3,20,2.6,25.8-4,3.7-4.2,4.3-8.8,1.8-13.7-2-4-5.9-5.3-10.5-5-.8.1-1.7.1-2.5.2-5.4.6-7.3,1.6-3.3,5.8a8.26,8.26,0,0,1,1.4,2.2c1.3,2.4.3,4.3-2.2,5.3a10,10,0,0,1-9.5-.6C206.86,348.76,207,346,210.56,343.86Z"/><path class="cls-1" d="M212.06,425.66a9.91,9.91,0,0,1-7.9-2.1c-1.4-1.2-2.9-.4-3.9.9-1.7,2.2-1.5,9.3.4,11.4,1,1.1,2.6,2,3.6.9,3.2-3.5,7.4-2.6,11.2-2.1,5.6.8,11.6.4,16.5,4,1.7,1.3,4.8-.2,5.7-2.3s.7-4.2.9-6.3c-.2-1.9-.2-3.8-.5-5.7a4.64,4.64,0,0,0-6.8-2.8C225.36,425.26,218.56,425,212.06,425.66Z"/><path class="cls-1" d="M216.76,275.46c-5.7,0-7.7,1.9-7.6,7.5a11.42,11.42,0,0,0,2.6,7.2,4.88,4.88,0,0,0,4.7,1.7,1.81,1.81,0,0,0,1.6-1.5c.3-1.7-.8-2.8-2.3-3.6a10.54,10.54,0,0,1-1.1-.7c-.7-.6-1.4-1.2-1.1-2.2s1.3-1.1,2.3-1.3,2.2-.1,2.7,1a12.66,12.66,0,0,1,.6,1.8c1.5,4.1,4.1,7.2,9,8.2,5.2,1.1,10.2-2.3,9.4-6.7a10.43,10.43,0,0,1,.5-5.8c1.1-2.8,0-5.5-2.2-7.6-2-1.9-4.3-1-6.5-.2A34.52,34.52,0,0,1,216.76,275.46Zm13.8,9c.2,1.2-1.1,1.4-2.2,1.5-1.5,0-3-.4-3.2-1.9-.1-1.3,1.5-.5,2-.9C228.56,283.36,230.36,283,230.56,284.46Z"/><path class="cls-1" d="M226.36,384c1.3,2.8-1.1,5.9-4.5,5.9-1.8,0-2.4-.7-1.5-2.2a7.9,7.9,0,0,0,.9-5c-.4-3.9-2.7-5.2-6.8-3.6-6.1,2.3-7.2,10.5-1.9,15,3.3,2.8,7.4,4.1,12.8,4.1a15.18,15.18,0,0,0,7.6-2c3.8-2.1,5.6-5.1,5.3-9.1a9.1,9.1,0,0,0-5.9-8.1c-1.9-.8-4.1-1.4-6,0C224.26,380.66,225.56,382.26,226.36,384Zm-12.5,1.7c-.1-1.2.2-2.6,1.8-2.6s.8,1.6,1.1,2.5c-.3.9.7,2.5-1,2.6S214,386.76,213.86,385.66Z"/><path class="cls-1" d="M226.36,300.56c1.3,2.8-1.2,5.9-4.5,5.9-1.8,0-2.4-.7-1.5-2.2a8.44,8.44,0,0,0,.8-5.6c-.6-3.3-2.4-4.3-6-3.2a7.85,7.85,0,0,0-5.9,7.8,8.46,8.46,0,0,0,1.1,4.6c4.2,7.7,19.3,9.4,25.4,2.9a9.28,9.28,0,0,0-3.3-15.1c-2-.8-4.1-1.4-6,0C224.26,297.26,225.56,298.86,226.36,300.56Zm-13.2,1.5c-.1-1.2.2-2.6,1.8-2.6s.8,1.6,1.1,2.5c-.3.9.7,2.5-1,2.6S213.26,303.16,213.16,302.06Z"/><path class="cls-1" d="M226.26,405.46c1.4,2.2.4,3.8-1.7,5.2a5.85,5.85,0,0,1-7.2-.5c-2.2-1.7-1.1-3.3.5-4.9.8-.8,1.6-1.7.8-2.8a3.64,3.64,0,0,0-3.7-1.4,6,6,0,0,0-4.8,2.9,9.3,9.3,0,0,0-.9,7.1c1.5,5.3,7.5,8.9,15.4,8.9a14.11,14.11,0,0,0,5.3-.7c4.8-1.4,8.1-5.2,8.1-9.4a9.45,9.45,0,0,0-6.6-9.2c-1.8-.6-3.7-1-5.3.3S225.26,403.86,226.26,405.46Z"/><path class="cls-1" d="M209.86,318.26c-1.5,1.7-.8,3.4.7,4.9,1.2,1.2,3.5,2.6-.5,3.1-.9.1-1,.8-.9,1.5a10.25,10.25,0,0,0,3.1,6.9c1.3,1.3,2.9,1.6,4.2.1s3.2-1.6,5.1-1.6c3.7.1,6.9,1.4,10.2,2.5s4.9.4,6.1-2.7a15,15,0,0,0,.4-6.3c-.5-5.4-2.8-6.4-7.9-3.5a24.37,24.37,0,0,1-2.8,1.4,12.93,12.93,0,0,1-11.3-.5c2.5-1.1,4.5-1.6,4.3-3.8a4.37,4.37,0,0,0-3.9-4A7,7,0,0,0,209.86,318.26Z"/><g id="RiiUH0.tif"><path class="cls-1" d="M145.76,364.16a4.91,4.91,0,0,1,2.5-3.3,4.61,4.61,0,0,1,6.4,2,4.56,4.56,0,0,1-2.3,6,4.69,4.69,0,0,1-6.3-2.3c-.1-.3-.1-.3-.2-.4a1.45,1.45,0,0,0-.7-.2,6.72,6.72,0,0,1-5.2-4.8,3.21,3.21,0,0,1-.2-1.7,1.45,1.45,0,0,1,.7-1,.91.91,0,0,1,1.2.5,3.55,3.55,0,0,1,.2,1C142.06,362.36,143.26,363.66,145.76,364.16Z"/></g><g id="AdS4MF.tif"><path class="cls-1" d="M92.06,349.26c-22.4.1-40.6-19.8-40.9-44.5-.3-24.4,18.2-44.6,40.8-44.7,22.3-.1,40.9,20,40.8,44.6C132.66,329.76,114.16,349.16,92.06,349.26Zm21.9-46v-12.6a2.08,2.08,0,0,0-1.1-2.1c-3.1-1.5-6.2-3.2-9.5-4.5a24,24,0,0,0-10.3-1.7v20.8C100,303.26,106.86,303.26,114,303.26Zm0,2.7H93.06v20.8a4.33,4.33,0,0,1,.5.1,36.75,36.75,0,0,0,19.8-6.7,1.74,1.74,0,0,0,.6-1.2Zm-43.6-2.8h20.3v-20.7c-.2,0-.2-.1-.3-.1-7.1.2-13.4,3-19.5,6.6a1.19,1.19,0,0,0-.5.9Zm20.4,2.9H70.36v13a1.64,1.64,0,0,0,.8,1.2,93,93,0,0,0,8.4,4.1,32,32,0,0,0,11.1,2.4C90.76,319.86,90.76,313,90.76,306.06Zm2.3,40.3a.76.76,0,0,0,.4.1c7.3-.1,13.9-2.8,19.9-7.1a2,2,0,0,0,.6-1.5c.1-2.7,0-5.4,0-8.1v-6.9a41,41,0,0,1-20.9,6.5Zm20.9-60V271a2,2,0,0,0-.6-1.2,35.84,35.84,0,0,0-20.2-7.3v17.2A41.93,41.93,0,0,1,114,286.36Zm-23.4,43c-7.2-.3-13.8-2.9-20.3-6.6v16a2,2,0,0,0,.9,1.3c2.9,1.6,5.8,3.2,8.8,4.5a23.37,23.37,0,0,0,10.5,1.9C90.56,340.76,90.56,335.16,90.56,329.36Zm-20.3-42.9a45.22,45.22,0,0,1,20.2-6.7v-16.9a1.34,1.34,0,0,0-.5-.1,34.87,34.87,0,0,0-19,6.6,1.85,1.85,0,0,0-.7,1.2Zm-16.5,22.1c.22,11.27,9.75,25.51,14.3,28.6v-14.3a2.62,2.62,0,0,0-1.2-2.4c-3.6-3-7.2-6.1-10.7-9.3C55.36,310.46,54.66,309.46,53.76,308.56Zm14.3-36.7c-8.9,7.2-14.4,20.7-14.1,28.6a78.21,78.21,0,0,1,13.6-12.2,1.43,1.43,0,0,0,.5-1.1Zm48.3,65.1c8.2-7.7,12.6-17.1,13.5-28.6-.5.3-.7.8-1.1,1.1-2.5,2.5-4.9,5.1-7.5,7.5-1.6,1.5-4,2.5-4.8,4.4s-.2,4.7-.2,7C116.36,331.16,116.36,333.86,116.36,337Zm13.8-36.3a44.19,44.19,0,0,0-13.8-28.5c0,3.9.2,7.5-.1,11s.5,6.1,3.5,7.6a5.72,5.72,0,0,1,.8.7C123.76,294.46,126.86,297.46,130.16,300.66ZM55,306a70.52,70.52,0,0,0,13,12.1V306Zm12.9-2.7v-12.1A70.21,70.21,0,0,0,55,303.26Zm60.9,3.3c-.1-.2-.2-.3-.3-.5h-12v11.8c.1.1.3.2.4.3Zm0-3.3a69.59,69.59,0,0,0-12.3-12v12Z"/><path class="cls-1" d="M44.56,303.26c1.9-1.7,3.2-3,4.7-4.1.6-.4,1.4-.3,1.4.9v9.1a1.05,1.05,0,0,1-.5.9,1.38,1.38,0,0,1-1.1-.1c-1.2-1.2-2.4-2.5-3.6-3.7a2.12,2.12,0,0,0-1.4-.4H28.16c-.5,0-1,.1-1.3-.1s-1-.8-1-1.2a1.78,1.78,0,0,1,.9-1.2,2.88,2.88,0,0,1,1.3-.1Zm4.1,3.1v-3.7C47.16,304.06,47.26,305.06,48.66,306.36Z"/><path class="cls-1" d="M49.56,264.36a10.47,10.47,0,0,1,1.1.8,3.13,3.13,0,0,1,.5,1,6.7,6.7,0,0,0,4.2,4.6,2.32,2.32,0,0,1,1.4,1.5,2.49,2.49,0,0,1-1.3,1.6,7.45,7.45,0,0,0-4.4,4.9c-.2.6-.9,1.3-1.3,1.3s-1.1-.7-1.3-1.3a8.06,8.06,0,0,0-4.7-5,1.41,1.41,0,0,1,0-2.7,8.45,8.45,0,0,0,4.9-5.5C48.76,265.16,49.16,264.86,49.56,264.36Zm-2.6,8.1c-.3-.3,2.8,3.2,2.8,2.6,1-1,1.8-1.9,2.6-2.8-.8-.9-1.8-1.9-2.6-2.8-.9,1-1.8,2-2.8,3"/><path class="cls-1" d="M136.66,336.06a7.17,7.17,0,0,1-1.4,1.3,4.77,4.77,0,0,0-2.5,2.7c-.5,1.1-1.3,1.1-1.7,0a4.78,4.78,0,0,0-2.6-2.8c-1-.5-1-1.3,0-1.7a5.48,5.48,0,0,0,2.6-2.8c.5-1.2,1.3-1.2,1.7-.1a4.86,4.86,0,0,0,2.7,2.9A2.37,2.37,0,0,1,136.66,336.06Zm-4.7-.7-1.2,1.2,1.2,1.2,1.2-1.2C132.66,336.16,132.26,335.56,132,335.36Z"/><path class="cls-1" d="M57.76,260.26l.9-.9a14.34,14.34,0,0,0,2-2.3c.8-1.1,1.1-1.2,1.9-.1a8,8,0,0,0,2,2.1c1,.8,1,1.3,0,2.1a9,9,0,0,0-2,2.3c-.6.8-1.2,1.1-1.6.2a6,6,0,0,0-2.5-2.7C58.16,261,58.06,260.66,57.76,260.26Zm3.9-1c-.4.4-.8.7-1.2,1.1l1,1a11,11,0,0,1,1-.8C62.26,260.16,62,259.76,61.66,259.26Z"/></g><path class="cls-1" d="M159.06,439.36c-1,.5-8.9,9.1-14.6,4-2.9-2.6-2.5-3.5-2.2-16.4.3-17.5-3.8-18.5-1.7-27.4,2.9-12,7.3-14.8,5.3-20.7-2.5-7.4-14.3-6.3-16-13.6-.9-4,1.9-7.8,5.6-12.8,6.4-8.6,11.3-8.9,14.4-14.4,4.5-8-5.9-16.4-1.6-22.3,2.4-3.2,6.4-2.9,6.8-5.6.5-3.2-4.7-4.5-6.3-9.3-2-5.7,3.5-8.5,3.6-15,.2-11-15.1-14.2-14.7-24.2.2-5.6,5-5.6,9.2-16.1,1.4-3.6,4-10.1,2.9-16.7-2.3-13.4-17.7-13.9-19.9-25.3-2-10.3,8.3-21.9,16.9-27,2.9-1.7,4-1.8,29.8-7.3,13.6-2.9,14.4-3.1,16.9-3.3,2.8-.2,13.2-.7,28.8,5,13.9,5.1,32.9,11.9,34.4,23.7,1.1,8.7-8.5,10.4-14.1,24.2-6.5,15.9,3.1,20.9,2.8,50.6-.2,22.6-5.9,26.4-2.8,46.2,1.6,10.3,3.6,12.4,3.2,21-.6,15-5.1,19.9-7.2,32.5-1.2,7.4,7.1,13.1,7.9,24.2.5,7.6,2.9,47-5.1,52.4-4.3,2.9-7.4-1.3-16-3.7a37.51,37.51,0,0,0-11.6-1.6c-6.4.2-7.7,2.2-13.1,1.5-4.7-.6-4.6-2.2-8.2-2.1-4.7.2-6.2,3.1-10.5,2.4a12.45,12.45,0,0,1-5.2-2c-1.6-1.2-1-1.8-5.6-.7C167.26,440.26,164.66,436.66,159.06,439.36Z"/><g id="GPiyMd.tif"><path class="cls-1" d="M701.76,326.46v50a10.25,10.25,0,0,1-.7,4.3c-2,4.6-7.8,5.3-10.6,1.2-1.3-1.9-2.3-1.8-4.1-.9-10.7,5.3-21.5,10.6-32.3,15.8a4.43,4.43,0,0,0-2.8,3.4,8.53,8.53,0,0,1-1.7,3.6c-4.6,6.8-9.3,13.7-13.8,20.5a5.39,5.39,0,0,1-4.9,2.5h-18.7c-1.4,0-2.2.2-2.7,1.8-.7,2.2-2.7,3.1-4.9,3.3-2.6.2-5.2.1-7-2.2a3.34,3.34,0,0,1-.6-2.2v-10.5c0-2,.9-2.9,2.8-3a11.3,11.3,0,0,1,2.6,0c1.9.1,3.8.3,3.8-2.6,0-1.2,1.2-1.6,2.4-1.7,6.9-.5,9.1-2.7,9-9.7-.1-4.8.3-9.6-.3-14.5-.5-4.2-2.9-6.7-6.5-8.5s-7.3-2.3-11-3c-3-.5-3.3-.9-3.2-4,.2-18.7.8-37.4.5-52.1v-39.2c0-3.4.4-3.8,3.7-4.4,9.2-1.7,16-8.8,16.4-17.2.5-10.3-4.9-17.9-14.6-20.6-2.2-.6-3.1-1.7-3.1-3.9v-42.5c0-2.8.7-3.5,3.6-3.6,2.3-.1,4.5-.1,6.8,0,1.3,0,2.1-.3,2.2-1.8s1.2-2.1,2.6-2.1h14.7a2.45,2.45,0,0,1,2.7,2,1.92,1.92,0,0,0,2.2,1.9c1.9,0,3.2.7,3.2,2.8,0,1.2,1,1.2,1.9,1.2h48.4c1.2,0,1.7-.1,1.9-1.5.3-2,1.9-2.6,3.4-1.3,2.7,2.2,5.3,4.6,7.9,7,1.2,1.1,1,2.6,1,3.9v79.5M632.46,191c-.5,1-.3,2-.5,2.9a4,4,0,0,1-3.7,3.8,87,87,0,0,1-13.5.3,2.77,2.77,0,0,1-3-3.1c0-1.1,0-2.2-.1-3.3a.85.85,0,0,0-.7-.8.63.63,0,0,0-.7.7,6.6,6.6,0,0,0-.1,1.4v40.4a3.41,3.41,0,0,0,1.3,2.8c7.8,5.9,10.9,14,9.1,23.4-1.8,9.7-8,15.8-17.5,18.3-1.7.4-2.3,1.1-2.3,2.8,0,16.6.1,33.2,0,49.8,0,2,.7,2.5,2.6,2.5q13.65-.15,27.3,0c2,0,2.5-.6,2.5-2.6q0-68.7-.1-137.4A1.31,1.31,0,0,0,632.46,191Zm53.6,73v-66.6c0-1.8-.1-2.9-2.4-2.9q-22,.15-44.1,0c-1.8,0-2.3.7-2.2,2.4q.15,6.3,0,12.6c-.1,2,.6,2.5,2.6,2.5q15.75-.15,31.5,0c1.8,0,2.7-.4,2.7-2.4,0-2.6,1.7-4.4,3.8-4.4,2.4,0,3.8,1.7,3.8,4.6v107.5c0,2.8-1.1,4.3-3.4,4.5s-4-1.1-4.3-3.8c-.2-1.4-.8-1.8-2.1-1.8h-32.5c-1.6,0-2.2.6-2.2,2.2.1,4,.2,7.9,0,11.9-.1,2.4.8,3,3.1,3,14.2-.1,28.3,0,42.5,0,3.2,0,3.2,0,3.2-3.2Zm15.9,14.2c.1,6.6-.3,12.4-.3,19.1v29.2M640,337.06h-36.2c-2.2,0-3,.6-2.9,2.9.1,6.9,0,13.7-.2,20.6-.1,1.6.3,2.2,1.7,2.7,4.7,1.8,9.5,3.5,14.1,5.6a31.92,31.92,0,0,0,14.6,2.7c15.1-.3,30.2-.2,45.3-.2,2.2,0,2.8-.7,2.8-2.8-.1-9.5,0-19,.1-28.5,0-2.4-.7-3.1-3-3C664.06,337.16,652.06,337.06,640,337.06Zm-18.9,85.3c2.9,0,5.8-.1,8.6,0a3.64,3.64,0,0,0,3.6-2c4-6.1,8.1-12.2,12.3-18.2a10.89,10.89,0,0,0,2.1-5.1,3,3,0,0,1,2.1-2.8c2.2-1.1,4.5-2.2,6.7-3.3,6.9-3.3,13.7-6.7,20.6-10,2-1,2.7-3,2-5.8-.5-2-2.2-1.2-3.3-1.1-8.6.1-17.1-.1-25.7.3-8.2.3-16.5.1-24.7.2a10.6,10.6,0,0,1-4.3-.8c-6.1-2.5-12.3-4.9-18.5-7.3-.6-.2-1.4-1.1-2,0a2.9,2.9,0,0,0,2,4.1,40.61,40.61,0,0,1,9.6,2.8c5.2,2.4,8.7,6.1,9.1,12a129.68,129.68,0,0,1,0,18.7c-.3,4.5-3,7.5-7.3,9.1s-4.2,1.5-4.2,6.2v1.2c-.1,1.7.7,2.2,2.2,2.1C615,422.36,618.06,422.36,621.06,422.36Zm36-158.4c0-7.1-.1-14.2,0-21.3,0-1.9-.6-2.4-2.4-2.4-5.1.1-10.1.1-15.2,0-1.6,0-2.2.5-2.2,2.1v42.5c0,1.7.6,2.3,2.3,2.3,5-.1,10-.1,14.9,0,1.9,0,2.6-.6,2.6-2.5C657,277.86,657.06,271,657.06,264Zm36.3-70v2.5c-.2,49.3.3,98.5-.4,147.8-.2,10.5,0,21,0,31.5,0,1.9-.2,4,2.3,4.4,1.7.3,2.5-1.3,2.5-4.5v-60c0-38-.1-76,.1-114A7.87,7.87,0,0,0,693.36,194Zm-36.3,32.4v-9.6c0-1.4-.3-2.2-1.9-2.2-5.3.1-10.6,0-15.9,0-1.4,0-2,.5-2,1.9v19.2c0,1.5.6,2.1,2.1,2q7.8-.15,15.6,0c1.7,0,2.1-.7,2.1-2.3Zm-19.8,75.2c0,3.1.1,6.2,0,9.3,0,1.6.6,2.2,2.2,2.2,5.1-.1,10.3-.1,15.4,0,1.6,0,2.2-.6,2.2-2.2-.1-6.2-.1-12.3,0-18.5,0-1.6-.6-2.2-2.2-2.2-5.1.1-10.3.1-15.4,0-1.6,0-2.2.6-2.2,2.2C637.36,295.46,637.26,298.46,637.26,301.56Zm22.5-37.8v21c0,.8-.3,1.8.7,2.3,1.3.7,4.7,0,5.7-1.2a12.88,12.88,0,0,1,1.7-1.6c2.7-2,2.7-4.9.1-6.9a6.14,6.14,0,0,1-.1-9.8c2.8-2.1,2.8-5,.1-7.1a6.23,6.23,0,0,1,.1-10c2.5-1.9,2.6-4.8,0-6.7a8.42,8.42,0,0,1-2.2-2.4c-1.3-2.1-3.4-1-5.1-1-1.4.1-.9,1.6-.9,2.5C659.76,250,659.76,256.86,659.76,263.76Zm14.2.1V216c0-.4,0-1-.6-1s-.6.4-.7.8a6.26,6.26,0,0,1-2.9,3.5,3.6,3.6,0,0,0,0,5.5c4.2,3.6,4.1,7.7,0,11.3a3.58,3.58,0,0,0,.2,5.6c3.9,3.1,3.9,7.8,0,11.1a3.66,3.66,0,0,0,0,5.8c3.8,3.1,3.8,7.9.1,10.9-2.2,1.8-2.2,4.3.1,6a6.66,6.66,0,0,1,.1,10.6c-2.4,1.8-2.4,4.3-.1,6.2,3.6,2.9,3.5,7.8-.1,10.8-2.2,1.8-2.2,4.4.1,6a7.2,7.2,0,0,1,2.4,2.8c.1.4.4.9,1,.7.4-.1.5-.6.5-1v-2.1C674,294.36,674,279.06,674,263.86Zm5.1-.3v-52.3c0-1,.6-2.9-.9-2.9-1.8,0-1.1,1.9-1.1,3v104.4c0,1-.6,2.9.9,2.9,1.7,0,1.1-1.9,1.1-3Zm-19.3-37.5v9.6c0,.9-.1,2,1.3,2,2.1,0,4.4.8,5.4-2.2.2-.6,1-1.1,1.6-1.6,2.5-1.9,2.5-5,0-6.8a5.9,5.9,0,0,1-2.5-5,5.54,5.54,0,0,1,2.9-5.5c.5-.3,1.2-.7,1-1.4s-1-.5-1.6-.6h-6.1c-1.5-.1-2.1.6-2,2.1Zm0,75.6V311c0,1.5.5,2.1,2,2.1,1.9-.1,3.7,0,5.6,0,.6,0,1.6.4,1.8-.5s-.8-1.1-1.3-1.5a6.08,6.08,0,0,1,.1-9.9c2.5-1.9,2.6-4.9.2-6.8a8.14,8.14,0,0,1-2.4-2.8c-1-2.3-3.1-1.2-4.7-1.2s-1.3,1.4-1.3,2.5C659.66,295.76,659.76,298.66,659.76,301.66Zm26.3,52.7V339c0-1.6-.7-2-2.1-2-1.7,0-1.8,1-1.9,2.3-.3,7.1.1,14.1-.3,21.2-.3,5.4-.1,10.9-.1,16.3,0,1.2.4,1.5,1.6,1,1.4-.6,2.5-1.3,2.4-3.2C685.66,367.26,686.36,360,686.06,354.36Zm-82.5-142.7v19.1a3,3,0,0,0,3.2,2.6c1.4-.3.7-1.5.7-2.3l-.3-37.8c0-1.2.2-2.6-1.8-2.6s-1.9,1.4-1.9,2.7C603.56,199.56,603.56,205.66,603.56,211.66Zm17.1-21.4c-.4-1.2.8-2.9-1-3.6-2.3-1-3.8.1-3.8,2.6a12,12,0,0,1,0,1.9c-.3,2.3.8,2.7,2.8,2.7C621.46,193.76,620.36,191.76,620.66,190.26Zm2.6.1c.3,1-.7,2.5.7,3.2a3,3,0,0,0,3.3-.2c1.6-1.5.1-3.5.4-5.3.1-.8-.3-1.3-1.2-1.4h-.2C623.76,186.16,623.26,186.66,623.26,190.36Zm-18,236.5c0-2.4.1-4.9,0-7.3-.1-1.4-1.3-1.2-2.3-1.2s-2,0-2,1.3a38.21,38.21,0,0,0,.2,7.5c.9-1.2-.1-3.2,1.9-3.2S604.06,425.86,605.26,426.86Z"/><path class="cls-1" d="M598,272.16a16.74,16.74,0,0,1-17-17,17,17,0,1,1,17,17Zm-9.3-17.1c0,5.3,4,9.6,9,9.6a9.41,9.41,0,0,0,9.5-9.4,9.25,9.25,0,1,0-18.5-.2Z"/><path class="cls-1" d="M581,394.56a17,17,0,1,1,33.9,0c0,9.3-7.7,17.2-16.8,17.1A17.09,17.09,0,0,1,581,394.56Zm7.6,0a9.16,9.16,0,0,0,9.2,9.4,9.5,9.5,0,0,0,9.4-9.6,9.1,9.1,0,0,0-9.3-9.3A9.2,9.2,0,0,0,588.56,394.56Z"/><path class="cls-1" d="M622.06,205.46a4.21,4.21,0,0,1,4.2-4.1,4,4,0,0,1,4,4.2,4.06,4.06,0,0,1-4.1,4.1A4.27,4.27,0,0,1,622.06,205.46Z"/><path class="cls-1" d="M662.66,368c-3.1,0-6.2.1-9.3,0s-4.6-1.6-4.6-4.7v-18.2c0-2.9,1-4.3,3.9-4.6a117,117,0,0,1,20.5,0,3.65,3.65,0,0,1,3.6,3.6,130.87,130.87,0,0,1,0,19.8c-.2,2.8-1.6,3.9-4.5,4C669,368,665.76,368,662.66,368Zm.1-24.8h-8.6c-2,0-2.8.9-2.8,2.9v16.6c0,1.8.8,2.7,2.7,2.7h17.2c1.8,0,2.7-.7,2.7-2.7,0-5.6-.1-11.2,0-16.8,0-2-.9-2.8-2.8-2.7C668.36,343.16,665.56,343.06,662.76,343.16Z"/><path class="cls-1" d="M639.06,342.46h3.5c1.5,0,2.9.4,3,2.2s-.1,3.6-2.2,4.1a27.57,27.57,0,0,1-9.5.2c-2.3-.3-1.2-2.7-1.4-4.1s.6-2.2,2-2.3,3,0,4.6-.1Z"/><path class="cls-1" d="M649.16,380.46c0-3.4.1-3.4,3.4-3.5,6.8-.1,13.5-.3,20.3-.4H675c.9,0,1.8.1,2,1.2s-.6,1.5-1.4,1.9c-3.8,1.7-7.5,3.3-11.3,5-.6.3-1.2.4-1.7.7-3.7,2.5-7.2,2.3-10.9-.4C649.26,383.16,649.16,383.46,649.16,380.46Zm18.5-.5c0-.1-.1-.3-.1-.4h-14.3c-1.3,0-1.6.8-1.2,1.9s4.7,3.2,5.9,2.7C661.16,382.86,664.36,381.46,667.66,380Z"/><path class="cls-1" d="M645.66,385.76h4.6c1.2,0,2.7-.3,2.8,1.6s.2,3.6-2,4.4a8.55,8.55,0,0,1-3.2.4h-7.7c-2.4,0-2.3-1.8-2.3-3.5s.2-3,2.3-2.9A50.44,50.44,0,0,0,645.66,385.76Z"/><path class="cls-1" d="M626.26,414.66a4.15,4.15,0,0,1-.1-8.3,3.91,3.91,0,0,1,4.1,4A4.08,4.08,0,0,1,626.26,414.66Z"/><path class="cls-1" d="M593.56,256.86c-1.1-.4-2.6-.1-2.7-1.6-.1-1.9,1.7-1.3,2.7-1.9-.1-1.2-2-2.1-.6-3.4,1.2-1.1,2.1.5,3.1.8.8-.9.2-2.9,2-2.7s1.1,1.9,1.6,3c1.2-.2,2-2.4,3.4-.9s-.7,2.2-1.2,3.4c.8,1,3.3-.4,3,1.8-.2,1.6-1.8,1.1-3,1.4.1,1.3,2.4,2.2.9,3.6-1.2,1.2-2-.6-3.1-.9-.8.9-.1,3-2.1,2.8-1.6-.2-.9-1.9-1.5-2.8-1.2.1-2,2-3.3.7S593.36,258.16,593.56,256.86Z"/><path class="cls-1" d="M593.66,392.66c-.5-1.2-2-2.1-.8-3.2,1.4-1.2,2.1.6,3.3,1.1.7-1-.1-3,1.7-3.1s1.3,1.9,1.7,3c1.2-.2,2.1-2.2,3.3-.9,1.4,1.5-.7,2.2-1.1,3.4.9.9,3.3-.4,3.1,1.8-.1,1.8-2,.8-3,1.5.2,1.2,2.3,2,1,3.4s-2.1-.6-3.2-.9c-.6,1.1-.2,2.9-1.9,2.9-1.9,0-1.1-1.9-1.7-2.9-1.2,0-2.1,2.2-3.4.7-1.2-1.3.7-2.1.8-3.3-.9-.6-2.8.1-2.7-1.8C590.86,392.76,592.56,393.26,593.66,392.66Z"/></g><path class="cls-1" d="M592.26,275.26c-1.4-.4-9.7-1.8-13.9-10.5-3.7-7.6-2.3-18.2,3.5-24.4,3.6-3.8,10.2-6,10.4-6.1v-39.9c0-8,.3-13.9,8.7-14.1h2.5a13.06,13.06,0,0,1,9.3-3.7h14.7a12.73,12.73,0,0,1,10.3,4.8,13.66,13.66,0,0,1,4.5,3h39.1a11.51,11.51,0,0,1,4.1-2.6,12.38,12.38,0,0,1,12.2,2.1c2.5,2,4.9,4.1,7.2,6.1l1.1,1a12.86,12.86,0,0,1,4.2,10v173.3a19.74,19.74,0,0,1-1.5,8.1,16.17,16.17,0,0,1-23.5,7c-8.3,4-17,8.1-26.4,12.5a30,30,0,0,1-2.4,4.4l-2.3,3.3c-3.8,5.4-7.7,11-11.5,16.5a15.22,15.22,0,0,1-13.3,6.7h-14.7a15.8,15.8,0,0,1-10.6,4.9c-2.5.2-8.1-.3-10.2-6.2-.8-2.2-.3-13.6-.3-16.8-10-3.1-16.3-10.4-15.8-20.5a21.89,21.89,0,0,1,15.6-20C592.86,341.56,592.16,307.86,592.26,275.26Zm99.9-73.2Zm-2.3,175.2Zm-44.4-188.4Zm-13.3-12.5Zm-12,9.8Zm-6.1,225.2Zm-8.8-25Z"/><g id="MTrLNZ.tif"><path class="cls-1" d="M521.36,363.66c0,2.8.2,5.6,0,8.4a13.6,13.6,0,0,1-13.1,12.5,13.36,13.36,0,0,1-14.2-11.7,140.74,140.74,0,0,1-1.3-18.3,13.77,13.77,0,0,1,13.5-13.8c6.9-.3,12.9,4.8,14.1,12.1.6,3.6.7,7.2,1,10.9C521.26,363.66,521.26,363.66,521.36,363.66Z"/><path class="cls-1" d="M478.66,473.36c-.2,10.8-10.3,17.6-19.3,13.4a114.32,114.32,0,0,1-16.6-9.7,13.53,13.53,0,0,1-3.6-18.1c3.8-6.2,11.1-8.8,17.6-5.6a162.61,162.61,0,0,1,16.2,9.4A12.19,12.19,0,0,1,478.66,473.36Z"/><path class="cls-1" d="M505.66,416.16c11,.5,18,12.1,12.3,21.3a100.29,100.29,0,0,1-13.1,16.1c-4.6,4.7-12.1,4.5-17.3.5s-7.6-11.8-3.9-17.3a121.58,121.58,0,0,1,14.2-17.1C499.66,417.76,503,417.36,505.66,416.16Z"/><path class="cls-1" d="M426.46,421.56c1.2-2,2.7-6,5.4-8.7,3.8-3.9,8.4-7,12.8-10.2,6.4-4.5,14.6-3.4,19.2,2.3,4.8,6,4.1,14.3-2.1,19.6a157.78,157.78,0,0,1-13.8,10.6,12.7,12.7,0,0,1-14.1.6C429.16,433.16,426.86,429,426.46,421.56Z"/></g><g id="MTrLNZ.tif-2" data-name="MTrLNZ.tif"><path class="cls-1" d="M518.76,360.86c0,1.1.1,3.4,0,5.7a13.76,13.76,0,0,1-11.8,13.3c-7.3.9-14-3.1-15.2-10.3a95.79,95.79,0,0,1-1.5-20.7c.3-7.6,6.7-12.8,13.9-12.7s12.8,5.4,13.6,13.1C518.16,352.66,518.36,356.16,518.76,360.86Z"/><path class="cls-1" d="M510.06,237.56c0,2.8.2,5.6,0,8.4a13.6,13.6,0,0,1-13.1,12.5,13.36,13.36,0,0,1-14.2-11.7,140.74,140.74,0,0,1-1.3-18.3,13.77,13.77,0,0,1,13.5-13.8c6.9-.3,12.9,4.8,14.1,12.1.6,3.6.7,7.2,1,10.9C510,237.56,510.06,237.56,510.06,237.56Z"/><path class="cls-1" d="M467.46,347.16c-.2,10.8-10.3,17.6-19.3,13.4a114.32,114.32,0,0,1-16.6-9.7,13.53,13.53,0,0,1-3.6-18.1c3.8-6.2,11.1-8.8,17.6-5.6a162.61,162.61,0,0,1,16.2,9.4A12.79,12.79,0,0,1,467.46,347.16Z"/><path class="cls-1" d="M494.46,290.06c11,.5,18,12.1,12.3,21.3a100.29,100.29,0,0,1-13.1,16.1c-4.6,4.7-12.1,4.5-17.3.5s-7.6-11.8-3.9-17.3a121.58,121.58,0,0,1,14.2-17.1C488.36,291.66,491.76,291.16,494.46,290.06Z"/><path class="cls-1" d="M415.16,295.36c1.2-2,2.7-6,5.4-8.7,3.8-3.9,8.4-7,12.8-10.2,6.4-4.5,14.6-3.4,19.2,2.3,4.8,6,4.1,14.3-2.1,19.6a157.78,157.78,0,0,1-13.8,10.6,12.7,12.7,0,0,1-14.1.6C418,307,415.56,302.76,415.16,295.36Z"/></g><g id="MTrLNZ.tif-3" data-name="MTrLNZ.tif"><path class="cls-1" d="M529.46,237.56c0,1.1.1,3.4,0,5.7a13.76,13.76,0,0,1-11.8,13.3c-7.3.9-14-3.1-15.2-10.3a95.79,95.79,0,0,1-1.5-20.7c.3-7.6,6.7-12.8,13.9-12.7s12.8,5.4,13.6,13.1C528.86,229.46,529.06,232.86,529.46,237.56Z"/><path class="cls-1" d="M478.16,224c-.2,10.8-10.3,17.6-19.3,13.4a114.32,114.32,0,0,1-16.6-9.7,13.53,13.53,0,0,1-3.6-18.1c3.8-6.2,11.1-8.8,17.6-5.6a162.61,162.61,0,0,1,16.2,9.4A12.66,12.66,0,0,1,478.16,224Z"/><path class="cls-1" d="M505.16,166.76c11,.5,18,12.1,12.3,21.3a100.29,100.29,0,0,1-13.1,16.1c-4.6,4.7-12.1,4.5-17.3.5s-7.6-11.8-3.9-17.3a121.58,121.58,0,0,1,14.2-17.1C499.06,168.36,502.46,168,505.16,166.76Z"/><path class="cls-1" d="M425.86,172.06c1.2-2,2.7-6,5.4-8.7,3.8-3.9,8.4-7,12.8-10.2,6.4-4.5,14.6-3.4,19.2,2.3,4.8,6,4.1,14.3-2.1,19.6a157.78,157.78,0,0,1-13.8,10.6,12.7,12.7,0,0,1-14.1.6C428.66,183.76,426.26,179.56,425.86,172.06Z"/></g><g id="MTrLNZ.tif-4" data-name="MTrLNZ.tif"><path class="cls-1" d="M569.66,187.76c-.2,10.8-10.3,17.6-19.3,13.4a114.32,114.32,0,0,1-16.6-9.7,13.53,13.53,0,0,1-3.6-18.1c3.8-6.2,11.1-8.8,17.6-5.6a162.61,162.61,0,0,1,16.2,9.4A12.3,12.3,0,0,1,569.66,187.76Z"/></g><g id="MTrLNZ.tif-5" data-name="MTrLNZ.tif"><path class="cls-1" d="M533.66,446.46c1.2-2,2.7-6,5.4-8.7,3.8-3.9,8.4-7,12.8-10.2,6.4-4.5,14.6-3.4,19.2,2.3,4.8,6,4.1,14.3-2.1,19.6a157.78,157.78,0,0,1-13.8,10.6,12.7,12.7,0,0,1-14.1.6C536.36,458.06,534,453.86,533.66,446.46Z"/></g><path class="cls-1" d="M582.56,458.76c2.2-20.5-1.3-35.1-5.1-44.8-3.1-8.1-5.8-11-6.3-18.3-1.2-15.8,9.9-19.3,12.6-35.4,3.5-20.2-12.4-24.5-8.8-46.1,2.3-14.3,10.3-18.8,7.6-30.3-2.2-9.2-7.9-9.1-10.7-18.9-2.2-7.6.1-11.5,4.4-31.6,3.8-17.6,5.7-26.4,5.1-31.6-2-16.3-11.7-21.2-9.5-32.2,1.6-8,8.4-13.4,13.9-16.7"/><g id="MTrLNZ.tif-6" data-name="MTrLNZ.tif"><path class="cls-1" d="M403.06,211.16c0,1.1.1,3.4,0,5.7a13.76,13.76,0,0,1-11.8,13.3c-7.3.9-14-3.1-15.2-10.3a95.79,95.79,0,0,1-1.5-20.7c.3-7.6,6.7-12.8,13.9-12.7s12.8,5.4,13.6,13.1C402.36,203.06,402.66,206.46,403.06,211.16Z"/><path class="cls-1" d="M351.76,197.56c-.2,10.8-10.3,17.6-19.3,13.4a114.32,114.32,0,0,1-16.6-9.7,13.53,13.53,0,0,1-3.6-18.1c3.8-6.2,11.1-8.8,17.6-5.6a162.61,162.61,0,0,1,16.2,9.4A12.54,12.54,0,0,1,351.76,197.56Z"/><path class="cls-1" d="M378.66,140.36c11,.5,18,12.1,12.3,21.3a100.29,100.29,0,0,1-13.1,16.1c-4.6,4.7-12.1,4.5-17.3.5s-7.6-11.8-3.9-17.3a121.58,121.58,0,0,1,14.2-17.1C372.66,142,376.06,141.46,378.66,140.36Z"/><path class="cls-1" d="M299.46,145.66c1.2-2,2.7-6,5.4-8.7,3.8-3.9,8.4-7,12.8-10.2,6.4-4.5,14.6-3.4,19.2,2.3,4.8,6,4.1,14.3-2.1,19.6a157.78,157.78,0,0,1-13.8,10.6,12.7,12.7,0,0,1-14.1.6C302.16,157.36,299.86,153.16,299.46,145.66Z"/></g><g id="MTrLNZ.tif-7" data-name="MTrLNZ.tif"><path class="cls-1" d="M394.26,377c0,2.8.2,5.6,0,8.4a13.6,13.6,0,0,1-13.1,12.5,13.36,13.36,0,0,1-14.2-11.7,140.74,140.74,0,0,1-1.3-18.3,13.77,13.77,0,0,1,13.5-13.8c6.9-.3,12.9,4.8,14.1,12.1.6,3.6.7,7.2,1,10.9C394.16,377,394.16,377,394.26,377Z"/><path class="cls-1" d="M378.56,429.46c11,.5,18,12.1,12.3,21.3a100.29,100.29,0,0,1-13.1,16.1c-4.6,4.7-12.1,4.5-17.3.5s-7.6-11.8-3.9-17.3a121.58,121.58,0,0,1,14.2-17.1C372.56,431.06,375.86,430.56,378.56,429.46Z"/><path class="cls-1" d="M299.36,434.76c1.2-2,2.7-6,5.4-8.7,3.8-3.9,8.4-7,12.8-10.2,6.4-4.5,14.6-3.4,19.2,2.3,4.8,6,4.1,14.3-2.1,19.6a157.78,157.78,0,0,1-13.8,10.6,12.7,12.7,0,0,1-14.1.6C302.06,446.36,299.76,442.26,299.36,434.76Z"/></g><g id="MTrLNZ.tif-8" data-name="MTrLNZ.tif"><path class="cls-1" d="M282.66,428.26c0,2.8.2,5.6,0,8.4a13.6,13.6,0,0,1-13.1,12.5,13.36,13.36,0,0,1-14.2-11.7,140.74,140.74,0,0,1-1.3-18.3,13.77,13.77,0,0,1,13.5-13.8c6.9-.3,12.9,4.8,14.1,12.1.6,3.6.7,7.2,1,10.9C282.56,428.26,282.66,428.26,282.66,428.26Z"/></g><g id="MTrLNZ.tif-9" data-name="MTrLNZ.tif"><path class="cls-1" d="M288.86,161.56c0,1.1.1,3.4,0,5.7a13.76,13.76,0,0,1-11.8,13.3c-7.3.9-14-3.1-15.2-10.3a95.79,95.79,0,0,1-1.5-20.7c.3-7.6,6.7-12.8,13.9-12.7s12.8,5.4,13.6,13.1C288.16,153.36,288.36,156.86,288.86,161.56Z"/><path class="cls-1" d="M237.46,147.86c-.2,10.8-10.3,17.6-19.3,13.4a114.32,114.32,0,0,1-16.6-9.7,13.53,13.53,0,0,1-3.6-18.1c3.8-6.2,11.1-8.8,17.6-5.6a162.61,162.61,0,0,1,16.2,9.4A12.42,12.42,0,0,1,237.46,147.86Z"/></g><g id="MTrLNZ.tif-10" data-name="MTrLNZ.tif"><path class="cls-1" d="M126.16,175.66c0,1.1.1,3.4,0,5.7a13.76,13.76,0,0,1-11.8,13.3c-7.3.9-14-3.1-15.2-10.3a95.79,95.79,0,0,1-1.5-20.7c.3-7.6,6.7-12.8,13.9-12.7s12.8,5.4,13.6,13.1C125.56,167.56,125.76,171,126.16,175.66Z"/></g><path class="cls-1" d="M174.36,149.16c-.2,10.8-10.3,17.6-19.3,13.4a114.32,114.32,0,0,1-16.6-9.7,13.53,13.53,0,0,1-3.6-18.1c3.8-6.2,11.1-8.8,17.6-5.6a162.61,162.61,0,0,1,16.2,9.4,12.79,12.79,0,0,1,5.7,10.6"/><g id="MTrLNZ.tif-11" data-name="MTrLNZ.tif"><path class="cls-1" d="M127,419.86c8,7.2,6.4,19.3-2.7,23.3a119.05,119.05,0,0,1-18.3,6.1,13.59,13.59,0,0,1-16-9.2c-2.2-6.9.7-14.1,7.4-16.9a161.87,161.87,0,0,1,17.8-6A12.38,12.38,0,0,1,127,419.86Z"/><path class="cls-1" d="M101.86,361.86c7.7-7.9,21-5.6,24.1,4.8a94.43,94.43,0,0,1,3.4,20.5c.5,6.6-4.6,12.1-11,13.3-6.6,1.3-13.9-2.1-15.6-8.4a124.9,124.9,0,0,1-3.5-21.9C99.06,367.46,100.86,364.66,101.86,361.86Z"/></g><g id="MTrLNZ.tif-12" data-name="MTrLNZ.tif"><path class="cls-1" d="M72.16,208.26c10.7,1.2,16.5,12,11.4,20.6a115.35,115.35,0,0,1-11.4,15.6,13.52,13.52,0,0,1-18.4,1.8c-5.8-4.4-7.6-11.9-3.8-18.1A163,163,0,0,1,61,213,12.36,12.36,0,0,1,72.16,208.26Z"/></g><path class="cls-1" d="M11,342.46c.4-6.9,6.1-12.4,13.5-12.8,3.6-.2,7.3,0,10.9.1v-.1a79.81,79.81,0,0,1,8.4.9,13.58,13.58,0,0,1,11.1,14.3,13.39,13.39,0,0,1-13.1,13,124,124,0,0,1-18.3-.6A13.79,13.79,0,0,1,11,342.46"/><g id="MTrLNZ.tif-13" data-name="MTrLNZ.tif"><path class="cls-1" d="M166.66,446.46c2.3.2,6.5-.1,10.2,1.2,5.1,1.8,9.9,4.6,14.6,7.3,6.8,3.9,9.3,11.8,6,18.4-3.4,6.9-11.2,9.7-18.7,6.4-5.3-2.4-10.4-5.1-15.5-8-4.7-2.7-6.8-7.1-6.5-12.5C157.26,453.86,160.06,450,166.66,446.46Z"/></g><path class="cls-1" d="M287.8,386.28c-3.2,6.12-10.63,8.74-17.54,6.12-3.42-1.29-6.58-3-9.93-4.61.14,0,.14,0,.09,0-2.43-1.41-5-2.64-7.27-4.22A13.6,13.6,0,0,1,248.92,366c3.36-6.37,10.57-9.24,17.25-6.4a141.94,141.94,0,0,1,16.48,8.06,13.77,13.77,0,0,1,5.15,18.61"/><path class="cls-1" d="M296.22,315.13c2.41,6.47-.59,13.75-7.17,17.14-3.24,1.68-6.63,2.88-10.06,4.31.06-.13.06-.13.09,0-2.66.86-5.26,1.91-8,2.58a13.59,13.59,0,0,1-15.92-8.61c-2.51-6.76.18-14,6.75-17.11a139.7,139.7,0,0,1,17-6.87,13.76,13.76,0,0,1,17.29,8.59"/><path class="cls-1" d="M293.47,261.79c-4,5.63-11.72,7.22-18.21,3.68-3.21-1.74-6.11-3.87-9.21-5.91.14,0,.14,0,.07.06-2.2-1.72-4.54-3.28-6.62-5.16a13.61,13.61,0,0,1-1.81-18c4.2-5.86,11.73-7.72,18-4a140.09,140.09,0,0,1,15.23,10.23,13.76,13.76,0,0,1,2.59,19.13"/><path class="cls-1" d="M379.75,319.61c-6.47-2.43-10-9.47-8.23-16.66.86-3.55,2.17-6.9,3.35-10.42.05.13.05.13,0,.09,1.09-2.58,2-5.23,3.29-7.73a13.61,13.61,0,0,1,16.95-6.37c6.74,2.55,10.47,9.35,8.48,16.33a140.32,140.32,0,0,1-6,17.35,13.78,13.78,0,0,1-17.83,7.41"/><path class="cls-1" d="M575.79,352.49c.53,6.89-4.37,13.06-11.63,14.5-3.58.72-7.17.94-10.86,1.36.1-.1.1-.1.1,0-2.8.09-5.59.38-8.39.27A13.6,13.6,0,0,1,532.08,356c-.54-7.19,4-13.45,11.22-14.58a138.93,138.93,0,0,1,18.25-1.91,13.77,13.77,0,0,1,14.24,13"/><path class="cls-1" d="M563,300.59c-6.11,3.22-13.71,1.17-17.92-4.92-2.08-3-3.7-6.21-5.56-9.43.14.05.14.05,0,.09-1.2-2.53-2.57-5-3.59-7.6a13.59,13.59,0,0,1,6.51-16.89,13.35,13.35,0,0,1,17.83,4.51,140.7,140.7,0,0,1,9,16A13.77,13.77,0,0,1,563,300.59"/><path class="cls-1" d="M768.26,364.89a4.09,4.09,0,0,1,.76.79,3.53,3.53,0,0,1,.52,1,2.67,2.67,0,0,1,.14,1.09,2.08,2.08,0,0,1-.35,1l-.21.28a1.55,1.55,0,0,1-.26.25,4,4,0,0,1-.6.38,2.61,2.61,0,0,1-.7.25.75.75,0,0,1-.38-.1.53.53,0,0,1-.2-.22.57.57,0,0,1,0-.29.76.76,0,0,1,.13-.3.93.93,0,0,1,.31-.27,2.14,2.14,0,0,0,.62-.21,1.22,1.22,0,0,0,.37-.34,1.1,1.1,0,0,0,.17-.59,2,2,0,0,0-.15-.66,2.72,2.72,0,0,0-.41-.63,2.44,2.44,0,0,0-.58-.53,2.32,2.32,0,0,0-.38-.21,1.42,1.42,0,0,0-.4-.12,1.19,1.19,0,0,0-.71.06,1,1,0,0,0-.46.38,1,1,0,0,0-.16.45,1.45,1.45,0,0,0,0,.58h0a.62.62,0,0,1,0,.27,2.56,2.56,0,0,1-.11.24.6.6,0,0,1-.37.26.49.49,0,0,1-.41-.06.73.73,0,0,1-.26-.41,2.34,2.34,0,0,1,0-1,2.68,2.68,0,0,1,.39-.94,2.32,2.32,0,0,1,.44-.5,1.93,1.93,0,0,1,.57-.37,9.07,9.07,0,0,1,1.42-.09A6.3,6.3,0,0,1,768.26,364.89Z"/><path class="cls-1" d="M760.63,372.54a.59.59,0,0,1-.32-.17.51.51,0,0,1-.13-.31.66.66,0,0,1,.08-.35,1,1,0,0,1,.32-.32l.29-.05.26,0a2.39,2.39,0,0,1,.12-1,4,4,0,0,1,.41-.79,3.21,3.21,0,0,1,.43-.53,2,2,0,0,1,.61-.4,1.89,1.89,0,0,1,1.06-.13,2.32,2.32,0,0,1,.94.37,3.3,3.3,0,0,1,.75.69,3.52,3.52,0,0,1,.5.86,5.26,5.26,0,0,1,.27,1,6.73,6.73,0,0,1,.07,1,2.43,2.43,0,0,1,0,.28c0,.11-.06.23-.1.37s-.1.27-.16.41l-.21.37a2.91,2.91,0,0,1-.48.55.7.7,0,0,1-.64.12l-.53-.35-.35-.23-.23-.17-.18-.12-.78-.48c-.28-.16-.55-.31-.83-.44-.09,0-1-.13-1.12-.15m1.72-1a5.74,5.74,0,0,1,.83.4c.28.16.55.32.81.5l.49.34.42.29a1.82,1.82,0,0,0,.16-.43c0-.16.05-.27.06-.34a2,2,0,0,0,0-.76,2.32,2.32,0,0,0-.27-.72,2.73,2.73,0,0,0-.45-.62,1.87,1.87,0,0,0-.59-.42.82.82,0,0,0-.5-.08,1,1,0,0,0-.44.16,1.1,1.1,0,0,0-.34.34,1.54,1.54,0,0,0-.21.45A6,6,0,0,0,762.35,371.58Z"/><path class="cls-1" d="M760.44,373.45a.55.55,0,0,1,.44.9.94.94,0,0,1-.4.31,2.47,2.47,0,0,0-.85.21,1,1,0,0,0-.58.57.76.76,0,0,0-.06.36.63.63,0,0,0,.08.32.6.6,0,0,0,.22.23.53.53,0,0,0,.3.09,1.32,1.32,0,0,0,.37-.05,1,1,0,0,0,.29-.16l.22-.19a1.07,1.07,0,0,1,.19-.18l.3-.26a2.52,2.52,0,0,1,.33-.24,3.34,3.34,0,0,1,.38-.17,2,2,0,0,1,.46-.08,1.75,1.75,0,0,1,.46,0,1.39,1.39,0,0,1,.39.17,1.43,1.43,0,0,1,.4.38,2.15,2.15,0,0,1,.27.52,1.56,1.56,0,0,1,.11.57,1.44,1.44,0,0,1-.08.55,2.64,2.64,0,0,1-.59,1,3.42,3.42,0,0,1-.88.68.92.92,0,0,1-.37.08.46.46,0,0,1-.46-.29.7.7,0,0,1,0-.29.61.61,0,0,1,.11-.3.76.76,0,0,1,.28-.25,4,4,0,0,0,.37-.28,1.79,1.79,0,0,0,.34-.44.73.73,0,0,0,.11-.47.58.58,0,0,0-.35-.4l-.3,0a1.23,1.23,0,0,0-.26.12,1.44,1.44,0,0,0-.25.18l-.24.21c-.21.18-.42.33-.62.47a2.13,2.13,0,0,1-.62.28,1.58,1.58,0,0,1-.65,0,1.86,1.86,0,0,1-.69-.3,1.58,1.58,0,0,1-.47-.49,2.3,2.3,0,0,1-.25-.66,2.11,2.11,0,0,1,0-.71,1.77,1.77,0,0,1,.23-.62,3.35,3.35,0,0,1,1.05-1,2.76,2.76,0,0,1,1.33-.44Z"/><path class="cls-1" d="M756.29,378.81a.69.69,0,0,1-.26-.42.66.66,0,0,1,.11-.45.64.64,0,0,1,.34-.26.58.58,0,0,1,.48,0l5.81,3.84a.67.67,0,0,1,.19.41.55.55,0,0,1-.1.39.64.64,0,0,1-.32.27.75.75,0,0,1-.45,0l-2.27-1.51a3.89,3.89,0,0,1-.16,1.27,2,2,0,0,1-.62.85,1.91,1.91,0,0,1-.69.36,2.44,2.44,0,0,1-.76.06,2.85,2.85,0,0,1-.76-.15,3.45,3.45,0,0,1-.67-.32l-.81-.54-.54-.35-.36-.23-.27-.17a.62.62,0,0,1-.27-.41.68.68,0,0,1,.1-.44.71.71,0,0,1,.35-.26.59.59,0,0,1,.48,0l1,.65,1,.64a2.65,2.65,0,0,0,.75.29,1.27,1.27,0,0,0,.77-.07,1,1,0,0,0,.24-.42,1.43,1.43,0,0,0,0-.51,2.73,2.73,0,0,0-.11-.6c-.06-.22-.12-.44-.19-.67Z"/><path class="cls-1" d="M761.11,363.41a1.94,1.94,0,0,1-.72.68,2.18,2.18,0,0,1-.9.26,2.59,2.59,0,0,1-1-.1,3.14,3.14,0,0,1-.89-.41,3,3,0,0,1-.32-.24l-.28-.26a4,4,0,0,1-.58-.89,3.57,3.57,0,0,1-.3-1,3,3,0,0,1,0-1,2.57,2.57,0,0,1,.37-.91,2.21,2.21,0,0,1,.72-.68,2.48,2.48,0,0,1,.9-.28,2.92,2.92,0,0,1,.93.06,2.81,2.81,0,0,1,.85.37,3.27,3.27,0,0,1,.9.88,4.05,4.05,0,0,1,.54,1.13,3.39,3.39,0,0,1,.11,1.23A2.4,2.4,0,0,1,761.11,363.41Zm-1.37-2.89a2.36,2.36,0,0,0-.5-.42,2.23,2.23,0,0,0-.61-.28,1.12,1.12,0,0,0-.63,0,.88.88,0,0,0-.53.41,1.12,1.12,0,0,0-.2.7,2,2,0,0,0,.17.73,3,3,0,0,0,.4.67,2.42,2.42,0,0,0,.51.47,2.82,2.82,0,0,0,.49.25,1.65,1.65,0,0,0,.52.1,1.1,1.1,0,0,0,.48-.08.82.82,0,0,0,.35-.29,1.11,1.11,0,0,0,.19-.58,2.18,2.18,0,0,0-.06-.62,2,2,0,0,0-.24-.58A2.69,2.69,0,0,0,759.74,360.52Z"/><path class="cls-1" d="M752.37,367.37a.59.59,0,0,1-.27-.44.72.72,0,0,1,.1-.44.71.71,0,0,1,.35-.27.62.62,0,0,1,.49,0l.26.17.38.25.62.4,1,.64.34.24a2.73,2.73,0,0,0,.43.26,1.24,1.24,0,0,0,.44.11.39.39,0,0,0,.34-.19,1.59,1.59,0,0,0,.24-.76,2.32,2.32,0,0,0-.16-.9,2.09,2.09,0,0,0-.15-.3,1.45,1.45,0,0,0-.28-.28l-1.06-.7c-.35-.24-.71-.46-1.07-.7a.57.57,0,0,1-.28-.43.71.71,0,0,1,.1-.43.68.68,0,0,1,.34-.26.62.62,0,0,1,.49.05l1.9,1.26,1,.61,1,.65a.65.65,0,0,1,.21.42.61.61,0,0,1-.11.39.7.7,0,0,1-.29.24.55.55,0,0,1-.4,0,3.34,3.34,0,0,1-.11.89,2.73,2.73,0,0,1-.36.82,2.14,2.14,0,0,1-.71.66,1.8,1.8,0,0,1-1,.22,1.68,1.68,0,0,1-.5-.13,4.09,4.09,0,0,1-.46-.25c-.14-.1-.29-.21-.42-.32l-.39-.29Z"/><path class="cls-1" d="M751.06,369.84a.68.68,0,0,1-.61,0,.5.5,0,0,1-.19-.22.59.59,0,0,1,0-.59.76.76,0,0,1,.28-.25l.61-.27a.41.41,0,0,1,.24,0,1.16,1.16,0,0,1,.24.07l5.8,3.83a.73.73,0,0,1,.19.41.55.55,0,0,1-.1.39.6.6,0,0,1-.31.26.73.73,0,0,1-.44,0l-5.61-3.7a.13.13,0,0,0-.08,0Z"/><path class="cls-1" d="M751.9,377.13a.66.66,0,0,1,0,.69.63.63,0,0,1-.39.27A.68.68,0,0,1,751,378a12.63,12.63,0,0,1-1-1.28,15.75,15.75,0,0,1-.89-1.4c-.28-.47-.55-1-.8-1.45l-.74-1.48-.36-.72c-.11-.24-.24-.48-.37-.73a1,1,0,0,1,0-.4.83.83,0,0,1,.1-.29.61.61,0,0,1,.35-.27.52.52,0,0,1,.45.1l.07,0,.07.07c.15.27.28.54.41.82l.41.82.72,1.42a8.47,8.47,0,0,1,1.19-.32,8.81,8.81,0,0,1,1.13-.11,5.63,5.63,0,0,1,1.15.09,7.62,7.62,0,0,1,1.21.3c.4.26.49.56.26.9a.64.64,0,0,1-.3.26.69.69,0,0,1-.45,0,5.5,5.5,0,0,0-1.85-.32,6.89,6.89,0,0,0-1.77.26c.29.52.59,1,.9,1.46a15.67,15.67,0,0,0,1.09,1.39Z"/><path class="cls-1" d="M752.14,379.9a.69.69,0,0,1,.2.4.6.6,0,0,1-.11.4.65.65,0,0,1-.3.25.69.69,0,0,1-.45,0l-3.6-2.37a.67.67,0,0,1-.27-.42.6.6,0,0,1,.1-.43.67.67,0,0,1,.35-.27.61.61,0,0,1,.47,0Zm-5.31-3.65a.65.65,0,0,1,.3.48.81.81,0,0,1-.13.59.79.79,0,0,1-.5.36.65.65,0,0,1-.56-.08.68.68,0,0,1-.3-.48.87.87,0,0,1,.14-.6.79.79,0,0,1,.49-.35A.65.65,0,0,1,746.83,376.25Z"/><g id="IceCream"><path class="cls-1" d="M178.53,202a6.79,6.79,0,0,0,1,.87,12.13,12.13,0,0,1,1-1.4"/><path class="cls-1" d="M167.73,201.45l1.5.3"/><path class="cls-1" d="M171.63,194.55a8.63,8.63,0,0,1-.4-2.8,17.11,17.11,0,0,1,1.4-6.7,13.5,13.5,0,0,0-2.6,1.5,3.11,3.11,0,0,0-1.1,3.8,18.94,18.94,0,0,0,.9,2.1c-1.3.1-2.7,0-4,.2a4.33,4.33,0,0,0-.5.1"/><path class="cls-1" d="M174.53,198.55a3.6,3.6,0,0,1-2.1-1.1"/><path class="cls-1" d="M171.63,194.55"/><path class="cls-1" d="M172.63,185.05a17.11,17.11,0,0,0-1.4,6.7"/><path class="cls-1" d="M179.53,202.85"/><path class="cls-1" d="M174.53,198.55c1.3.9,4.2,2.7,6,2.9"/><path class="cls-1" d="M192.88,184.4a3.66,3.66,0,0,1,3-2.65,13.45,13.45,0,0,1,4.9,0c2.3.4,3.1,1.6,2.8,3.8a18.92,18.92,0,0,1-.5,2.3c2.1-.3,4.1-.1,5.4,1.8a8.62,8.62,0,0,1,1.2,6.8c-.3,1.5-1.5,2-2.9,2.2a22.25,22.25,0,0,1-2.6,0,14.25,14.25,0,0,0,1.1,1.2,4.17,4.17,0,0,1,0,5.7,16.5,16.5,0,0,1-4.5,2.9c-1.6.7-2.9.1-3.9-1.4-.3-.4-.5-.9-.8-1.3a7.17,7.17,0,0,1-4.9,1.7"/><path class="cls-1" d="M195.09,171.57a8.09,8.09,0,0,0-8.26,6.68"/><path class="cls-1" d="M180.69,212.76a24,24,0,0,0,5.7,4.2c3.3,1.8,6.1,1.3,8.3-1.7a26.25,26.25,0,0,0,2.1-3.4,69.39,69.39,0,0,0,6.2,4.71,5.38,5.38,0,0,0,6.7-1.21,29.46,29.46,0,0,0,3.6-4.9c1.3-2.29,2.2-4.79,1.2-7.39a31.14,31.14,0,0,0-2.3-4,41.7,41.7,0,0,0,4.1-1.9c2-1.21,3.2-2.9,2.8-5.21a16.82,16.82,0,0,0-5.5-9.29,8.82,8.82,0,0,0-7-2c.1-.71.2-1.3.3-1.9a4.92,4.92,0,0,0-3.5-5.8,33.54,33.54,0,0,0-8.3-1.4"/><path class="cls-1" d="M178.43,180.15a6.53,6.53,0,0,0-2,.5"/><path class="cls-1" d="M193.93,199.35a3.19,3.19,0,0,0,1.4.3,4.51,4.51,0,0,0,4.6-4.2c.1-2.4-2.2-4.5-4.9-4.5a3.08,3.08,0,0,0-3,2.6"/><path class="cls-1" d="M178.43,180.15h0c.4.1.9.2,1.4.3a34.37,34.37,0,0,1,5.3,2.1c.4.2.7.4,1.2.7a29.77,29.77,0,0,1,.5-5"/><path class="cls-1" d="M192.88,184.4a4.53,4.53,0,0,0-.3,1.6v1.8a6.61,6.61,0,0,0-1.8-1c-2.1-.5-6.4,1.9-6.8,3.6a10.9,10.9,0,0,0,.5,3.3,10.63,10.63,0,0,0,1.2,1.8,12.49,12.49,0,0,0,1.2.9,26,26,0,0,0,2.5,1c-1,1.1-2.1,2.1-3.1,3.2-.2.4-.4.7-.6,1.1a3,3,0,0,0,.4,2.9,6.64,6.64,0,0,0,5,2.85"/><path class="cls-1" d="M193.93,199.35c-1.4-.6-2.2-2.1-2.1-4.2a7.77,7.77,0,0,1,.2-1.6"/><path class="cls-1" d="M155.53,198.15a21.67,21.67,0,0,0,.8,4.3"/><path class="cls-1" d="M161,190.05a7,7,0,0,0-5.3,5.5"/><path class="cls-1" d="M168.63,174.55a16,16,0,0,0-6.2,3.9,7.43,7.43,0,0,0-2.1,3.3"/><path class="cls-1" d="M172.63,185.05a10.09,10.09,0,0,1,.7-1.5,5.29,5.29,0,0,1,3-2.9,31.74,31.74,0,0,0-1.9-4.2,4.54,4.54,0,0,0-5.9-1.9"/><path class="cls-1" d="M178.53,202c0,.6-.08,1.24-.1,1.6a3.69,3.69,0,0,1-3.4,3.6,13.75,13.75,0,0,1-4.5-.8,2.54,2.54,0,0,1-1.68-3.12c.07-.4.28-1,.38-1.48"/><path class="cls-1" d="M159.73,207a6.28,6.28,0,0,0,3.1.2c1.2-.2,2.4-.7,3.3-.9a50.13,50.13,0,0,0,1,6.6,4.49,4.49,0,0,0,4.8,3.2,28.64,28.64,0,0,0,5.1-.9,9.67,9.67,0,0,0,3.9-2,7.55,7.55,0,0,1-1.1-1.4,8.42,8.42,0,0,1-.3-8.9"/><path class="cls-1" d="M172.43,197.45a3.6,3.6,0,0,0,2.1,1.1,7.73,7.73,0,0,1-2.9-4A3,3,0,0,0,172.43,197.45Z"/><path class="cls-1" d="M156.63,203.25a6.89,6.89,0,0,0-.3-.8,1.38,1.38,0,0,0-.4-.3v1.1a3.45,3.45,0,0,1-2.6,3.4,10.87,10.87,0,0,1-3.6,0c-1.1-.2-1.5-1.1-1.4-2.3.1-.4.1-.7.2-1.1-2.9.3-4.9-1.7-4.7-4.7a2.55,2.55,0,0,1,1.8-2.2c1-.3,2.1-.5,3.1-.7a8,8,0,0,1-.8-1.6,2.8,2.8,0,0,1,.8-3.2,15.72,15.72,0,0,1,2.6-1.9,1.94,1.94,0,0,1,3,1.1c.2.4.3.8.5,1.3a7.63,7.63,0,0,0,.8-1.1c.9-1.2,2.5-1.9,3.7-1.2a9.91,9.91,0,0,1,1.7,1.1,5,5,0,0,1,1.2-.2,4.91,4.91,0,0,0,1.1-.1c-.5-.6-.8-1-1.2-1.5a7.57,7.57,0,0,1-1.8-6.6,6.43,6.43,0,0,0-5.2,2.8c-.4.5-.8,1-1.3,1.7a9.44,9.44,0,0,0-.3-.9,17.4,17.4,0,0,0-1.8-3.3c-1.2-1.6-2.8-1.8-4.7-.8a15.33,15.33,0,0,0-4.8,4c-2.1,2.7-2,6,.2,8.1l1,1a5.07,5.07,0,0,1-.9.2,6.63,6.63,0,0,0-4.9,5.6,12.29,12.29,0,0,0,1,6c.9,2.4,2.5,3.1,5,2.3a21.66,21.66,0,0,0,2.6-1.2,47.63,47.63,0,0,0,1,5.2,3.05,3.05,0,0,0,3.9,1.9,27,27,0,0,0,4-1.4,7.28,7.28,0,0,0,4-3.9,16,16,0,0,0,.5-2.1A5.77,5.77,0,0,1,156.63,203.25Z"/><path class="cls-1" d="M165.33,192.75a2.44,2.44,0,0,0-1.8,2.2,5.9,5.9,0,0,0,4.2,6.5"/><path class="cls-1" d="M155.73,195.75v-.2a3.32,3.32,0,0,0-1-1.4c-1-.8-2.3-.3-3.5,1.2s-1.4,3.1-.3,4a3.1,3.1,0,0,0,4.3-.7c.1-.2.2-.3.3-.5C155.63,197.35,155.63,196.55,155.73,195.75Z"/><path class="cls-1" d="M207.23,174.45c-.14-.14-.4,1.3-.4,2.1"/><path class="cls-1" d="M248.73,190.35a61.94,61.94,0,0,0-6.7-3.6c-10.7-4.8-22.5-8.5-33.7-12-.4-.1-.8-.2-1.1-.3"/><path class="cls-1" d="M209.83,215.2c1.4-.5,3-.95,4.4-1.45,9.7-3.2,19.4-6.4,28.7-10.7a54.44,54.44,0,0,0,6.9-4.1,3.9,3.9,0,0,0,1.3-2c.7-3.4.1-5.1-2.4-6.6"/><path class="cls-1" d="M208.93,179.65a6.31,6.31,0,0,1,.4.9c0,.1.1.07.1.17a1.74,1.74,0,0,1-.51-.07C208.81,179.8,208.78,179.29,208.93,179.65Z"/><path class="cls-1" d="M229.13,195.15a.45.45,0,0,1,0,.5c-.9,2.3-1.7,4.6-2.7,7.2-1-2.6-1.9-4.9-2.7-7.2a.88.88,0,0,1,.1-.7c.8-2.2,1.7-4.4,2.6-6.9C227.43,190.65,228.23,192.85,229.13,195.15Z"/><path class="cls-1" d="M230.53,195.05c.8-2.2,1.7-4.5,2.7-7,1,2.5,1.8,4.8,2.7,7a.64.64,0,0,1,0,.6c-.9,2.3-1.7,4.6-2.7,7.2-1-2.6-1.8-4.9-2.7-7.1A1.63,1.63,0,0,1,230.53,195.05Z"/><path class="cls-1" d="M218.66,190.28c.3-.7.57-1.43.87-2.13a6.89,6.89,0,0,1,.4,1c.3.9.6,1.8,1,2.7a6.91,6.91,0,0,1,0,7.2c-.6,1.1-.9,2.3-1.5,3.7-.8-2.1-1.69-4.09-2.39-6.09"/><path class="cls-1" d="M214.44,198.1c-.3.9-.71,2-1,3"/><path class="cls-1" d="M214,209.09a26.42,26.42,0,0,1,.94,2.56l-3,1"/><path class="cls-1" d="M216.22,197.21c.9,2.3,1.81,4.64,2.61,6.74a1.1,1.1,0,0,1,0,.8l-2.4,6.3c0,.1-.1.2-.3.6-.5-1.4-1.18-2.92-1.58-4"/><path class="cls-1" d="M214.13,202.25c.6-1.4,1-3.1,1.66-4.8"/><path class="cls-1" d="M217.73,210.75c.6-1.6,1.2-3.1,1.8-4.8.5,1.3.9,2.5,1.4,3.7C219.93,210,218.93,210.35,217.73,210.75Z"/><path class="cls-1" d="M222,209.25c-.6-1.6-1.2-3.2-1.8-4.7-.1-.1,0-.3,0-.5.9-2.3,1.7-4.5,2.7-7,.9,2.5,1.8,4.7,2.6,6.9a1.7,1.7,0,0,1,0,1c-.2.7-.5,1.3-.7,1.9C224.23,208.65,224.23,208.65,222,209.25Z"/><path class="cls-1" d="M225.63,208.05c.3-.7.5-1.3.8-2.1.2.6.4,1,.6,1.6C226.63,207.65,226.23,207.85,225.63,208.05Z"/><path class="cls-1" d="M231.63,205.85c-1.1.4-2.2.8-3.5,1.3-.5-1.4-1.4-2.5-.7-4.1.9-1.9,1.5-3.9,2.4-6,1,2.5,1.9,4.7,2.7,7A1.46,1.46,0,0,1,231.63,205.85Z"/><path class="cls-1" d="M234.23,204.85c-.1-.1-.2-.1-.3-.2.6-2.6,1.9-5,2.8-7.7.8,2.1,1.5,4,2.3,6C237.33,203.55,235.73,204.25,234.23,204.85Z"/><path class="cls-1" d="M241.63,201.75c.6-1.6,1.2-3.1,1.8-4.8.5,1.2.9,2.2,1.3,3.3C243.73,200.75,242.83,201.15,241.63,201.75Z"/><path class="cls-1" d="M249.53,195.35c.1,2.2-1.7,3.4-3.8,4.3-.5-1.4-1-2.7-1.5-4-.1-.2,0-.5,0-.7.5-1.4,1.1-2.8,1.6-4.2A4.85,4.85,0,0,1,249.53,195.35Z"/><path class="cls-1" d="M244.83,190.15c-.5,1.2-.9,2.3-1.4,3.6-.7-1.8-1.3-3.4-1.9-5l.2-.2C242.73,189.15,243.83,189.65,244.83,190.15Z"/><path class="cls-1" d="M242.73,195.05a.64.64,0,0,1,0,.6c-.8,2.3-1.7,4.5-2.6,6.8h-.3c-.9-2.2-1.7-4.5-2.6-6.7a.45.45,0,0,1,0-.5c.9-2.3,1.8-4.6,2.7-7.2C241,190.55,241.83,192.75,242.73,195.05Z"/><path class="cls-1" d="M239,187.45c-.8,2.1-1.6,4.1-2.4,6.3-1-2.5-1.8-4.8-2.7-7.1-.1-.3.1-.7.2-1.3C235.93,186.15,237.43,186.85,239,187.45Z"/><path class="cls-1" d="M231.63,184.55a2.47,2.47,0,0,1,.8,2.3c-.7,2.3-1.6,4.5-2.6,7-1-2.5-1.8-4.7-2.6-7a3,3,0,0,1,.2-1.3c.2-.7-.1-1.5.3-2.3C228.83,183.75,230.63,184,231.63,184.55Z"/><path class="cls-1" d="M226.53,182.85c-.2.6.2,1.1,0,1.7h-.2c-.3-.7-1.1-1.4-1.5-2.3A17.72,17.72,0,0,0,226.53,182.85Z"/><path class="cls-1" d="M223.93,183.05c1.1,2.3,1.8,4.5.6,6.8-.6,1.2-1,2.5-1.6,4-1-2.5-1.8-4.8-2.7-7.1-.1-.2,0-.5,0-.7.6-1.6.6-3.2,1.2-4.8A2.61,2.61,0,0,1,223.93,183.05Z"/><path class="cls-1" d="M220.53,180.75c-.5,1.3-.4,2.6-.9,4.1-.7-1.8-1.9-3.5-2.7-5.3C218.23,180,219.33,180.35,220.53,180.75Z"/><path class="cls-1" d="M214.33,183.35a40.08,40.08,0,0,1,1.2-4.3c1,2.5,2.4,4.7,3.3,6.9a1.39,1.39,0,0,1,0,.9,14,14,0,0,1-.78,1.8"/><path class="cls-1" d="M211,181.15c-.7-1.4-1.3-2.6-1.9-4,1.9.6,3.6,1.1,5.3,1.7a25.44,25.44,0,0,0-1,3.72"/></g><polygon class="cls-1" points="758.76 357.04 753 349.44 751.01 356.87 741.65 353.47 745.56 365.83 734.23 369.86 741.58 374.69 736.82 380.87 747.36 380.94 747.69 394.16 756.49 387 761.18 393.97 763.96 385.53 774.78 388.77 770.6 377.73 781.07 374.67 772.93 368.63 778.06 361.13 768.63 361.62 769 349.63 758.76 357.04"/></g></g></svg>