<?xml version="1.0" encoding="utf-8"?>
<!-- Generator: Adobe Illustrator 25.4.1, SVG Export Plug-In . SVG Version: 6.00 Build 0)  -->
<svg version="1.1" xmlns="http://www.w3.org/2000/svg" xmlns:xlink="http://www.w3.org/1999/xlink" x="0px" y="0px"
	 viewBox="0 0 612 792" style="enable-background:new 0 0 612 792;" xml:space="preserve">
<style type="text/css">
	.st0{fill:#FFFFFF;}
	.st1{fill:#FFFFFF;stroke:#FF0000;stroke-width:1.7777;stroke-miterlimit:17.7777;}
	.st2{fill:none;stroke:#FF0000;stroke-width:1.7777;stroke-miterlimit:7.1111;}
	.st3{fill:none;stroke:#00EDFF;stroke-miterlimit:10;}
	.st4{fill:none;stroke:#FF17AC;stroke-miterlimit:10;}
	.st5{fill:#FFFFFF;stroke:#FF0000;stroke-miterlimit:10;}
	.st6{font-family:'ChalkboardSE-Regular';}
	.st7{font-size:12px;}
</style>
<g id="Layer_2">
</g>
<g id="Layer_1">
	
		<g id="Layer_1_00000083091136529134326230000000221025048113664692_" xmlns:cc="http://creativecommons.org/ns#" xmlns:dc="http://purl.org/dc/elements/1.1/" xmlns:inkscape="http://www.inkscape.org/namespaces/inkscape" xmlns:osb="http://www.openswatchbook.org/uri/2009/osb" xmlns:rdf="http://www.w3.org/1999/02/22-rdf-syntax-ns#" xmlns:sodipodi="http://sodipodi.sourceforge.net/DTD/sodipodi-0.dtd" xmlns:svg="http://www.w3.org/2000/svg">
		<g id="Layer_2_1_" transform="scale(1.3333333)">
			<rect id="rect4" x="0" y="0" class="st0" width="459" height="594"/>
		</g>
		<g id="svg15158" transform="scale(1.3333333)" inkscape:version="0.91 r13725" sodipodi:docname="AxiDraw_First.svg">
			<path id="path11" inkscape:connector-curvature="0" class="st1" d="M313,56.6h-12.6V44.7c0-17.2-14.1-31.2-31.3-31.2h-79.4
				c-17.2,0-31.2,14-31.2,31.2v11.9h-12.7c-17.2,0-31.2,14-31.2,31.2v130.8v12.1v275.4c0,17.2,14,31.2,31.2,31.2h12.6v11.9
				c0,17.2,14,31.2,31.2,31.2H269c17.2,0,31.2-14,31.2-31.2v-11.9h12.6c17.2,0,31.2-14,31.2-31.2V230.7v-12.1V87.9
				C344.2,70.7,330.1,56.6,313,56.6L313,56.6z"/>
			<path id="path7" inkscape:connector-curvature="0" class="st1" d="M255,43.4h-15.9c0-0.1,0-0.1,0-0.1c0-5.3-4.3-9.7-9.7-9.7
				c-5.3,0-9.7,4.4-9.7,9.7c0,0.1,0,0.1,0,0.2h-15.9c-2.8,0-5,2.3-5,5v1.9c0,2.8,2.3,5,5,5H255c2.8,0,5-2.3,5-5v-1.9
				C260,45.7,257.8,43.4,255,43.4z"/>
			<path id="path9" inkscape:connector-curvature="0" class="st1" d="M203.8,550.6h15.9c0,0.1,0,0.1,0,0.2c0,5.3,4.3,9.7,9.7,9.7
				c5.3,0,9.7-4.3,9.7-9.7c0-0.1,0-0.1,0-0.2H255c2.8,0,5-2.3,5-5v-1.9c0-2.8-2.3-5-5-5h-51.2c-2.8,0-5,2.3-5,5v1.9
				C198.8,548.3,201.1,550.6,203.8,550.6z"/>
			<g id="g19">
				<line id="line13" class="st2" x1="115.3" y1="297" x2="117.5" y2="297"/>
				<line id="line15" class="st2" x1="122.2" y1="297" x2="339.7" y2="297"/>
				<line id="line17" class="st2" x1="342.1" y1="297" x2="344.3" y2="297"/>
			</g>
		</g>
	</g>
	
		<g id="Layer_1_00000031183043189202140550000001713303942041693342_" inkscape:version="0.92.4 (5da689c313, 2019-01-14)" sodipodi:docname="Bubble Pack templatev2.svg" xmlns:cc="http://creativecommons.org/ns#" xmlns:dc="http://purl.org/dc/elements/1.1/" xmlns:inkscape="http://www.inkscape.org/namespaces/inkscape" xmlns:osb="http://www.openswatchbook.org/uri/2009/osb" xmlns:rdf="http://www.w3.org/1999/02/22-rdf-syntax-ns#" xmlns:sodipodi="http://sodipodi.sourceforge.net/DTD/sodipodi-0.dtd" xmlns:svg="http://www.w3.org/2000/svg">
	</g>
</g>
<g id="Vinyl">
	<rect x="806.7" y="230.9" class="st3" width="32.5" height="39"/>
	<rect x="878.3" y="230.9" class="st3" width="32.5" height="39"/>
	<rect x="949.9" y="230.9" class="st3" width="32.5" height="39"/>
	<rect x="1021.5" y="230.9" class="st3" width="32.5" height="39"/>
	<rect x="1093.2" y="230.9" class="st3" width="32.5" height="39"/>
	<rect x="770.9" y="273.7" class="st3" width="32.5" height="39"/>
	<rect x="842.5" y="273.7" class="st3" width="32.5" height="39"/>
	<rect x="914.1" y="273.7" class="st3" width="32.5" height="39"/>
	<rect x="985.7" y="273.7" class="st3" width="32.5" height="39"/>
	<rect x="1057.4" y="273.7" class="st3" width="32.5" height="39"/>
	<rect x="806.7" y="316.6" class="st3" width="32.5" height="39"/>
	<rect x="878.3" y="316.6" class="st3" width="32.5" height="39"/>
	<rect x="949.9" y="316.6" class="st3" width="32.5" height="39"/>
	<rect x="1021.5" y="316.6" class="st3" width="32.5" height="39"/>
	<rect x="1093.2" y="316.6" class="st3" width="32.5" height="39"/>
	<rect x="770.9" y="359.5" class="st3" width="32.5" height="39"/>
	<rect x="842.5" y="359.5" class="st3" width="32.5" height="39"/>
	<rect x="914.1" y="359.5" class="st3" width="32.5" height="39"/>
	<rect x="985.7" y="359.5" class="st3" width="32.5" height="39"/>
	<rect x="1057.4" y="359.5" class="st3" width="32.5" height="39"/>
	<rect x="806.7" y="402.3" class="st3" width="32.5" height="39"/>
	<rect x="878.3" y="402.3" class="st3" width="32.5" height="39"/>
	<rect x="949.9" y="402.3" class="st3" width="32.5" height="39"/>
	<rect x="1021.5" y="402.3" class="st3" width="32.5" height="39"/>
	<rect x="1093.2" y="402.3" class="st3" width="32.5" height="39"/>
	<rect x="770.9" y="445.2" class="st3" width="32.5" height="39"/>
	<rect x="842.5" y="445.2" class="st3" width="32.5" height="39"/>
	<rect x="914.1" y="445.2" class="st3" width="32.5" height="39"/>
	<rect x="985.7" y="445.2" class="st3" width="32.5" height="39"/>
	<rect x="1057.4" y="445.2" class="st3" width="32.5" height="39"/>
	<rect x="806.7" y="488.1" class="st3" width="32.5" height="39"/>
	<rect x="878.3" y="488.1" class="st3" width="32.5" height="39"/>
	<rect x="949.9" y="488.1" class="st3" width="32.5" height="39"/>
	<rect x="1021.5" y="488.1" class="st3" width="32.5" height="39"/>
	<rect x="1093.2" y="488.1" class="st3" width="32.5" height="39"/>
	<rect x="770.9" y="530.9" class="st3" width="32.5" height="39"/>
	<rect x="842.5" y="530.9" class="st3" width="32.5" height="39"/>
	<rect x="914.1" y="530.9" class="st3" width="32.5" height="39"/>
	<rect x="985.7" y="530.9" class="st3" width="32.5" height="39"/>
	<rect x="1057.4" y="530.9" class="st3" width="32.5" height="39"/>
	<rect x="806.7" y="573.8" class="st3" width="32.5" height="39"/>
	<rect x="878.3" y="573.8" class="st3" width="32.5" height="39"/>
	<rect x="949.9" y="573.8" class="st3" width="32.5" height="39"/>
	<rect x="1021.5" y="573.8" class="st3" width="32.5" height="39"/>
	<rect x="1093.2" y="573.8" class="st3" width="32.5" height="39"/>
	<text transform="matrix(1 0 0 1 787.2083 651.501)" class="st6 st7" style="stroke:#00EDFF;">Checkerboard will be vinyl backing for clear bubble</text>
	<rect x="770.9" y="230.9" class="st3" width="354.8" height="381.9"/>
	<g id="N4ptMc.tif_00000182499599780387527450000010773368438073226916_">
		<g>
			<path class="st3" d="M180.5,685.5c-1.2,0.7-2.4,1.6-3.7,2.1c-2.4,0.9-4.7,0.2-6.8-1.1c-1.6-0.9-3.1-2.1-4.5-3.3
				c-1.8-1.5-2.3-4.1-1.1-6.1c1.2-2,2.8-3.8,4.3-5.7c-0.9-0.5-2.1-1.1-3.1-1.9c-2.7-2.1-3.2-4.6-1.5-7.6c1.3-2.4,2.8-4.7,5.1-6.3
				c3-2,6.6-1.7,9.2,0.7c0.2,0.2,0.5,0.4,0.9,0.8c0.1-0.8,0.2-1.4,0.3-2c0.4-4.3,3.6-7.4,7.8-7.3c2.7,0,5.2,0.7,7.6,1.9
				c2.4,1.2,3.5,3.3,2.8,6c-0.4,1.7-1.3,3.3-1.9,4.9c-0.1,0.3-0.4,0.6-0.6,1.1c1,0,1.8,0,2.6,0c4.6,0.1,7.9,3.3,7.9,8.1
				c0,2.6-0.6,5.2-1.3,7.6c-0.7,2.4-2.9,3.6-5.4,3.2c-0.5-0.1-1.1-0.2-1.7-0.3c0.2,2.4-0.2,4.6-1.8,6.4c-2.3,2.6-5.1,4.4-8.5,5.1
				c-2.1,0.4-3.7-0.7-4.8-2.6C181.6,688,181.1,686.6,180.5,685.5z M182.1,664.1c-1-1-2-2-3.1-2.9c-1.2-0.9-2.5-0.9-3.5-0.1
				c-3,2.4-3.5,6.5-1,9.4c-0.4,0.2-0.8,0.5-1.2,0.7c-1.3,0.9-1.9,2.1-1.2,3.5c0.7,1.5,1.6,3,2.7,4.1c1.4,1.5,3.7,1.3,5.2,0
				c0.3-0.3,0.7-0.6,1.1-1c0,1-0.1,1.7,0,2.3c0.2,1.3,0.6,2.4,2,2.7c2.2,0.4,4.3,0.3,6.2-1.1c1.7-1.2,1.8-3,1.6-5
				c0.8,0.2,1.5,0.4,2.2,0.4c2,0.2,3.1-0.5,3.5-2.6c0.2-1.5,0.2-3,0-4.5c-0.3-2-2.1-3.2-4-3.2c-0.5,0-1,0-1.6,0
				c0.4-0.6,0.7-1.1,0.9-1.7c0.9-1.9,0.6-3.3-1.2-4.3c-1.2-0.6-2.5-1.1-3.8-1.3c-1.6-0.3-2.9,0.5-3.8,2
				C182.6,662.5,182.4,663.4,182.1,664.1z"/>
			<path class="st3" d="M180.2,669.8c0.1-2.1,1.6-3.3,4.1-3.2c2.4,0.1,3.8,1.2,3.8,3c0,2.5-1.9,4.5-4.1,4.5
				C181.9,674,180.1,672.1,180.2,669.8z"/>
		</g>
	</g>
	<g id="N4ptMc.tif_00000083805050000906751990000008491844615279630758_">
		<g>
			<path class="st3" d="M443.1,652.7c-0.5,0.4-0.9,1-1.4,1.4c-1,0.7-2.1,0.6-3.2,0.3c-0.8-0.2-1.6-0.6-2.4-1c-1-0.5-1.5-1.6-1.2-2.6
				c0.3-1,0.8-2,1.3-3c-0.5-0.1-1.1-0.3-1.6-0.5c-1.4-0.6-1.9-1.7-1.5-3.2c0.3-1.2,0.7-2.4,1.6-3.4c1.1-1.2,2.7-1.5,4.2-0.7
				c0.1,0.1,0.3,0.1,0.5,0.3c0-0.4-0.1-0.6-0.1-0.9c-0.3-2,0.8-3.7,2.7-4.1c1.2-0.3,2.4-0.2,3.6,0c1.2,0.3,1.9,1.1,1.9,2.4
				c0,0.8-0.2,1.6-0.3,2.4c0,0.2-0.1,0.3-0.2,0.6c0.4-0.1,0.8-0.2,1.2-0.3c2.1-0.5,3.9,0.6,4.4,2.7c0.3,1.1,0.3,2.4,0.3,3.5
				c0,1.2-0.9,1.9-2,2c-0.2,0-0.5,0-0.8,0.1c0.4,1.1,0.4,2.1-0.1,3.1c-0.7,1.4-1.8,2.5-3.2,3.2c-0.9,0.4-1.7,0.1-2.4-0.6
				C443.9,653.7,443.5,653.1,443.1,652.7z M441.5,642.9c-0.6-0.3-1.1-0.7-1.7-1c-0.6-0.3-1.2-0.1-1.6,0.3c-1.1,1.4-0.8,3.3,0.6,4.3
				c-0.2,0.2-0.3,0.3-0.4,0.4c-0.5,0.5-0.6,1.2-0.2,1.7c0.5,0.6,1,1.1,1.7,1.5c0.8,0.5,1.8,0.2,2.3-0.6c0.1-0.2,0.2-0.3,0.4-0.6
				c0.1,0.4,0.2,0.7,0.3,1c0.2,0.6,0.5,1,1.2,1c1,0,2-0.3,2.7-1.2c0.6-0.7,0.5-1.6,0.2-2.4c0.4,0,0.7,0,1,0c0.9-0.1,1.3-0.6,1.3-1.5
				c-0.1-0.7-0.2-1.4-0.5-2c-0.4-0.8-1.3-1.2-2.1-1c-0.2,0.1-0.5,0.1-0.7,0.2c0.1-0.3,0.2-0.6,0.2-0.8c0.2-0.9-0.1-1.5-1-1.8
				c-0.6-0.2-1.2-0.2-1.9-0.2c-0.8,0-1.3,0.5-1.5,1.3C441.5,642.2,441.5,642.6,441.5,642.9z"/>
			<path class="st3" d="M441.2,645.7c-0.2-0.9,0.3-1.6,1.5-1.9c1.1-0.2,1.8,0.1,2,0.9c0.3,1.1-0.3,2.2-1.3,2.5
				C442.4,647.4,441.5,646.7,441.2,645.7z"/>
		</g>
	</g>
	<g id="N4ptMc.tif_00000055700377841745793790000006237396405688081329_">
		<g>
			<path class="st3" d="M375.1,752.3c-0.9,1.1-1.7,2.3-2.7,3.3c-1.9,1.7-4.4,1.8-6.8,1.3c-1.8-0.3-3.6-0.9-5.3-1.6
				c-2.2-0.8-3.6-3.1-3.1-5.4c0.4-2.3,1.4-4.5,2.1-6.8c-1-0.2-2.3-0.3-3.6-0.7c-3.2-1-4.6-3.2-4.1-6.6c0.4-2.7,1-5.4,2.6-7.7
				c2.1-2.9,5.6-3.9,8.9-2.6c0.3,0.1,0.6,0.2,1.1,0.5c-0.2-0.8-0.3-1.4-0.5-2c-1.1-4.2,0.9-8.2,4.8-9.6c2.5-0.9,5.1-1.1,7.8-0.8
				c2.7,0.3,4.4,1.9,4.7,4.6c0.2,1.7-0.1,3.5-0.1,5.3c0,0.4-0.1,0.7-0.2,1.2c0.9-0.3,1.7-0.6,2.5-0.9c4.3-1.5,8.5,0.3,10.2,4.8
				c0.9,2.4,1.2,5,1.5,7.6c0.2,2.5-1.5,4.4-3.9,4.9c-0.5,0.1-1,0.2-1.7,0.4c1.1,2.2,1.4,4.4,0.5,6.7c-1.3,3.3-3.3,5.9-6.2,7.7
				c-1.8,1.1-3.7,0.6-5.4-0.7C377,754.3,376,753.2,375.1,752.3z M369.2,731.7c-1.3-0.6-2.6-1.2-3.9-1.7c-1.4-0.5-2.6,0-3.3,1.1
				c-2,3.3-1.1,7.3,2.3,9.2c-0.3,0.4-0.6,0.7-0.9,1.1c-0.9,1.3-1.1,2.6,0.1,3.8c1.2,1.2,2.5,2.2,3.9,2.9c1.8,0.9,3.9,0,4.9-1.8
				c0.2-0.4,0.4-0.8,0.7-1.3c0.3,0.9,0.5,1.6,0.8,2.2c0.6,1.1,1.4,2,2.8,1.8c2.2-0.4,4.2-1.2,5.5-3.2c1.1-1.7,0.7-3.5-0.2-5.2
				c0.8-0.1,1.5-0.2,2.2-0.3c2-0.5,2.8-1.5,2.4-3.6c-0.3-1.4-0.8-2.9-1.6-4.2c-1-1.7-3.1-2.3-4.9-1.6c-0.5,0.2-1,0.4-1.5,0.6
				c0.1-0.7,0.2-1.3,0.3-1.9c0.2-2-0.6-3.3-2.6-3.6c-1.3-0.2-2.7-0.1-4.1,0.1c-1.6,0.3-2.6,1.5-2.9,3.1
				C369.2,730,369.3,730.9,369.2,731.7z"/>
			<path class="st3" d="M369.4,737.7c-0.7-2,0.3-3.6,2.8-4.5c2.2-0.8,4-0.2,4.6,1.5c0.8,2.3-0.2,4.9-2.3,5.6
				C372.4,741,370.1,739.9,369.4,737.7z"/>
		</g>
	</g>
	<g id="N4ptMc.tif_00000114777711236241834090000010331320388581359289_">
		<g>
			<path class="st3" d="M373.7,113.3c-1.2,0.7-2.4,1.6-3.7,2.1c-2.4,0.9-4.7,0.2-6.8-1.1c-1.6-0.9-3.1-2.1-4.5-3.3
				c-1.8-1.5-2.3-4.1-1.1-6.1c1.2-2,2.8-3.8,4.3-5.7c-0.9-0.5-2.1-1.1-3.1-1.9c-2.7-2.1-3.2-4.6-1.5-7.6c1.3-2.4,2.8-4.7,5.1-6.3
				c3-2,6.6-1.7,9.2,0.7c0.2,0.2,0.5,0.4,0.9,0.8c0.1-0.8,0.2-1.4,0.3-2c0.4-4.3,3.6-7.4,7.8-7.3c2.7,0,5.2,0.7,7.6,1.9
				c2.4,1.2,3.5,3.3,2.8,6c-0.4,1.7-1.3,3.3-1.9,4.9c-0.1,0.3-0.4,0.6-0.6,1.1c1,0,1.8,0,2.6,0c4.6,0.1,7.9,3.3,7.9,8.1
				c0,2.6-0.6,5.2-1.3,7.6c-0.7,2.4-2.9,3.6-5.4,3.2c-0.5-0.1-1.1-0.2-1.7-0.3c0.2,2.4-0.2,4.6-1.8,6.4c-2.3,2.6-5.1,4.4-8.5,5.1
				c-2.1,0.4-3.7-0.7-4.8-2.6C374.7,115.9,374.2,114.5,373.7,113.3z M375.2,92c-1-1-2-2-3.1-2.9c-1.2-0.9-2.5-0.9-3.5-0.1
				c-3,2.4-3.5,6.5-1,9.4c-0.4,0.2-0.8,0.5-1.2,0.7c-1.3,0.9-1.9,2.1-1.2,3.5c0.7,1.5,1.6,3,2.7,4.1c1.4,1.5,3.7,1.3,5.2,0
				c0.3-0.3,0.7-0.6,1.1-1c0,1-0.1,1.7,0,2.3c0.2,1.3,0.6,2.4,2,2.7c2.2,0.4,4.3,0.3,6.2-1.1c1.7-1.2,1.8-3,1.6-5
				c0.8,0.2,1.5,0.4,2.2,0.4c2,0.2,3.1-0.5,3.5-2.6c0.2-1.5,0.2-3,0-4.5c-0.3-2-2.1-3.2-4-3.2c-0.5,0-1,0-1.6,0
				c0.4-0.6,0.7-1.1,0.9-1.7c0.9-1.9,0.6-3.3-1.2-4.3c-1.2-0.6-2.5-1.1-3.8-1.3c-1.6-0.3-2.9,0.5-3.8,2
				C375.7,90.4,375.5,91.2,375.2,92z"/>
			<path class="st3" d="M373.3,97.7c0.1-2.1,1.6-3.3,4.1-3.2c2.4,0.1,3.8,1.2,3.8,3c0,2.5-1.9,4.5-4.1,4.5
				C375,101.8,373.2,99.9,373.3,97.7z"/>
		</g>
	</g>
	<g id="N4ptMc.tif_00000046306209735686753200000014256290686295748741_">
		<g>
			<path class="st3" d="M242.4,66.2c-0.8,1-1.5,2.2-2.4,3.1c-1.7,1.6-4,1.7-6.2,1.4c-1.7-0.3-3.3-0.7-4.9-1.3c-2-0.7-3.4-2.7-3-4.9
				c0.3-2.1,1.1-4.2,1.7-6.3c-0.9-0.1-2.1-0.2-3.3-0.5c-3-0.9-4.3-2.8-3.9-6c0.3-2.5,0.8-5,2.2-7.1c1.8-2.7,5-3.7,8.1-2.6
				c0.3,0.1,0.6,0.2,1.1,0.4c-0.2-0.7-0.3-1.3-0.5-1.8c-1.1-3.8,0.6-7.5,4.1-8.9c2.3-0.9,4.7-1.1,7.1-0.9c2.5,0.2,4.1,1.6,4.4,4.1
				c0.2,1.6,0,3.2,0,4.8c0,0.3-0.1,0.7-0.2,1.2c0.8-0.3,1.5-0.6,2.2-0.9c3.9-1.5,7.8,0.1,9.5,4.2c0.9,2.2,1.3,4.6,1.5,6.9
				c0.3,2.3-1.3,4-3.5,4.6c-0.5,0.1-1,0.2-1.6,0.4c1,2,1.4,4,0.6,6.1c-1.1,3-2.9,5.5-5.5,7.2c-1.6,1.1-3.4,0.7-5-0.5
				C244.1,68.1,243.2,67.1,242.4,66.2z M236.5,47.5c-1.2-0.5-2.4-1-3.6-1.4c-1.3-0.4-2.4,0.1-3,1.1c-1.8,3.1-0.8,6.7,2.3,8.4
				c-0.3,0.3-0.5,0.7-0.8,1c-0.8,1.2-0.9,2.4,0.2,3.4c1.1,1,2.4,2,3.7,2.6c1.7,0.8,3.6-0.1,4.5-1.8c0.2-0.4,0.4-0.7,0.6-1.2
				c0.3,0.8,0.5,1.4,0.8,2c0.6,1,1.4,1.8,2.6,1.6c2-0.4,3.8-1.2,4.9-3c1-1.6,0.5-3.2-0.3-4.8c0.7-0.1,1.4-0.2,2-0.4
				c1.8-0.5,2.5-1.5,2.1-3.4c-0.3-1.3-0.8-2.7-1.5-3.8c-1-1.6-2.9-2-4.5-1.3c-0.4,0.2-0.9,0.4-1.4,0.6c0.1-0.7,0.2-1.2,0.2-1.7
				c0.1-1.9-0.6-3-2.5-3.2c-1.2-0.1-2.5-0.1-3.7,0.2c-1.5,0.3-2.3,1.4-2.5,2.9C236.4,46,236.5,46.8,236.5,47.5z"/>
			<path class="st3" d="M236.7,53c-0.7-1.8,0.2-3.3,2.4-4.2c2-0.8,3.7-0.3,4.3,1.2c0.8,2.1-0.1,4.5-2,5.2
				C239.6,56,237.5,55,236.7,53z"/>
		</g>
	</g>
</g>
<g id="Pen">
	<g>
		<path class="st4" d="M209.6,130.5c-2.7-0.3-5.4-0.2-7.3,2.4c-0.7,0.9-0.8,2.2,0,2.9c3.3,2.9,0,4.9-0.7,7.2
			c-0.2,0.5-0.6,0.9-1.3,0.5c-2-0.9-3.3-5.9-2-8c1.5-2.5,0.9-4.5-1.8-5.1c-1.7-0.3-3.4-0.3-5.1,0c-3.6,0.6-4.3,2.8-2.2,6.1
			c1.6,2.6,1.8,5-0.2,7.4c-0.6,0.7-1.3,1.3-2.1,0.3c-1.4-1.7-2-6.5-0.9-8.5c1.2-2,0.6-3.6-1.1-4.4c-3.5-1.6-7.1-1.8-10.6,0.1
			c-2.3,1.2-2.5,3.1-0.6,5c1,1,1.6,2.2,1.9,3.6c1.5,5.6,1.7,11.4,1.7,17.3c0,1.6-0.5,3.1-1.6,4.5c-2.2,2.9-1.3,6,2,7
			c3.8,1.2,7.6,0.9,11.4,0.2c2.7-0.5,4.6-4.1,3-6.3c-3-4.3-0.4-8,0.3-12c0.1-0.7,0.6-1.7,1.4-1.7c0.9,0.1,1.2,1,1.3,1.8
			c0.5,2.7,1,5.3,1.5,8c0.2,1,0.1,1.8-0.8,2.5c-1.8,1.3-1.6,3.2-1.1,5.1c0.6,2.1,2.1,3,3.9,3c2.7,0.1,5.3,0.3,8-0.3
			c4.1-0.9,5.4-4.3,2.9-8c-0.9-1.3-1.5-2.7-1.3-4.2c0.6-5.6,1.2-11.3,2.1-16.9c0.3-1.6,0.5-4,2.9-3.9c0.3-0.6,0.5-1.2,0.8-1.8
			C213.8,131.4,211.8,130.8,209.6,130.5z"/>
		<path class="st4" d="M213.3,136.3c0,0.8-0.2,1.8,0.5,2.3c2.1,1.4,2.1,3.7,2.1,5.9c0,6.6-0.6,13-3.2,19c-0.6,1.4-1,2.9,0.1,4.3
			c1.5,1.9,5.3,2.3,8.1,0.8c3.1-1.7,4.6-4.4,3.7-7.3c-0.9-2.8-1.1-5.6-1-8.4c0.1-2-0.8-5.1,1.7-5.2c2.2-0.1,2.3,3.1,2.2,5.2
			c-0.1,3.8-0.5,7.6-0.7,11.3c-0.1,1.9,0.1,3.7,1.8,4.5c3,1.4,6.1,1.2,9-0.4c1.5-0.8,1.7-2.3,0.8-4c-1.2-2.3-1.6-4.8-2-7.4
			c-0.6-4-1.2-7.9-1.9-11.9c-0.7-4.2-3.1-5.6-6.8-4.2c-0.7,0.3-1.3,0.7-2,1.1c-0.8,0.4-1.6,1.6-2.6,1c-1.2-0.8-0.4-2.2-0.3-3.3
			c0.1-1.9,0.3-3.8,0.6-5.6c0.5-2.8-0.7-3.3-2.9-2.8c-2.4,0.5-4.6,1.8-6.7,3.3"/>
		<path class="st4" d="M296.7,147.2c0.2-6-4.7-9-9.6-6.1c-1.4,0.8-3.1,4.5-4.1-0.4c0-0.2-0.8-0.4-1.1-0.3c-2.6,0.4-4.9,1.5-6.7,3.7
			c-0.9,1.1-1,2.5,0.1,3.5c2.4,2,2.3,4.6,1.7,7.4c-0.7,3.1-1.6,6.1-2.4,9.2c-0.6,2.4-0.1,4.4,2.2,5.1c2.8,0.8,5.6,0.7,7.9-1.5
			c2.1-2,2.2-4.7,1.6-7.5c-0.5-2.5-1.2-5-1.1-7.7c0-0.4,0-0.7,0-1.1c0.1-1.8-0.3-4.4,2-4.5c2.5-0.1,2.5,2.6,2.5,4.5
			c0,4-0.1,8.1-1.4,11.9c-1,3,0,4.5,2.2,5.7c2,1,4.2,0.7,6.3,0.3c2.4-0.5,3.6-1.8,2.8-5C298.2,158.7,296.5,153.2,296.7,147.2z"/>
		<path class="st4" d="M338.9,141.2c-1.5,1.3-1.2,2.6-0.3,4.3c1.5,2.8-0.3,5.2-1.2,7.6c-0.2,0.5-0.6,1.1-1.2,0.6
			c-1.7-1.6-2.9-3.5-2.9-6.1c0-0.6,0-1.2,0-1.8c0.2-6-0.8-6.8-6.1-4.1c-0.6,0.3-1.2,0.6-1.7,0.9c-2.9,1.9-3,3.4-0.6,6.1
			c0.4,0.5,0.8,1.1,1,1.8c1.7,4.9,3.4,9.7,4.5,14.8c0.3,1.3,0.5,2.6-0.7,3.5c-2.6-2.7-4.3-2.7-5.6-0.1c-1.3,2.8-0.9,5.6,1.1,7.8
			c1.9,2.1,4.2,2.2,6.5,0.7c2.4-1.6,3.7-4.2,4.8-6.9c2.4-5.6,3.7-11.6,5.1-17.5c0.6-2.5,1.3-5,3.1-6.8c1.1-1.2,2.1-2.6,0.8-4.3
			C344.5,140.1,340.4,139.9,338.9,141.2z"/>
		<path class="st4" d="M316.8,157.6c-2.8,1.3-6-1.2-6-4.6c0-1.9,0.8-2.3,2.3-1.5c1.6,0.9,3.3,1.1,5,0.9c4-0.4,5.2-2.7,3.6-6.8
			c-2.3-6.1-10.6-7.1-15.2-1.8c-2.8,3.3-4.1,7.4-4.1,12.7c0,2.3,0.6,5.2,2,7.7c2,3.6,5,5.4,8.8,5.3c3.7-0.1,6.6-2,8.3-5.6
			c1-2,1.6-4.3,0.1-6.3C320.2,155.6,318.5,156.8,316.8,157.6z M314.4,145.1c1.2-0.1,2.6,0.2,2.6,1.8c-0.1,1.7-1.6,0.8-2.5,1.1
			c-0.9-0.3-2.5,0.7-2.6-1C311.7,145.5,313.2,145.2,314.4,145.1z"/>
		<path class="st4" d="M272.7,161.3c-3.7-1.8-3.8-5.3-4.5-8.7c-1-5-0.7-5.5,3.7-6.6c1.1-0.3,1.7-0.9,1.7-2.2c0-1.2-0.4-2.2-1.7-2.1
			c-3.1,0.2-3.8-1.8-3.7-4.7c0.1-2-0.5-3.5-2.5-3.8c-1.9-0.3-3.1,0.7-3.6,2.6c-0.7,2.6-1.6,4.9-4.7,4.5c-1.3-0.1-1.7,1.1-1.8,2.5
			c0,1.2,0.3,2.3,1.5,2.3c3.9,0.1,3.2,3,2.8,5.5c-0.5,3.5-1.8,6.8-1.9,10.4c-0.1,5.6,2.3,8.4,8,8.4c2.1-0.1,4.6-0.9,6.4-3.3
			C273.6,164.8,274.7,162.3,272.7,161.3z"/>
		<path class="st4" d="M369.6,149.9c-1.3-0.8-3.6-1.8-2.5-3.7c1.6-2.5,2.5,0.6,3.6,1.5c0.2,0.1,0.3,0.3,0.5,0.4
			c1.2,0.9,2.5,1.1,3.5,0c1.1-1.1,0.4-2.4-0.3-3.5c-2.2-3.4-5.3-4.7-8.9-4.2c-5.2,0.8-7.3,6.3-4.4,11.1c0.7,1.2,1.6,2.3,2.1,3.6
			c0.8,2.1,0.1,3.5-2,2.7c-2.5-0.9-2.8,0.4-2.7,2.5c0.1,5.7,3.4,9.1,8.9,9.1c5.4,0,9.4-4.4,9-10C375.9,154.8,373,152.2,369.6,149.9z
			"/>
		<path class="st4" d="M252.3,144c0.6-2-0.6-3.7-2.9-3.5c-2.7,0.2-5.2,1.3-7.3,3.2c-1.2,1.1-2.1,2.7-0.5,4.2
			c2.3,2.1,1.9,4.8,1.5,7.5c-0.3,2.6-1.4,4.9-2.3,7.3c-1.2,3.3-0.4,5,2.7,6.2c1.4,0.5,2.9,0.9,4.5,0.7c1.5,0.1,3.2-0.2,4.6-0.9
			c1.6-0.9,3-2.2,2-4.5C251.9,157.7,250.1,151.2,252.3,144z"/>
		<path class="st4" d="M354.2,130.7c-2.2-0.9-4,0.2-5.2,2.3c-1.4,2.6-2.7,5.2-0.1,8c1,1,1.4,2.3,0.8,3.9c-0.6,1.4-0.5,3,0.7,3.8
			c1.3,0.8,2.5-0.2,3.4-1.2c2.5-2.7,3.7-6,3.9-9.8C357.5,134.7,357.1,131.9,354.2,130.7z"/>
	</g>
	<path class="st4" d="M377.2,215.2c-1.6-5.6-3.1-11.3-2.9-17.4c0.1-2.8-1.5-4.2-4.1-4.4c-3.1-0.2-5.9,0.6-8,3.3
		c-3.9-5.1-5.3-5.2-10.7-1.1c-1.4,0.6-1.4,0.6-1.2-2.3c-3.1-1.1-8.3,0.9-9.8,3.6c-0.6,1.1-0.9,2.4,0.2,3.2c2,1.4,1.9,3.6,1.8,5.7
		c-0.2,3.7-0.4,7.3-1.5,10.9c-0.6,1.9-0.2,3.6,1.4,4.6c3.8,2.5,8.9-0.1,9.6-4.9c0.4-2.8,0.6-5.7-0.2-8.5c-0.4-1.5-0.4-3-0.2-4.6
		c0.3-1.4,0.7-2.9,2.3-2.9c1.8,0,1.7,1.8,1.9,3.1c0.5,4.1-0.8,8-1.5,11.9c-0.8,3.9,0,5.6,2.8,6.3c3.4,0.9,5.8-0.4,6.7-3.9
		c0.6-2.1,0.5-4.2,0.1-6.3c-0.5-2.8-0.4-5.7-0.4-8.5c0-1.5,0-3.6,1.7-3.6c1.5,0,1.4,2,1.4,3.5c0,4.6,0,9.3,0,13.9
		c0,2,0.4,3.8,2.3,4.6c2.4,1.1,4.8,1,6.9-0.8C377.7,219.3,377.9,217.4,377.2,215.2z"/>
	<path class="st4" d="M267.7,194.3c0.8,1.4,1.7,2.6,3.3,1.8c3.2-1.5,2.7-4.6,2.4-7.6c-0.3-2.3-0.7-4.4-3.6-3.1
		c-0.5,0.2-1.5-0.6-2.2-1.1c-3-2.2-6-2-9.1-0.4c-3.7,1.8-6,5.2-7.7,9.1c-4.3,9.3-2.6,20,4,25.8c4.2,3.7,8.8,4.3,13.7,1.8
		c4-2,5.3-5.9,5-10.5c-0.1-0.8-0.1-1.7-0.2-2.5c-0.6-5.4-1.6-7.3-5.8-3.3c-0.6,0.6-1.4,1-2.2,1.4c-2.4,1.3-4.3,0.3-5.3-2.2
		c-1.3-3.2-1.3-6.5,0.6-9.5C262.8,190.6,265.6,190.7,267.7,194.3z"/>
	<path class="st4" d="M185.9,195.8c-0.3-2.8,0.1-5.6,2.1-7.9c1.2-1.4,0.4-2.9-0.9-3.9c-2.2-1.7-9.3-1.5-11.4,0.4
		c-1.1,1-2,2.6-0.9,3.6c3.5,3.2,2.6,7.4,2.1,11.2c-0.8,5.6-0.4,11.6-4,16.5c-1.3,1.7,0.2,4.8,2.3,5.7c2,0.9,4.2,0.7,6.3,0.9
		c1.9-0.2,3.8-0.2,5.7-0.5c2.8-0.6,4.4-4.2,2.8-6.8C186.3,209.1,186.6,202.3,185.9,195.8z"/>
	<path class="st4" d="M336.1,200.5c0-5.7-1.9-7.7-7.5-7.6c-2.2,0.1-4.9,0.6-7.2,2.6c-1.4,1.2-2,2.8-1.7,4.7c0.1,0.9,0.8,1.5,1.5,1.6
		c1.7,0.3,2.8-0.8,3.6-2.3c0.2-0.4,0.5-0.8,0.7-1.1c0.6-0.7,1.2-1.4,2.2-1.1c0.9,0.4,1.1,1.3,1.3,2.3c0.1,1.1,0.1,2.2-1,2.7
		c-0.6,0.3-1.2,0.4-1.8,0.6c-4.1,1.5-7.2,4.1-8.2,9c-1.1,5.2,2.3,10.2,6.7,9.4c2.1-0.4,3.8-0.2,5.8,0.5c2.8,1.1,5.5,0,7.6-2.2
		c1.9-2,1-4.3,0.2-6.5C336.7,208.9,336.1,204.8,336.1,200.5z M327.1,214.3c-1.2,0.2-1.4-1.1-1.5-2.2c0-1.5,0.4-3,1.9-3.2
		c1.3-0.1,0.5,1.5,0.9,2C328.2,212.3,328.6,214.1,327.1,214.3z"/>
	<path class="st4" d="M227.6,210.1c-2.8,1.3-5.9-1.1-5.9-4.5c0-1.8,0.7-2.4,2.2-1.5c1.6,0.9,3.2,1.1,5,0.9c3.9-0.4,5.2-2.7,3.6-6.8
		c-2.3-6.1-10.5-7.2-15-1.9c-2.8,3.3-4.1,7.4-4.1,12.8c-0.1,2.2,0.6,5.1,2,7.6c2.1,3.8,5.1,5.6,9.1,5.3c3.6-0.3,6.5-2.1,8.1-5.9
		c0.8-1.9,1.4-4.1,0-6C230.9,208,229.3,209.3,227.6,210.1z M225.9,197.6c1.2-0.1,2.6,0.2,2.6,1.8c-0.1,1.7-1.6,0.8-2.5,1.1
		c-0.9-0.3-2.5,0.7-2.6-1C223.2,197.9,224.8,197.7,225.9,197.6z"/>
	<path class="st4" d="M311,210.1c-2.8,1.3-5.9-1.2-5.9-4.5c0-1.8,0.7-2.4,2.2-1.5c1.8,1,3.7,1.1,5.6,0.8c3.3-0.6,4.3-2.4,3.2-6
		c-1.1-3.7-3.9-5.8-7.8-5.9c-1.6-0.1-3.1,0.3-4.6,1.1c-7.7,4.2-9.4,19.3-2.9,25.4c4.8,4.6,12.6,2.9,15.1-3.3c0.8-2,1.4-4.1,0-6
		C314.3,208,312.7,209.3,311,210.1z M309.5,196.9c1.2-0.1,2.6,0.2,2.6,1.8c-0.1,1.7-1.6,0.8-2.5,1.1c-0.9-0.3-2.5,0.7-2.6-1
		C306.8,197.2,308.4,197,309.5,196.9z"/>
	<path class="st4" d="M206.1,210c-2.2,1.4-3.8,0.4-5.2-1.7c-1.6-2.6-1.2-5,0.5-7.2c1.7-2.2,3.3-1.1,4.9,0.5c0.8,0.8,1.7,1.6,2.8,0.8
		c1.2-0.8,1.6-2.2,1.4-3.7c-0.2-2.1-1.2-3.8-2.9-4.8c-2.3-1.3-4.6-1.5-7.1-0.9c-5.3,1.5-8.9,7.5-8.9,15.4c-0.2,1.7,0.2,3.5,0.7,5.3
		c1.4,4.8,5.2,8.1,9.4,8.1c4.2,0.1,7.9-2.6,9.2-6.6c0.6-1.8,1-3.7-0.3-5.3C209.3,208.3,207.7,209,206.1,210z"/>
	<path class="st4" d="M293.3,193.6c-1.7-1.5-3.4-0.8-4.9,0.7c-1.2,1.2-2.6,3.5-3.1-0.5c-0.1-0.9-0.8-1-1.5-0.9
		c-2.6,0.2-5,1.1-6.9,3.1c-1.3,1.3-1.6,2.9-0.1,4.2c1.6,1.4,1.6,3.2,1.6,5.1c-0.1,3.7-1.4,6.9-2.5,10.2c-1.1,3.4-0.4,4.9,2.7,6.1
		c2.1,0.7,4.2,0.6,6.3,0.4c5.4-0.5,6.4-2.8,3.5-7.9c-0.5-0.9-1-1.8-1.4-2.8c-1.3-3.5-1.7-7,0.5-11.3c1.1,2.5,1.6,4.5,3.8,4.3
		c2.2-0.2,3.6-1.7,4-3.9C295.8,197.7,295.2,195.3,293.3,193.6z"/>
	<g>
		<g>
			<g>
				<path class="st4" d="M419.7,176.3c-0.3-0.4-0.6-0.8-1-1.3c-0.4,0.5-0.8,0.9-1.2,1.3c1.7,0.4,2.6,1.5,2.6,3
					c0,2.7-2.1,4.9-4.5,4.9c-2.4-0.1-4.3-2.2-4.2-4.6c0-0.5,0.1-1,0.3-1.4c-2.7,0-5.2-0.7-7.5-2.2c-0.3-0.2-0.5-0.4-0.7-0.6
					c-0.1,1.7,0.5,3.4,1.7,4.9c-0.4,0.3-0.9,0.5-1.3,0.8c-1.4,0.9-2.1,2.3-1.4,3.9c0.8,1.6,1.7,3.2,2.9,4.5c1.5,1.6,4,1.5,5.7,0
					c0.4-0.3,0.7-0.6,1.2-1.1c0,1.1-0.1,1.8,0,2.6c0.2,1.4,0.7,2.6,2.2,2.9c2.4,0.5,4.7,0.4,6.8-1.2c1.8-1.3,2-3.3,1.8-5.4
					c0.8,0.2,1.6,0.4,2.3,0.5c2.2,0.2,3.4-0.5,3.8-2.8c0.3-1.6,0.2-3.3,0-4.9c-0.3-1.6-1.4-2.7-2.8-3.2c-0.4,0.2-0.8,0.5-1.2,0.7
					C423.5,178.8,421.2,178.1,419.7,176.3z"/>
				<path class="st4" d="M410.3,170.1c-0.3-0.2-0.6-0.4-0.9-0.5c0.3,0.2,0.7,0.5,1.1,0.6C410.4,170.2,410.3,170.2,410.3,170.1z"/>
				<path class="st4" d="M421,139.9c-0.3-0.2-0.7-0.5-1.1-0.8c0.5-0.2,0.9-0.3,1.3-0.5c1.4-0.6,1.8-1.6,1.1-3
					c-0.5-0.9-1.2-1.8-1.9-2.6c-0.9-1-2.1-1.2-3.2-0.8c-0.6,0.2-1.1,0.6-1.6,0.8c-0.2-1-0.4-2.1-0.7-3.1c-0.4-1.1-1.2-1.7-2.2-1.8
					c-3-0.2-5,1.9-4.7,4.7c-0.4-0.1-0.7-0.1-1.1-0.2c-1.2-0.2-2.1,0.2-2.3,1.4c-0.2,1.2-0.2,2.4,0,3.6c0.3,1.5,1.8,2.6,3.4,2.6
					c0.3,0,0.7,0,1.1,0c-0.1,0.1-0.2,0.3-0.3,0.4c1.4-0.4,2.8-0.7,4.3-0.8c-0.2-0.1-0.4-0.2-0.5-0.3c-1.4-1.1-1.7-3-0.7-4.3
					c0.9-1.1,2.4-1,4,0.3c1.5,1.2,2,2.6,1.2,3.5c-0.4,0.5-0.9,0.8-1.4,1c2.8,0.6,4.8,2.6,5.5,5.3c0.4-0.5,0.8-1.1,1.1-1.7
					C422.8,142.4,422.2,140.8,421,139.9z"/>
				<path class="st4" d="M410.9,163.5c0.2-1.8,0.8-3.4,1.7-4.7c0.1-0.8,0.5-1.5,1.1-2.1c0.8-0.8,1.8-1.1,2.9-0.8
					c0.9-0.3,1.8-0.4,2.8-0.4c2.3,0,4.6,0.5,6.7,1.4c-0.4-0.9-0.9-1.8-1.5-2.6c-0.9-1.3-2.3-1.6-3.8-1.1c-0.7,0.2-1.4,0.6-2.1,0.9
					c-0.1-1.3,0-2.7-0.2-4c0-0.2-0.1-0.4-0.1-0.5c-0.9,1.5-2.1,2.4-3.9,2.7c-1.6,0.2-3.2,0.1-4.8-0.3c-0.1,0.5-0.2,1-0.3,1.5
					c-0.4-0.1-0.8-0.2-1.3-0.3c-1.4-0.3-2.7,0.2-3.1,1.6c-0.5,1.4-0.8,3-0.8,4.5c0,1.9,1.6,3.3,3.6,3.4c0.4,0,0.8,0.1,1.4,0.1
					c-0.4,0.4-0.7,0.7-0.9,1c0.5,0.3,0.9,0.6,1.4,1"/>
				<path class="st4" d="M416.8,168.8c0.3,0.5,0.6,1,1,1.4c1.3,1.5,2.5,1.7,4,0.5c0.3-0.2,0.6-0.5,0.9-0.8c-1.2-0.6-2.6-1.1-4-1.3
					C418,168.5,417.4,168.6,416.8,168.8z"/>
				<path class="st4" d="M415.2,170c0.3-0.2,0.5-0.5,0.8-0.7C415.7,169.5,415.4,169.7,415.2,170z"/>
				<path class="st4" d="M426.1,156.9c-2.1-0.9-4.4-1.4-6.7-1.4c-1,0-1.9,0.2-2.8,0.4"/>
				<path class="st4" d="M409.7,164.8c-0.4-0.4-0.9-0.7-1.4-1"/>
				<path class="st4" d="M412.7,158.8c-0.9,1.3-2.8,4.2-3,6"/>
				<path class="st4" d="M426.6,176.9c1.4,0.5,2.5,1.6,2.8,3.2c0.3,1.6,0.3,3.3,0,4.9c-0.4,2.3-1.6,3.1-3.8,2.8
					c-0.8-0.1-1.5-0.3-2.3-0.5c0.3,2.1,0.1,4.1-1.8,5.4c-2.1,1.5-4.4,1.6-6.8,1.2c-1.5-0.3-2-1.5-2.2-2.9c-0.1-0.7,0-1.5,0-2.6
					c-0.5,0.4-0.9,0.8-1.2,1.1c-1.7,1.4-4.2,1.6-5.7,0c-1.2-1.3-2.2-2.9-2.9-4.5c-0.7-1.6-0.1-2.9,1.4-3.9c0.4-0.3,0.9-0.5,1.3-0.8
					c-1.2-1.5-1.8-3.2-1.7-4.9"/>
				<path class="st4" d="M398.2,165.2c-1.7,1.6-3,3.6-4.2,5.7c-1.8,3.3-1.3,6.1,1.7,8.3c1.1,0.9,2.4,1.5,3.4,2.1
					c-1.6,2.1-3.4,4-4.7,6.2c-1.3,2.2-0.7,5,1.2,6.7c1.5,1.3,3.1,2.6,4.9,3.6c2.3,1.3,4.8,2.2,7.4,1.2c1.4-0.6,2.7-1.5,4-2.3
					c0.6,1.3,1.1,2.8,1.9,4.1c1.2,2,2.9,3.2,5.2,2.8c3.7-0.7,6.7-2.7,9.3-5.5c1.7-2,2.3-4.4,2-7c0.7,0.1,1.3,0.2,1.9,0.3
					c2.7,0.4,5.1-0.9,5.8-3.5c0.7-2.7,1.4-5.5,1.4-8.3c0-4.5-2.6-7.6-6.5-8.5"/>
				<path class="st4" d="M430.9,162.7c0-0.7-0.1-1.4-0.3-2"/>
				<path class="st4" d="M411.8,178.2c-0.2,0.4-0.3,0.9-0.3,1.4c-0.1,2.4,1.9,4.5,4.2,4.6c2.4,0.1,4.5-2.2,4.5-4.9
					c0-1.5-1-2.6-2.6-3"/>
				<path class="st4" d="M431,162.7C431,162.7,431,162.7,431,162.7c-0.1,0.4-0.2,0.9-0.3,1.4c-0.4,1.8-1.4,3.6-2.1,5.3
					c-0.2,0.4-0.4,0.7-0.7,1.2c1.1,0,2,0,2.8,0c0.7,0,1.4,0.1,2.1,0.3"/>
				<path class="st4" d="M426.6,176.9c-0.5-0.2-1.1-0.3-1.6-0.3c-0.6,0-1.1,0-1.8,0c0.4-0.7,0.9-1.2,1-1.8c0.5-2.1-1.9-6.4-3.6-6.8
					c-0.5-0.1-3.1,0.3-3.3,0.5c-0.3,0.3-1,0.4-1.8,1.2c-0.2,0.2-0.7,0.9-0.9,1.2c-0.4,0.8-0.7,1.7-1,2.5c-1.1-1-2.1-2.1-3.2-3.1
					c-0.4-0.2-0.7-0.4-1.1-0.6c-1-0.4-2.1-0.2-2.9,0.4c-1.8,1.4-2.8,3.4-2.9,5.4"/>
				<path class="st4" d="M411.8,178.2c0.6-1.4,2.1-2.2,4.2-2.1c0.6,0,1.1,0.1,1.6,0.2"/>
				<path class="st4" d="M413,139.9c-1.4,0.1-2.9,0.4-4.3,0.8"/>
				<path class="st4" d="M421.1,145.3c-0.6-2.7-2.7-4.7-5.5-5.3"/>
				<path class="st4" d="M418.4,149.6C418.4,149.6,418.4,149.6,418.4,149.6c0,0.2,0.1,0.4,0.1,0.6c0.2,1.3,0.2,2.7,0.2,4
					c0.7-0.3,1.4-0.7,2.1-0.9c1.5-0.4,2.9-0.1,3.8,1.1c0.6,0.8,1.1,1.7,1.5,2.6c0.5,0.2,1,0.4,1.5,0.7c1.5,0.7,2.5,1.8,2.9,3
					c1.4-0.6,2.9-1.1,4.2-1.9c2.2-1.4,2.8-3.5,1.9-5.9c-0.9-2.4-2.1-4.5-3.9-6.2c-1-1-2.2-1.6-3.4-1.9"/>
				<path class="st4" d="M404.2,144c-0.3,0.9-0.4,1.9-0.2,3.1c0.2,1.2,0.7,2.4,0.9,3.3c-2.2,0.3-4.4,0.4-6.6,1
					c-2.1,0.6-3.4,2.6-3.2,4.8c0.2,1.7,0.4,3.5,0.9,5.1c0.4,1.4,1,2.8,2,3.9c0.4-0.4,0.9-0.8,1.4-1.1c2.8-1.8,6-1.9,8.7-0.3
					c0.3-0.3,0.6-0.6,0.9-1c-0.6,0-1-0.1-1.4-0.1c-1.9-0.1-3.5-1.5-3.6-3.4c0-1.5,0.3-3.1,0.8-4.5c0.5-1.4,1.7-1.9,3.1-1.6
					c0.4,0.1,0.8,0.2,1.3,0.3c0-0.5,0.1-1,0.3-1.5"/>
				<path class="st4" d="M417.5,176.2c-0.5-0.1-1-0.2-1.6-0.2c-2.2,0-3.6,0.7-4.2,2.1"/>
				<path class="st4" d="M413.7,156.7c-0.6,0.6-1,1.3-1.1,2.1c1-1.4,2.4-2.4,4-2.9C415.6,155.6,414.6,155.9,413.7,156.7z"/>
				<path class="st4" d="M407.9,140.9c0.3-0.1,0.6-0.2,0.8-0.3c0.1-0.1,0.2-0.2,0.3-0.4c-0.5,0-0.8,0-1.1,0c-1.6,0-3.1-1.1-3.4-2.6
					c-0.2-1.2-0.2-2.4,0-3.6c0.2-1.1,1.1-1.5,2.3-1.4c0.4,0.1,0.7,0.1,1.1,0.2c-0.3-2.9,1.7-4.9,4.7-4.7c1,0.1,1.8,0.7,2.2,1.8
					c0.3,1,0.5,2.1,0.7,3.1c0.5-0.3,1-0.6,1.6-0.8c1.2-0.4,2.3-0.2,3.2,0.8c0.7,0.8,1.4,1.7,1.9,2.6c0.7,1.4,0.3,2.4-1.1,3
					c-0.4,0.2-0.8,0.3-1.3,0.5c0.4,0.3,0.7,0.6,1.1,0.8c1.2,0.9,1.9,2.5,1.2,3.7c-0.3,0.6-0.7,1.2-1.1,1.7c0.1,0.4,0.2,0.8,0.2,1.2
					c0,0.3,0,0.6,0.1,1.1c0.6-0.5,1-0.8,1.5-1.2c2-1.7,4.4-2.3,6.6-1.8c0-1.9-0.9-3.8-2.8-5.2c-0.5-0.4-1-0.8-1.7-1.3
					c0.4-0.1,0.6-0.2,0.9-0.3c1.1-0.6,2.4-1,3.3-1.8c1.6-1.2,1.8-2.8,0.8-4.7c-1-1.8-2.3-3.5-4-4.8c-2.7-2.1-6-2-8.1,0.2
					c-0.3,0.3-0.6,0.6-1,1c-0.1-0.4-0.2-0.7-0.2-0.9c-0.7-2.6-2.9-4.6-5.6-4.9c-2.1-0.3-4.1,0.3-6,1c-2.4,0.9-3.1,2.5-2.3,5
					c0.3,1,0.9,1.9,1.2,2.6c-1.7,0.3-3.5,0.5-5.2,1c-1.6,0.5-2.4,2.2-1.9,3.9c0.4,1.4,0.8,2.7,1.4,4c0.8,1.7,2,3.3,3.9,4
					c0.7,0.2,1.4,0.4,2.1,0.5C404.8,142.6,406,141.5,407.9,140.9z"/>
				<path class="st4" d="M418.4,149.6c-0.3-1.1-1.2-1.7-2.2-1.8c-3.1-0.3-5.7,1.4-6.5,4.2"/>
				<path class="st4" d="M415.4,140c0.1,0,0.1,0,0.2,0c0.5-0.2,1-0.5,1.4-1c0.8-1,0.3-2.3-1.2-3.5c-1.6-1.3-3.1-1.4-4-0.3
					c-1,1.2-0.7,3.2,0.7,4.3c0.2,0.1,0.3,0.2,0.5,0.3C413.8,139.9,414.6,139.9,415.4,140z"/>
				<path class="st4" d="M415.6,140.1c-0.1,0-0.1,0-0.2,0c-0.8-0.1-1.6-0.2-2.4-0.2"/>
			</g>
		</g>
	</g>
	<g>
		<g>
			<g>
				<path class="st4" d="M436.5,191.7c-0.1-0.4-1.1-0.6-1.9-0.6 M396,194.3c0.5,1.4,0.9,2.8,1.4,4.2c3.2,9.7,6.4,19.4,10.7,28.7
					c1.1,2.4,2.6,4.6,4.1,6.9c0.4,0.6,1.3,1.1,2,1.3c3.4,0.7,5.1,0.1,6.6-2.4c1.3-2.2,2.6-4.4,3.6-6.7c4.8-10.7,8.5-22.5,12-33.7
					c0.1-0.4,0.2-0.8,0.3-1.1 M394.4,187.4 M431.5,193.2c-0.4,0.2-0.6,0.3-0.9,0.4c-0.1,0-0.2,0.1-0.3,0.1c0-0.2,0-0.4,0.1-0.5
					C430.7,193.2,431.1,193.2,431.5,193.2z M416,213.4c-0.1,0.1-0.4,0.1-0.5,0c-2.3-0.9-4.6-1.7-7.2-2.7c2.6-1,4.9-1.9,7.2-2.7
					c0.2-0.1,0.5,0,0.7,0.1c2.2,0.8,4.4,1.7,6.9,2.6C420.5,211.7,418.3,212.5,416,213.4z M416.1,214.8c2.2,0.8,4.5,1.7,7,2.7
					c-2.5,1-4.8,1.8-7,2.7c-0.2,0.1-0.4,0.1-0.6,0c-2.3-0.9-4.6-1.7-7.2-2.7c2.6-1,4.9-1.8,7.1-2.7
					C415.7,214.7,415.9,214.8,416.1,214.8z M419,203.5c0.7-0.1,1.3-0.3,1.9-0.5c0.7,0.3,1.4,0.5,2.1,0.8c-0.4,0.2-0.7,0.3-1,0.4
					c-0.9,0.3-1.8,0.6-2.7,1c-2.4,1.4-4.8,1.3-7.2,0c-1.1-0.6-2.3-0.9-3.7-1.5c2.1-0.8,4-1.6,6-2.3 M412.8,198.7
					c-0.9-0.3-1.7-0.7-2.7-1 M401.7,198.4c-0.7,0.3-1.5,0.6-2.2,0.8c-0.3-0.9-0.6-1.8-0.9-2.7 M407.9,198.9c0.4-0.1,0.7-0.3,1-0.5
					c1.4,0.6,2.9,1.1,4.6,1.8c0.1,0.1,0.1,0.3,0.2,0.4c-2.3,0.9-4.4,1.7-6.5,2.5c-0.2,0.1-0.6,0.1-0.8,0c-2.1-0.8-4.2-1.6-6.3-2.4
					c-0.1,0-0.2-0.1-0.6-0.3c1.4-0.5,2.6-1,3.7-1.4 M400.4,202c1.6,0.6,3.1,1.2,4.8,1.8c-1.3,0.5-2.5,0.9-3.7,1.4
					C401.2,204.2,400.8,203.2,400.4,202z M401.9,206.3c1.6-0.6,3.2-1.2,4.7-1.8c0.1-0.1,0.3,0,0.5,0c2.3,0.9,4.5,1.7,7,2.7
					c-2.5,0.9-4.7,1.8-6.9,2.6c-0.3,0.1-0.7,0.1-1,0c-0.7-0.2-1.3-0.5-1.9-0.7C402.5,208.5,402.5,208.5,401.9,206.3z M403.1,209.9
					c0.7,0.3,1.3,0.5,2.1,0.8c-0.6,0.2-1,0.4-1.6,0.6C403.5,210.9,403.3,210.5,403.1,209.9z M405.3,215.9c-0.4-1.1-0.8-2.2-1.3-3.5
					c1.4-0.5,2.5-1.4,4.1-0.7c1.9,0.9,3.9,1.5,6,2.4c-2.5,1-4.7,1.9-7,2.7C406.4,217,405.6,216.7,405.3,215.9z M406.3,218.5
					c0.1-0.1,0.1-0.2,0.2-0.3c2.6,0.6,5,1.9,7.7,2.8c-2.1,0.8-4,1.5-6,2.3C407.6,221.6,406.9,220,406.3,218.5z M409.4,225.9
					c1.6,0.6,3.1,1.2,4.8,1.8c-1.2,0.5-2.2,0.9-3.3,1.3C410.4,228,410,227.1,409.4,225.9z M415.8,233.8c-2.2,0.1-3.4-1.7-4.3-3.8
					c1.4-0.5,2.7-1,4-1.5c0.2-0.1,0.5,0,0.7,0c1.4,0.5,2.8,1.1,4.2,1.6C419.7,232.5,417.9,233.7,415.8,233.8z M421,229.1
					c-1.2-0.5-2.3-0.9-3.6-1.4c1.8-0.7,3.4-1.3,5-1.9c0.1,0.1,0.1,0.1,0.2,0.2C422,227,421.5,228.1,421,229.1z M416.1,227
					c-0.2,0.1-0.4,0.1-0.6,0c-2.3-0.8-4.5-1.7-6.8-2.6c0-0.1,0-0.2,0-0.3c2.2-0.9,4.5-1.7,6.7-2.6c0.2-0.1,0.4-0.1,0.5,0
					c2.3,0.9,4.6,1.8,7.2,2.7C420.6,225.3,418.4,226.1,416.1,227z M423.7,223.3c-2.1-0.8-4.1-1.6-6.3-2.4c2.5-1,4.8-1.8,7.1-2.7
					c0.3-0.1,0.7,0.1,1.3,0.2C425,220.2,424.3,221.7,423.7,223.3z M426.6,215.9c-0.4,0.6-1.6,1-2.3,0.8c-2.3-0.7-4.5-1.6-7-2.6
					c2.5-1,4.7-1.8,7-2.6c0.4-0.1,0.9,0.1,1.3,0.2c0.7,0.2,1.5-0.1,2.3,0.3C427.4,213.1,427.2,214.9,426.6,215.9z M428.3,210.8
					c-0.6-0.2-1.1,0.2-1.7,0c0-0.1,0-0.2,0-0.2c0.7-0.3,1.4-1.1,2.3-1.5C428.6,209.8,428.5,210.2,428.3,210.8z M428.1,208.2
					c-2.3,1.1-4.5,1.8-6.8,0.6c-1.2-0.6-2.5-1-4-1.6c2.5-1,4.8-1.8,7.1-2.7c0.2-0.1,0.5,0,0.7,0c1.6,0.6,3.2,0.6,4.8,1.2
					C429.8,207.1,429.2,207.7,428.1,208.2z M430.4,204.8c-1.3-0.5-2.6-0.4-4.1-0.9c1.8-0.7,3.5-1.9,5.3-2.7
					C431.2,202.5,430.8,203.6,430.4,204.8z M427.8,198.6c1.4,0.3,2.8,0.7,4.3,1.2c-2.5,1-4.7,2.4-6.9,3.3c-0.3,0.1-0.6,0.1-0.9,0
					c-0.6-0.2-1.2-0.4-1.8-0.7 M429.8,195.4c1.4-0.7,2.8-1.4,4.2-2c-0.6,1.9-1.1,3.6-1.7,5.3c-1.3-0.5-2.6-0.7-3.9-1"/>
			</g>
		</g>
	</g>
	<g id="RiiUH0.tif_00000015334026274158437920000016777336848666576018_">
		<g>
			<path class="st4" d="M247.4,129.5c1.4,0.4,2.6,1.1,3.3,2.5c1.3,2.3,0.4,5.2-2,6.4c-2.1,1.1-4.9,0-6-2.3c-1.1-2.4-0.1-5.3,2.3-6.3
				c0.3-0.1,0.3-0.1,0.4-0.2c0.1-0.2,0.2-0.4,0.2-0.7c0.7-2.6,2.2-4.5,4.8-5.2c0.5-0.2,1.1-0.3,1.7-0.2c0.4,0,0.8,0.4,1,0.7
				c0.2,0.4,0,1-0.5,1.2c-0.3,0.1-0.7,0.2-1,0.2C249.2,125.8,247.9,127,247.4,129.5z"/>
		</g>
	</g>
	<g id="AdS4MF.tif">
		<g>
			<path class="st4" d="M262.3,75.8c-0.1-22.4,19.8-40.6,44.5-40.9c24.4-0.3,44.6,18.2,44.7,40.8c0.1,22.3-20,40.9-44.6,40.8
				C281.8,116.4,262.4,97.9,262.3,75.8z M308.3,97.7c4.3,0,8.4,0,12.6,0c1,0,1.7-0.3,2.1-1.1c1.5-3.1,3.2-6.2,4.5-9.5
				c1.3-3.3,1.9-6.7,1.7-10.3c-7,0-13.9,0-20.8,0C308.3,83.7,308.3,90.6,308.3,97.7z M305.6,97.7c0-7.1,0-14,0-20.9
				c-7,0-13.9,0-20.8,0c0,0.2-0.1,0.4-0.1,0.5c0.2,7.2,2.6,13.7,6.7,19.8c0.2,0.3,0.8,0.6,1.2,0.6C296.9,97.7,301.2,97.7,305.6,97.7
				z M308.4,54.1c0,6.9,0,13.6,0,20.3c7,0,13.8,0,20.7,0c0-0.2,0.1-0.2,0.1-0.3c-0.2-7.1-3-13.4-6.6-19.5c-0.2-0.3-0.6-0.5-0.9-0.5
				C317.2,54.1,312.9,54.1,308.4,54.1z M305.5,74.5c0-6.8,0-13.5,0-20.4c-4.4,0-8.7,0-13,0c-0.4,0-1,0.4-1.2,0.8
				c-1.4,2.8-3,5.5-4.1,8.4c-1.4,3.5-2.3,7.2-2.4,11.1C291.7,74.5,298.6,74.5,305.5,74.5z M265.2,76.8c-0.1,0.2-0.1,0.3-0.1,0.4
				c0.1,7.3,2.8,13.9,7.1,19.9c0.3,0.4,1,0.6,1.5,0.6c2.7,0.1,5.4,0,8.1,0c2.2,0,4.5,0,6.9,0c-4.1-6.6-6.3-13.5-6.5-20.9
				C276.4,76.8,270.8,76.8,265.2,76.8z M325.2,97.7c5.3,0,10.3,0,15.4,0c0.4,0,0.9-0.3,1.2-0.6c4.6-6.1,6.9-12.8,7.3-20.2
				c-5.8,0-11.5,0-17.2,0C331.6,84.3,329.3,91.1,325.2,97.7z M282.2,74.3c0.3-7.2,2.9-13.8,6.6-20.3c-5.5,0-10.8,0-16,0
				c-0.4,0-1.1,0.5-1.3,0.9c-1.6,2.9-3.2,5.8-4.5,8.8c-1.4,3.3-2.1,6.8-1.9,10.5C270.8,74.3,276.4,74.3,282.2,74.3z M325.1,54
				c3.9,6.5,6.2,13.2,6.7,20.2c5.8,0,11.4,0,16.9,0c0.1-0.3,0.1-0.4,0.1-0.5c-0.2-6.9-2.6-13.2-6.6-19c-0.2-0.3-0.8-0.7-1.2-0.7
				C335.9,54,330.7,54,325.1,54z M303,37.5c-10.4,0.2-23.7,7.1-28.6,14.3c4.8,0,9.6,0,14.3,0c1.1,0,1.7-0.3,2.4-1.2
				c3-3.6,6.1-7.2,9.3-10.7C301.1,39.1,302.1,38.4,303,37.5z M339.7,51.8c-7.2-8.9-20.7-14.4-28.6-14.1c4.6,4.2,8.8,8.6,12.2,13.6
				c0.2,0.3,0.7,0.5,1.1,0.5C329.4,51.8,334.4,51.8,339.7,51.8z M274.6,100.1c7.7,8.2,17.1,12.6,28.6,13.5c-0.3-0.5-0.8-0.7-1.1-1.1
				c-2.5-2.5-5.1-4.9-7.5-7.5c-1.5-1.6-2.5-4-4.4-4.8c-2-0.8-4.7-0.2-7-0.2C280.4,100.1,277.7,100.1,274.6,100.1z M310.9,113.9
				c11.4-1.2,20.8-5.7,28.5-13.8c-3.9,0-7.5,0.2-11-0.1c-3.5-0.3-6.1,0.5-7.6,3.5c-0.2,0.3-0.5,0.6-0.7,0.8
				C317.1,107.5,314.1,110.6,310.9,113.9z M305.6,38.7c-4.7,4-8.7,8.2-12.1,13c4.3,0,8.2,0,12.1,0C305.6,47.4,305.6,43.2,305.6,38.7
				z M308.3,51.6c4,0,7.9,0,12.1,0c-3.6-4.7-7.3-9.1-12.1-12.9C308.3,43.3,308.3,47.4,308.3,51.6z M305,112.5
				c0.2-0.1,0.3-0.2,0.5-0.3c0-4,0-8,0-12c-4,0-7.9,0-11.8,0c-0.1,0.1-0.2,0.3-0.3,0.4C297.3,104.6,301.2,108.6,305,112.5z
				 M308.3,112.5c4.6-3.9,8.7-7.7,12-12.3c-4.2,0-8.1,0-12,0C308.3,104.2,308.3,108.2,308.3,112.5z"/>
			<path class="st4" d="M308.3,28.3c1.7,1.9,3,3.2,4.1,4.7c0.4,0.6,0.3,1.4-0.9,1.4c-3,0-6.1,0-9.1,0c-0.3,0-0.8-0.2-0.9-0.5
				c-0.1-0.3-0.1-0.9,0.1-1.1c1.2-1.2,2.5-2.4,3.7-3.6c0.3-0.3,0.4-0.9,0.4-1.4c0-5.3,0-10.6,0-15.9c0-0.5-0.1-1,0.1-1.3
				c0.2-0.4,0.8-1,1.2-1c0.4,0,1,0.5,1.2,0.9c0.2,0.4,0.1,0.9,0.1,1.3C308.3,17.6,308.3,23.3,308.3,28.3z M305.2,32.4
				c1.3,0,2.4,0,3.7,0C307.5,30.9,306.5,31,305.2,32.4z"/>
			<path class="st4" d="M347.2,33.3c-0.3,0.4-0.5,0.8-0.8,1.1c-0.3,0.2-0.6,0.4-1,0.5c-2.3,0.7-3.8,2.1-4.6,4.2
				c-0.2,0.6-0.9,1.3-1.5,1.4c-0.5,0-1.3-0.7-1.6-1.3c-0.9-2.2-2.5-3.6-4.9-4.4c-0.6-0.2-1.3-0.9-1.3-1.3c0-0.4,0.7-1.1,1.3-1.3
				c2.5-0.9,4.1-2.5,5-4.7c0.2-0.5,0.9-1,1.4-1c0.4,0,1.1,0.5,1.3,1c1,2.4,2.8,4,5.5,4.9C346.4,32.5,346.7,32.9,347.2,33.3z
				 M339.1,30.7c0.3-0.3-3.2,2.8-2.6,2.8c1,1,1.9,1.8,2.8,2.6c0.9-0.8,1.9-1.8,2.8-2.6C341.1,32.6,340.1,31.7,339.1,30.7"/>
			<path class="st4" d="M275.5,120.4c-0.7-0.7-1.1-1-1.3-1.4c-0.5-1.2-1.4-1.9-2.7-2.5c-1.1-0.5-1.1-1.3,0-1.7
				c1.3-0.5,2.2-1.3,2.8-2.6c0.5-1,1.3-1,1.7,0c0.6,1.2,1.5,2,2.8,2.6c1.2,0.5,1.2,1.3,0.1,1.7c-1.4,0.6-2.4,1.4-2.9,2.7
				C276,119.6,275.8,119.9,275.5,120.4z M276.2,115.7c-0.3-0.3-0.8-0.8-1.2-1.2c-0.2,0.2-0.8,0.8-1.2,1.2c0.5,0.5,1,1,1.2,1.2
				C275.4,116.4,276,116,276.2,115.7z"/>
			<path class="st4" d="M351.3,41.5c0.3,0.3,0.6,0.6,0.9,0.9c0.8,0.7,1.4,1.5,2.3,2c1.1,0.8,1.2,1.1,0.1,1.9c-0.8,0.5-1.5,1.2-2.1,2
				c-0.8,1-1.3,1-2.1,0c-0.6-0.8-1.4-1.4-2.3-2c-0.8-0.6-1.1-1.2-0.2-1.6c1.2-0.6,2.1-1.4,2.7-2.5C350.6,41.9,350.9,41.8,351.3,41.5
				z M352.3,45.4c-0.4-0.4-0.7-0.8-1.1-1.2c-0.4,0.4-0.8,0.8-1,1c0.4,0.5,0.7,0.8,0.8,1C351.4,46,351.8,45.7,352.3,45.4z"/>
		</g>
	</g>
	<path class="st4" d="M172.2,142.8c-0.5-1-9.1-8.9-4-14.6c2.6-2.9,3.5-2.5,16.4-2.2c17.5,0.3,18.5-3.8,27.4-1.7
		c12,2.9,14.8,7.3,20.7,5.3c7.4-2.5,6.3-14.3,13.6-16c4-0.9,7.8,1.9,12.8,5.6c8.6,6.4,8.9,11.3,14.4,14.4c8,4.5,16.4-5.9,22.3-1.6
		c3.2,2.4,2.9,6.4,5.6,6.8c3.2,0.5,4.5-4.7,9.3-6.3c5.7-2,8.5,3.5,15,3.6c11,0.2,14.2-15.1,24.2-14.7c5.6,0.2,5.6,5,16.1,9.2
		c3.6,1.4,10.1,4,16.7,2.9c13.4-2.3,13.9-17.7,25.3-19.9c10.3-2,21.9,8.3,27,16.9c1.7,2.9,1.8,4,7.3,29.8
		c2.9,13.6,3.1,14.4,3.3,16.9c0.2,2.8,0.7,13.2-5,28.8c-5.1,13.9-11.9,32.9-23.7,34.4c-8.7,1.1-10.4-8.5-24.2-14.1
		c-15.9-6.5-20.9,3.1-50.6,2.8c-22.6-0.2-26.4-5.9-46.2-2.8c-10.3,1.6-12.4,3.6-21,3.2c-15-0.6-19.9-5.1-32.5-7.2
		c-7.4-1.2-13.1,7.1-24.2,7.9c-7.6,0.5-47,2.9-52.4-5.1c-2.9-4.3,1.3-7.4,3.7-16c1.5-5.1,1.7-9.5,1.6-11.6
		c-0.2-6.4-2.2-7.7-1.5-13.1c0.6-4.7,2.2-4.6,2.1-8.2c-0.2-4.7-3.1-6.2-2.4-10.5c0.3-1.7,0.8-3.5,2-5.2c1.2-1.6,1.8-1,0.7-5.6
		C171.3,151,174.9,148.4,172.2,142.8z"/>
	<g id="GPiyMd.tif">
		<g>
			<path class="st4" d="M285.1,685.5c-4.1,0-8.3,0-12.4,0c-12.5,0-25.1,0-37.6,0c-1.5,0-3-0.1-4.3-0.7c-4.6-2-5.3-7.8-1.2-10.6
				c1.9-1.3,1.8-2.3,0.9-4.1c-5.3-10.7-10.6-21.5-15.8-32.3c-0.7-1.5-1.7-2.5-3.4-2.8c-1.3-0.2-2.5-0.9-3.6-1.7
				c-6.8-4.6-13.7-9.3-20.5-13.8c-1.8-1.2-2.5-2.8-2.5-4.9c0-6.2,0-12.5,0-18.7c0-1.4-0.2-2.2-1.8-2.7c-2.2-0.7-3.1-2.7-3.3-4.9
				c-0.2-2.6-0.1-5.2,2.2-7c0.6-0.5,1.4-0.6,2.2-0.6c3.5,0,7,0,10.5,0c2,0,2.9,0.9,3,2.8c0.1,0.9,0.1,1.7,0,2.6
				c-0.1,1.9-0.3,3.8,2.6,3.8c1.2,0,1.6,1.2,1.7,2.4c0.5,6.9,2.7,9.1,9.7,9c4.8-0.1,9.6,0.3,14.5-0.3c4.2-0.5,6.7-2.9,8.5-6.5
				c1.7-3.5,2.3-7.3,3-11c0.5-3,0.9-3.3,4-3.2c18.7,0.2,37.4,0.8,52.1,0.5c15.7,0,27.4,0,39.2,0c3.4,0,3.8,0.4,4.4,3.7
				c1.7,9.2,8.8,16,17.2,16.4c10.3,0.5,17.9-4.9,20.6-14.6c0.6-2.2,1.7-3.1,3.9-3.1c14.2,0,28.3,0,42.5,0c2.8,0,3.5,0.7,3.6,3.6
				c0.1,2.3,0.1,4.5,0,6.8c0,1.3,0.3,2.1,1.8,2.2c1.5,0.1,2.1,1.2,2.1,2.6c0,4.9,0,9.8,0,14.7c0,1.4-0.6,2.4-2,2.7
				c-1.3,0.2-1.9,0.8-1.9,2.2c0,1.9-0.7,3.2-2.8,3.2c-1.2,0-1.2,1-1.2,1.9c0,3,0,5.9,0,8.9c0,13.2,0,26.3,0,39.5
				c0,1.2,0.1,1.7,1.5,1.9c2,0.3,2.6,1.9,1.3,3.4c-2.2,2.7-4.6,5.3-7,7.9c-1.1,1.2-2.6,1-3.9,1c-22.4,0-44.9,0-67.3,0
				c-0.6,0-11.6,0-12.2,0 M420.6,616.2c-1-0.5-2-0.3-2.9-0.5c-2.2-0.3-3.5-1.5-3.8-3.7c-0.6-4.5-0.4-9-0.3-13.5c0-1.9,1.1-3,3.1-3
				c1.1,0,2.2,0,3.3-0.1c0.4,0,0.7-0.3,0.8-0.7c0-0.5-0.3-0.7-0.7-0.7c-0.5-0.1-0.9-0.1-1.4-0.1c-13.5,0-26.9,0-40.4,0
				c-1.2,0-2,0.4-2.8,1.3c-5.9,7.8-14,10.9-23.4,9.1c-9.7-1.8-15.8-8-18.3-17.5c-0.4-1.7-1.1-2.3-2.8-2.3c-16.6,0-33.2,0.1-49.8,0
				c-2,0-2.5,0.7-2.5,2.6c0.1,9.1,0.1,18.2,0,27.3c0,2,0.6,2.5,2.6,2.5c45.8,0,91.6,0,137.4-0.1C419.1,617,420,617.3,420.6,616.2z
				 M347.6,669.8c22.2,0,44.4,0,66.6,0c1.8,0,2.9-0.1,2.9-2.4c-0.1-14.7-0.1-29.4,0-44.1c0-1.8-0.7-2.3-2.4-2.2
				c-4.2,0.1-8.4,0.1-12.6,0c-2-0.1-2.5,0.6-2.5,2.6c0.1,10.5,0.1,21,0,31.5c0,1.8,0.4,2.7,2.4,2.7c2.6,0,4.4,1.7,4.4,3.8
				c0,2.4-1.7,3.8-4.6,3.8c-35.8,0-71.6,0-107.5,0c-2.8,0-4.3-1.1-4.5-3.4c-0.2-2.4,1.1-4,3.8-4.3c1.4-0.2,1.8-0.8,1.8-2.1
				c0-10.8,0-21.6,0-32.5c0-1.6-0.6-2.2-2.2-2.2c-4,0.1-7.9,0.2-11.9,0c-2.4-0.1-3,0.8-3,3.1c0.1,14.2,0,28.3,0,42.5
				c0,3.2,0,3.2,3.2,3.2C303.7,669.8,325.6,669.8,347.6,669.8z M334.2,685.4c-6.6,0.1-13.2,0-19.9,0c-6.2,0-23,0-29.2,0
				 M274.5,623.7c0-12.1,0-24.1,0-36.2c0-2.2-0.6-3-2.9-2.9c-6.9,0.1-13.7,0-20.6-0.2c-1.6-0.1-2.2,0.3-2.7,1.7
				c-1.8,4.7-3.5,9.5-5.6,14.1c-2.2,4.7-2.8,9.5-2.7,14.6c0.3,15.1,0.2,30.2,0.2,45.3c0,2.2,0.7,2.8,2.8,2.8c9.5-0.1,19,0,28.5,0.1
				c2.4,0,3.1-0.7,3-3C274.4,647.8,274.5,635.8,274.5,623.7z M189.2,604.8c0,2.9,0.1,5.8,0,8.6c-0.1,1.7,0.6,2.7,2,3.6
				c6.1,4,12.2,8.1,18.2,12.3c1.6,1.1,3.2,1.9,5.1,2.1c1.4,0.1,2.3,0.8,2.8,2.1c1.1,2.2,2.2,4.5,3.3,6.7c3.3,6.9,6.7,13.7,10,20.6
				c1,2,3,2.7,5.8,2c2-0.5,1.2-2.2,1.1-3.3c-0.1-8.6,0.1-17.1-0.3-25.7c-0.3-8.2-0.1-16.5-0.2-24.7c0-1.5,0.2-2.9,0.8-4.3
				c2.5-6.1,4.9-12.3,7.3-18.5c0.2-0.6,1.1-1.4,0-2c-1.6-0.9-3.7,0.2-4.1,2c-0.6,3.3-1.4,6.5-2.8,9.6c-2.4,5.2-6.1,8.7-12,9.1
				c-6.2,0.5-12.5,0.4-18.7,0c-4.5-0.3-7.5-3-9.1-7.3c-1.5-4.2-1.5-4.2-6.2-4.2c-0.4,0-0.8,0-1.2,0c-1.7-0.1-2.2,0.7-2.1,2.2
				C189.2,598.7,189.2,601.8,189.2,604.8z M347.6,640.8c7.1,0,14.2-0.1,21.3,0c1.9,0,2.4-0.6,2.4-2.4c-0.1-5.1-0.1-10.1,0-15.2
				c0-1.6-0.5-2.2-2.1-2.2c-14.2,0-28.3,0-42.5,0c-1.7,0-2.3,0.6-2.3,2.3c0.1,5,0.1,10,0,14.9c0,1.9,0.6,2.6,2.5,2.6
				C333.7,640.7,340.6,640.8,347.6,640.8z M417.6,677.1c-1,0-1.8,0-2.5,0c-49.3-0.2-98.5,0.3-147.8-0.4c-10.5-0.2-21,0-31.5,0
				c-1.9,0-4-0.2-4.4,2.3c-0.3,1.7,1.3,2.5,4.5,2.5c20,0,40,0,60,0c38,0,76-0.1,114,0.1C413.3,681.6,415.7,680.5,417.6,677.1z
				 M385.2,640.8c3.2,0,6.4,0,9.6,0c1.4,0,2.2-0.3,2.2-1.9c-0.1-5.3,0-10.6,0-15.9c0-1.4-0.5-2-1.9-2c-6.4,0-12.8,0-19.2,0
				c-1.5,0-2.1,0.6-2,2.1c0.1,5.2,0.1,10.4,0,15.6c0,1.7,0.7,2.1,2.3,2.1C379.1,640.8,382.2,640.8,385.2,640.8z M310,621
				c-3.1,0-6.2,0.1-9.3,0c-1.6,0-2.2,0.6-2.2,2.2c0.1,5.1,0.1,10.3,0,15.4c0,1.6,0.6,2.2,2.2,2.2c6.2-0.1,12.3-0.1,18.5,0
				c1.6,0,2.2-0.6,2.2-2.2c-0.1-5.1-0.1-10.3,0-15.4c0-1.6-0.6-2.2-2.2-2.2C316.1,621.1,313.1,621,310,621z M347.8,643.5
				c-7,0-14,0-21,0c-0.8,0-1.8-0.3-2.3,0.7c-0.7,1.3,0,4.7,1.2,5.7c0.6,0.5,1.1,1.1,1.6,1.7c2,2.7,4.9,2.7,6.9,0.1
				c2.5-3.3,7.3-3.3,9.8-0.1c2.1,2.8,5,2.8,7.1,0.1c2.6-3.3,7.5-3.3,10,0.1c1.9,2.5,4.8,2.6,6.7,0c0.7-0.9,1.4-1.6,2.4-2.2
				c2.1-1.3,1-3.4,1-5.1c-0.1-1.4-1.6-0.9-2.5-0.9C361.6,643.5,354.7,643.5,347.8,643.5z M347.7,657.7c15.3,0,30.5,0,45.8,0
				c0.7,0,1.4,0,2.1,0c0.4,0,1,0,1-0.6c0-0.5-0.4-0.6-0.8-0.7c-1.6-0.4-2.6-1.6-3.5-2.9c-1.4-1.7-4-1.7-5.5,0
				c-3.6,4.2-7.7,4.1-11.3,0c-1.5-1.7-4.2-1.7-5.6,0.2c-3.1,3.9-7.8,3.9-11.1,0c-1.6-1.9-4.2-1.9-5.8,0c-3.1,3.8-7.9,3.8-10.9,0.1
				c-1.8-2.2-4.3-2.2-6,0.1c-2.7,3.5-8,3.6-10.6,0.1c-1.8-2.4-4.3-2.4-6.2-0.1c-2.9,3.6-7.8,3.5-10.8-0.1c-1.8-2.2-4.4-2.2-6,0.1
				c-0.8,1-1.6,1.9-2.8,2.4c-0.4,0.1-0.9,0.4-0.7,1c0.1,0.4,0.6,0.5,1,0.5c0.7,0,1.4,0,2.1,0C317.2,657.7,332.5,657.7,347.7,657.7z
				 M348,662.8c17.4,0,34.9,0,52.3,0c1,0,2.9,0.6,2.9-0.9c0-1.8-1.9-1.1-3-1.1c-34.8,0-69.6,0-104.4,0c-1,0-2.9-0.6-2.9,0.9
				c0,1.7,1.9,1.1,3,1.1C313.3,662.8,330.6,662.8,348,662.8z M385.5,643.5c-3.2,0-6.4,0-9.6,0c-0.9,0-2-0.1-2,1.3
				c0,2.1-0.8,4.4,2.2,5.4c0.6,0.2,1.1,1,1.6,1.6c1.9,2.5,5,2.5,6.8,0c1.3-1.7,2.9-2.5,5-2.5c2.4-0.1,4.2,0.7,5.5,2.9
				c0.3,0.5,0.7,1.2,1.4,1c0.8-0.2,0.5-1,0.6-1.6c0-2,0-4,0-6.1c0.1-1.5-0.6-2.1-2.1-2C391.8,643.5,388.7,643.5,385.5,643.5z
				 M309.9,643.5c-3.1,0-6.2,0-9.3,0c-1.5,0-2.1,0.5-2.1,2c0.1,1.9,0,3.7,0,5.6c0,0.6-0.4,1.6,0.5,1.8c0.8,0.2,1.1-0.8,1.5-1.3
				c2.5-3.4,7.3-3.3,9.9,0.1c1.9,2.5,4.9,2.6,6.8,0.2c0.8-1,1.6-1.8,2.8-2.4c2.3-1,1.2-3.1,1.2-4.7c0-1.6-1.4-1.3-2.5-1.3
				C315.8,643.4,312.9,643.5,309.9,643.5z M257.2,669.8c6.4,0,10.9,0,15.4,0c1.6,0,2-0.7,2-2.1c0-1.7-1-1.8-2.3-1.9
				c-7.1-0.3-14.1,0.1-21.2-0.3c-5.4-0.3-10.9-0.1-16.3-0.1c-1.2,0-1.5,0.4-1,1.6c0.6,1.4,1.3,2.5,3.2,2.4
				C244.3,669.4,251.6,670.1,257.2,669.8z M399.9,587.3c-2.6,0-5.3,0-7.9,0c-3.7,0-7.5,0-11.2,0c-1.4,0-2.9,1.9-2.6,3.2
				c0.3,1.4,1.5,0.7,2.3,0.7c12.6-0.1,25.2-0.2,37.8-0.3c1.2,0,2.6,0.2,2.6-1.8c0-2.1-1.4-1.9-2.7-1.9
				C412,587.3,405.9,587.3,399.9,587.3z M421.3,604.4c1.2-0.4,2.9,0.8,3.6-1c1-2.3-0.1-3.8-2.6-3.8c-0.6,0-1.2,0.1-1.9,0
				c-2.3-0.3-2.7,0.8-2.7,2.8C417.8,605.2,419.8,604.1,421.3,604.4z M421.2,607c-1,0.3-2.5-0.7-3.2,0.7c-0.5,1-0.6,2.4,0.2,3.3
				c1.5,1.6,3.5,0.1,5.3,0.4c0.8,0.1,1.3-0.3,1.4-1.2c0-0.1,0-0.2,0-0.2C425.4,607.5,424.9,607,421.2,607z M184.7,589
				c2.4,0,4.9,0.1,7.3,0c1.4-0.1,1.2-1.3,1.2-2.3c0-0.9,0-2-1.3-2c-2.4-0.1-4.8-0.2-7.5,0.2c1.2,0.9,3.2-0.1,3.2,1.9
				C187.7,588.8,185.7,587.8,184.7,589z"/>
			<path class="st4" d="M339.4,581.7c0-9.6,7.4-17,17-17c9.4,0,16.9,7.5,17,16.9c0,9.5-7.6,17-17.1,17
				C346.9,598.6,339.4,591.1,339.4,581.7z M356.5,572.4c-5.3,0-9.6,4-9.6,9c-0.1,5.2,4.2,9.5,9.4,9.5c5.4,0.1,9.5-3.9,9.5-9.3
				C365.7,576.3,361.8,572.4,356.5,572.4z"/>
			<path class="st4" d="M217,564.7c9.5,0,17.1,7.6,17.1,17c0,9.2-7.7,16.9-17.1,16.9c-9.3,0-17.2-7.7-17.1-16.8
				C199.9,572.3,207.6,564.7,217,564.7z M217,572.3c-5.3,0-9.5,4.1-9.4,9.2c0,5.2,4.3,9.4,9.6,9.4c5.3,0,9.3-4,9.3-9.3
				C226.4,576.2,222.4,572.3,217,572.3z"/>
			<path class="st4" d="M406.1,605.8c2.2,0,4.1,1.9,4.1,4.2c0,2.3-1.8,4-4.2,4c-2.3,0-4.1-1.8-4.1-4.1
				C402,607.7,403.8,605.8,406.1,605.8z"/>
			<path class="st4" d="M243.6,646.4c0-3.1-0.1-6.2,0-9.3c0.1-3.1,1.6-4.6,4.7-4.6c6.1,0,12.1,0,18.2,0c2.9,0,4.3,1,4.6,3.9
				c0.6,6.8,0.6,13.7,0,20.5c-0.2,2.2-1.5,3.4-3.6,3.6c-6.6,0.5-13.2,0.5-19.8,0c-2.8-0.2-3.9-1.6-4-4.5
				C243.6,652.7,243.6,649.5,243.6,646.4z M268.4,646.5c0-2.9,0-5.8,0-8.6c0-2-0.9-2.8-2.9-2.8c-5.5,0-11,0-16.6,0
				c-1.8,0-2.7,0.8-2.7,2.7c0,5.7,0,11.5,0,17.2c0,1.8,0.7,2.7,2.7,2.7c5.6,0,11.2-0.1,16.8,0c2,0,2.8-0.9,2.7-2.8
				C268.4,652.1,268.5,649.3,268.4,646.5z"/>
			<path class="st4" d="M269.1,622.8c0,1.2,0,2.3,0,3.5c0,1.5-0.4,2.9-2.2,3c-1.8,0.1-3.6-0.1-4.1-2.2c-0.7-3.1-0.6-6.4-0.2-9.5
				c0.3-2.3,2.7-1.2,4.1-1.4c1.4-0.2,2.2,0.6,2.3,2C269.1,619.7,269,621.2,269.1,622.8C269,622.8,269.1,622.8,269.1,622.8z"/>
			<path class="st4" d="M231.1,632.9c3.4,0,3.4,0.1,3.5,3.4c0.1,6.8,0.3,13.5,0.4,20.3c0,0.7,0,1.4,0,2.1c0,0.9-0.1,1.8-1.2,2
				c-1.1,0.2-1.5-0.6-1.9-1.4c-1.7-3.8-3.3-7.5-5-11.3c-0.3-0.6-0.4-1.2-0.7-1.7c-2.5-3.7-2.3-7.2,0.4-10.9
				C228.4,633,228.1,632.9,231.1,632.9z M231.6,651.4c0.1,0,0.3-0.1,0.4-0.1c0-4.8,0-9.5,0-14.3c0-1.3-0.8-1.6-1.9-1.2
				c-1.1,0.5-3.2,4.7-2.7,5.9C228.7,644.9,230.1,648.1,231.6,651.4z"/>
			<path class="st4" d="M225.8,629.4c0,1.5,0,3.1,0,4.6c0,1.2,0.3,2.7-1.6,2.8c-1.8,0.2-3.6,0.2-4.4-2c-0.4-1-0.4-2.1-0.4-3.2
				c0-2.6,0-5.1,0-7.7c0-2.4,1.8-2.3,3.5-2.3c1.6,0,3,0.2,2.9,2.3C225.7,625.8,225.7,627.6,225.8,629.4z"/>
			<path class="st4" d="M196.9,610c0-2.3,1.8-4.2,4.1-4.2c2.3,0,4.1,1.7,4.2,4.1c0,2.4-1.7,4.1-4,4.1
				C198.8,614.1,197,612.3,196.9,610z"/>
			<path class="st4" d="M354.7,577.3c0.4-1.1,0.1-2.6,1.6-2.7c1.9-0.1,1.3,1.7,1.9,2.7c1.2-0.1,2.1-2,3.4-0.6
				c1.1,1.2-0.5,2.1-0.8,3.1c0.9,0.8,2.9,0.2,2.7,2c-0.2,1.7-1.9,1.1-3,1.6c0.2,1.2,2.4,2,0.9,3.4c-1.5,1.3-2.2-0.7-3.4-1.2
				c-1,0.8,0.4,3.3-1.8,3c-1.6-0.2-1.1-1.8-1.4-3c-1.3,0.1-2.2,2.4-3.6,0.9c-1.2-1.2,0.6-2,0.9-3.1c-0.9-0.8-3-0.1-2.8-2.1
				c0.2-1.6,1.9-0.9,2.8-1.5c-0.1-1.2-2-2-0.7-3.3C352.6,575.2,353.4,577.1,354.7,577.3z"/>
			<path class="st4" d="M218.9,577.4c1.2-0.5,2.1-2,3.2-0.8c1.2,1.4-0.6,2.1-1.1,3.3c1,0.7,3-0.1,3.1,1.7c0,1.9-1.9,1.3-3,1.7
				c0.2,1.2,2.2,2.1,0.9,3.3c-1.5,1.4-2.2-0.7-3.4-1.1c-0.9,0.9,0.4,3.3-1.8,3.1c-1.8-0.1-0.8-2-1.5-3c-1.2,0.2-2,2.3-3.4,1
				c-1.4-1.3,0.6-2.1,0.9-3.2c-1.1-0.6-2.9-0.2-2.9-1.9c0-1.9,1.9-1.1,2.9-1.7c0-1.2-2.2-2.1-0.7-3.4c1.3-1.2,2.1,0.7,3.3,0.8
				c0.6-0.9-0.1-2.8,1.8-2.7C218.8,574.6,218.3,576.3,218.9,577.4z"/>
		</g>
	</g>
	<path class="st4" d="M336.3,576c0.4-1.4,1.8-9.7,10.5-13.9c7.6-3.7,18.2-2.3,24.4,3.5c3.8,3.6,6,10.2,6.1,10.4h39.9
		c8,0,13.9,0.3,14.1,8.7c0,0.9,0,1.7,0,2.5c2.3,2.3,3.7,5.6,3.7,9.3c0,4.9,0,9.8,0,14.7c0,4.3-1.8,8-4.8,10.3
		c-0.7,1.7-1.7,3.2-3,4.5l0,12.7c0,8.8,0,17.6,0,26.4c1.1,1.1,2,2.5,2.6,4.1c1.5,4.1,0.8,8.6-2.1,12.2c-2,2.5-4.1,4.9-6.1,7.2
		l-1,1.1c-3.5,3.9-7.8,4.2-10,4.2c-0.2,0-0.4,0-0.6,0l-0.3,0l-65.3,0c-0.1,0-10.2,0-11.9,0c-4.5,0-54.9,0-58.8,0l-8.8,0
		c-9.2,0-18.4,0-27.6,0c-2.3,0-5.1-0.2-8.1-1.5c-5.3-2.4-9-7.5-9.5-13.3c-0.3-3.7,0.6-7.2,2.5-10.2c-4-8.3-8.1-17-12.5-26.4
		c-1.7-0.7-3.1-1.6-4.4-2.4l-3.3-2.3c-5.4-3.8-11-7.7-16.5-11.5c-4.4-3-6.8-7.7-6.7-13.3c0-3.2,0-6.4,0-9.5c0-1.7,0-3.5,0-5.2
		c-2.8-2.5-4.5-6.2-4.9-10.6c-0.2-2.5,0.3-8.1,6.2-10.2c2.2-0.8,13.6-0.3,16.8-0.3c3.1-10,10.4-16.3,20.5-15.8
		c9.3,0.5,17.1,6.4,20,15.6C270,576.6,303.7,575.9,336.3,576z M225,589 M409.5,675.9C409.5,675.9,409.5,675.9,409.5,675.9
		L409.5,675.9z M234.3,673.6L234.3,673.6L234.3,673.6z M422.7,629.2C422.7,629.2,422.7,629.2,422.7,629.2
		C422.7,629.2,422.7,629.2,422.7,629.2z M435.2,615.9C435.2,615.9,435.2,615.9,435.2,615.9C435.2,615.9,435.2,615.9,435.2,615.9z
		 M425.4,603.9C425.4,603.9,425.4,603.9,425.4,603.9C425.4,603.9,425.4,603.9,425.4,603.9z M200.2,597.8
		C200.2,597.8,200.2,597.8,200.2,597.8S200.2,597.8,200.2,597.8z M225.2,589L225.2,589L225.2,589z"/>
	<g id="MTrLNZ.tif">
		<g>
			<path class="st4" d="M247.9,505.1c-2.8,0-5.6,0.2-8.4,0c-7.1-0.7-12.2-6.2-12.5-13.1c-0.3-7.2,4.5-13.3,11.7-14.2
				c6.1-0.8,12.2-1.3,18.3-1.3c7.7,0,13.5,6,13.8,13.5c0.3,6.9-4.8,12.9-12.1,14.1c-3.6,0.6-7.2,0.7-10.9,1
				C247.9,505,247.9,505,247.9,505.1z"/>
			<path class="st4" d="M138.2,462.4c-10.8-0.2-17.6-10.3-13.4-19.3c2.7-5.8,6.1-11.4,9.7-16.6c4.1-5.9,12.1-7.2,18.1-3.6
				c6.2,3.8,8.8,11.1,5.6,17.6c-2.8,5.6-6,11-9.4,16.2C146.2,460.8,142.1,462.4,138.2,462.4z"/>
			<path class="st4" d="M195.4,489.4c-0.5,11-12.1,18-21.3,12.3c-5.8-3.6-11.1-8.3-16.1-13.1c-4.7-4.6-4.5-12.1-0.5-17.3
				c4.1-5.3,11.8-7.6,17.3-3.9c6.1,4.1,11.8,9,17.1,14.2C193.8,483.4,194.2,486.7,195.4,489.4z"/>
			<path class="st4" d="M190,410.2c2,1.2,6,2.7,8.7,5.4c3.9,3.8,7,8.4,10.2,12.8c4.5,6.4,3.4,14.6-2.3,19.2
				c-6,4.8-14.3,4.1-19.6-2.1c-3.8-4.4-7.3-9-10.6-13.8c-3.1-4.4-3.2-9.4-0.6-14.1C178.4,412.9,182.6,410.6,190,410.2z"/>
		</g>
	</g>
	<g id="MTrLNZ.tif_00000145024145205883886030000002097001214366385284_">
		<g>
			<path class="st4" d="M250.7,502.5c-1.1,0-3.4,0.1-5.7,0c-6.9-0.3-12.5-5.3-13.3-11.8c-0.9-7.3,3.1-14,10.3-15.2
				c6.8-1.2,13.8-1.8,20.7-1.5c7.6,0.3,12.8,6.7,12.7,13.9c-0.1,7.3-5.4,12.8-13.1,13.6C258.9,501.9,255.4,502.1,250.7,502.5z"/>
			<path class="st4" d="M374,493.8c-2.8,0-5.6,0.2-8.4,0c-7.1-0.7-12.2-6.2-12.5-13.1c-0.3-7.2,4.5-13.3,11.7-14.2
				c6.1-0.8,12.2-1.3,18.3-1.3c7.7,0,13.5,6,13.8,13.5c0.3,6.9-4.8,12.9-12.1,14.1c-3.6,0.6-7.2,0.7-10.9,1
				C374,493.7,374,493.8,374,493.8z"/>
			<path class="st4" d="M264.4,451.2c-10.8-0.2-17.6-10.3-13.4-19.3c2.7-5.8,6.1-11.4,9.7-16.6c4.1-5.9,12.1-7.2,18.1-3.6
				c6.2,3.8,8.8,11.1,5.6,17.6c-2.8,5.6-6,11-9.4,16.2C272.4,449.5,268.2,451.1,264.4,451.2z"/>
			<path class="st4" d="M321.5,478.2c-0.5,11-12.1,18-21.3,12.3c-5.8-3.6-11.1-8.3-16.1-13.1c-4.7-4.6-4.5-12.1-0.5-17.3
				c4.1-5.3,11.8-7.6,17.3-3.9c6.1,4.1,11.8,9,17.1,14.2C319.9,472.1,320.4,475.5,321.5,478.2z"/>
			<path class="st4" d="M316.2,398.9c2,1.2,6,2.7,8.7,5.4c3.9,3.8,7,8.4,10.2,12.8c4.5,6.4,3.4,14.6-2.3,19.2
				c-6,4.8-14.3,4.1-19.6-2.1c-3.8-4.4-7.3-9-10.6-13.8c-3.1-4.4-3.2-9.4-0.6-14.1C304.6,401.7,308.8,399.3,316.2,398.9z"/>
		</g>
	</g>
	<g id="MTrLNZ.tif_00000053513987284245910230000009927397664693009843_">
		<g>
			<path class="st4" d="M374,513.2c-1.1,0-3.4,0.1-5.7,0c-6.9-0.3-12.5-5.3-13.3-11.8c-0.9-7.3,3.1-14,10.3-15.2
				c6.8-1.2,13.8-1.8,20.7-1.5c7.6,0.3,12.8,6.7,12.7,13.9c-0.1,7.3-5.4,12.8-13.1,13.6C382.1,512.6,378.7,512.8,374,513.2z"/>
			<path class="st4" d="M387.6,461.9c-10.8-0.2-17.6-10.3-13.4-19.3c2.7-5.8,6.1-11.4,9.7-16.6c4.1-5.9,12.1-7.2,18.1-3.6
				c6.2,3.8,8.8,11.1,5.6,17.6c-2.8,5.6-6,11-9.4,16.2C395.6,460.2,391.5,461.8,387.6,461.9z"/>
			<path class="st4" d="M444.8,488.9c-0.5,11-12.1,18-21.3,12.3c-5.8-3.6-11.1-8.3-16.1-13.1c-4.7-4.6-4.5-12.1-0.5-17.3
				c4.1-5.3,11.8-7.6,17.3-3.9c6.1,4.1,11.8,9,17.1,14.2C443.2,482.8,443.6,486.2,444.8,488.9z"/>
			<path class="st4" d="M439.5,409.6c2,1.2,6,2.7,8.7,5.4c3.9,3.8,7,8.4,10.2,12.8c4.5,6.4,3.4,14.6-2.3,19.2
				c-6,4.8-14.3,4.1-19.6-2.1c-3.8-4.4-7.3-9-10.6-13.8c-3.1-4.4-3.2-9.4-0.6-14.1C427.8,412.4,432,410,439.5,409.6z"/>
		</g>
	</g>
	<g id="MTrLNZ.tif_00000087383769302603532210000005538646031827696037_">
		<g>
			<path class="st4" d="M423.8,553.4c-10.8-0.2-17.6-10.3-13.4-19.3c2.7-5.8,6.1-11.4,9.7-16.6c4.1-5.9,12.1-7.2,18.1-3.6
				c6.2,3.8,8.8,11.1,5.6,17.6c-2.8,5.6-6,11-9.4,16.2C431.9,551.7,427.7,553.4,423.8,553.4z"/>
		</g>
	</g>
	<g id="MTrLNZ.tif_00000144313937328059249850000001450030478436836246_">
		<g>
			<path class="st4" d="M165.1,517.4c2,1.2,6,2.7,8.7,5.4c3.9,3.8,7,8.4,10.2,12.8c4.5,6.4,3.4,14.6-2.3,19.2
				c-6,4.8-14.3,4.1-19.6-2.1c-3.8-4.4-7.3-9-10.6-13.8c-3.1-4.4-3.2-9.4-0.6-14.1C153.5,520.1,157.7,517.7,165.1,517.4z"/>
		</g>
	</g>
	<path class="st4" d="M152.8,566.3c20.5,2.2,35.1-1.3,44.8-5.1c8.1-3.1,11-5.8,18.3-6.3c15.8-1.2,19.3,9.9,35.4,12.6
		c20.2,3.5,24.5-12.4,46.1-8.8c14.3,2.3,18.8,10.3,30.3,7.6c9.2-2.2,9.1-7.9,18.9-10.7c7.6-2.2,11.5,0.1,31.6,4.4
		c17.6,3.8,26.4,5.7,31.6,5.1c16.3-2,21.2-11.7,32.2-9.5c8,1.6,13.4,8.4,16.7,13.9"/>
	<g id="MTrLNZ.tif_00000094592794401571983390000002136704412045278338_">
		<g>
			<path class="st4" d="M400.4,386.8c-1.1,0-3.4,0.1-5.7,0c-6.9-0.3-12.5-5.3-13.3-11.8c-0.9-7.3,3.1-14,10.3-15.2
				c6.8-1.2,13.8-1.8,20.7-1.5c7.6,0.3,12.8,6.7,12.7,13.9c-0.1,7.3-5.4,12.8-13.1,13.6C408.5,386.1,405.1,386.4,400.4,386.8z"/>
			<path class="st4" d="M414,335.5c-10.8-0.2-17.6-10.3-13.4-19.3c2.7-5.8,6.1-11.4,9.7-16.6c4.1-5.9,12.1-7.2,18.1-3.6
				c6.2,3.8,8.8,11.1,5.6,17.6c-2.8,5.6-6,11-9.4,16.2C422.1,333.8,417.9,335.4,414,335.5z"/>
			<path class="st4" d="M471.2,362.4c-0.5,11-12.1,18-21.3,12.3c-5.8-3.6-11.1-8.3-16.1-13.1c-4.7-4.6-4.5-12.1-0.5-17.3
				c4.1-5.3,11.8-7.6,17.3-3.9c6.1,4.1,11.8,9,17.1,14.2C469.6,356.4,470.1,359.8,471.2,362.4z"/>
			<path class="st4" d="M465.9,283.2c2,1.2,6,2.7,8.7,5.4c3.9,3.8,7,8.4,10.2,12.8c4.5,6.4,3.4,14.6-2.3,19.2
				c-6,4.8-14.3,4.1-19.6-2.1c-3.8-4.4-7.3-9-10.6-13.8c-3.1-4.4-3.2-9.4-0.6-14.1C454.2,285.9,458.4,283.6,465.9,283.2z"/>
		</g>
	</g>
	<g id="MTrLNZ.tif_00000007404706290535441430000008312611213746706320_">
		<g>
			<path class="st4" d="M234.6,378c-2.8,0-5.6,0.2-8.4,0c-7.1-0.7-12.2-6.2-12.5-13.1c-0.3-7.2,4.5-13.3,11.7-14.2
				c6.1-0.8,12.2-1.3,18.3-1.3c7.7,0,13.5,6,13.8,13.5c0.3,6.9-4.8,12.9-12.1,14.1c-3.6,0.6-7.2,0.7-10.9,1
				C234.6,377.9,234.6,377.9,234.6,378z"/>
			<path class="st4" d="M182.1,362.3c-0.5,11-12.1,18-21.3,12.3c-5.8-3.6-11.1-8.3-16.1-13.1c-4.7-4.6-4.5-12.1-0.5-17.3
				c4.1-5.3,11.8-7.6,17.3-3.9c6.1,4.1,11.8,9,17.1,14.2C180.5,356.3,181,359.6,182.1,362.3z"/>
			<path class="st4" d="M176.8,283.1c2,1.2,6,2.7,8.7,5.4c3.9,3.8,7,8.4,10.2,12.8c4.5,6.4,3.4,14.6-2.3,19.2
				c-6,4.8-14.3,4.1-19.6-2.1c-3.8-4.4-7.3-9-10.6-13.8c-3.1-4.4-3.2-9.4-0.6-14.1C165.2,285.8,169.3,283.5,176.8,283.1z"/>
		</g>
	</g>
	<g id="MTrLNZ.tif_00000093157477209260239810000015391843363309840540_">
		<g>
			<path class="st4" d="M183.3,266.4c-2.8,0-5.6,0.2-8.4,0c-7.1-0.7-12.2-6.2-12.5-13.1c-0.3-7.2,4.5-13.3,11.7-14.2
				c6.1-0.8,12.2-1.3,18.3-1.3c7.7,0,13.5,6,13.8,13.5c0.3,6.9-4.8,12.9-12.1,14.1c-3.6,0.6-7.2,0.7-10.9,1
				C183.3,266.3,183.3,266.4,183.3,266.4z"/>
		</g>
	</g>
	<g id="MTrLNZ.tif_00000016061232925084234700000007095420980226463646_">
		<g>
			<path class="st4" d="M450,272.6c-1.1,0-3.4,0.1-5.7,0c-6.9-0.3-12.5-5.3-13.3-11.8c-0.9-7.3,3.1-14,10.3-15.2
				c6.8-1.2,13.8-1.8,20.7-1.5c7.6,0.3,12.8,6.7,12.7,13.9c-0.1,7.3-5.4,12.8-13.1,13.6C458.2,271.9,454.7,272.1,450,272.6z"/>
			<path class="st4" d="M463.7,221.2c-10.8-0.2-17.6-10.3-13.4-19.3c2.7-5.8,6.1-11.4,9.7-16.6c4.1-5.9,12.1-7.2,18.1-3.6
				c6.2,3.8,8.8,11.1,5.6,17.6c-2.8,5.6-6,11-9.4,16.2C471.7,219.5,467.6,221.2,463.7,221.2z"/>
		</g>
	</g>
	<g id="MTrLNZ.tif_00000093137953441538057160000012120321753862546359_">
		<g>
			<path class="st4" d="M435.9,109.9c-1.1,0-3.4,0.1-5.7,0c-6.9-0.3-12.5-5.3-13.3-11.8c-0.9-7.3,3.1-14,10.3-15.2
				c6.8-1.2,13.8-1.8,20.7-1.5c7.6,0.3,12.8,6.7,12.7,13.9c-0.1,7.3-5.4,12.8-13.1,13.6C444,109.3,440.6,109.5,435.9,109.9z"/>
		</g>
	</g>
	<path class="st4" d="M462.4,158.1c-10.8-0.2-17.6-10.3-13.4-19.3c2.7-5.8,6.1-11.4,9.7-16.6c4.1-5.9,12.1-7.2,18.1-3.6
		c6.2,3.8,8.8,11.1,5.6,17.6c-2.8,5.6-6,11-9.4,16.2C470.4,156.4,466.2,158,462.4,158.1"/>
	<g id="MTrLNZ.tif_00000094605643296049494970000016075664331806898086_">
		<g>
			<path class="st4" d="M191.7,110.7c-7.2,8-19.3,6.4-23.3-2.7c-2.6-5.9-4.5-12.1-6.1-18.3c-1.7-7,2.6-13.9,9.2-16
				c6.9-2.2,14.1,0.7,16.9,7.4c2.4,5.8,4.3,11.8,6,17.8C195.8,103.6,194.2,107.8,191.7,110.7z"/>
			<path class="st4" d="M249.7,85.6c7.9,7.7,5.6,21-4.8,24.1c-6.6,2-13.6,2.9-20.5,3.4c-6.6,0.5-12.1-4.6-13.3-11
				c-1.3-6.6,2.1-13.9,8.4-15.6c7.1-1.9,14.6-2.9,21.9-3.5C244.1,82.8,246.9,84.6,249.7,85.6z"/>
		</g>
	</g>
	<g id="MTrLNZ.tif_00000110443199876574701440000005493284611347750284_">
		<g>
			<path class="st4" d="M403.3,55.9c-1.2,10.7-12,16.5-20.6,11.4c-5.5-3.3-10.7-7.2-15.6-11.4c-5.5-4.7-6-12.8-1.8-18.4
				c4.4-5.8,11.9-7.6,18.1-3.8c5.3,3.3,10.3,7.1,15.2,11C402.5,47.8,403.7,52.1,403.3,55.9z"/>
		</g>
	</g>
	<path class="st4" d="M269.1-5.3c6.9,0.4,12.4,6.1,12.8,13.5c0.2,3.6,0,7.3-0.1,10.9c0,0,0.1,0,0.1,0c-0.3,2.8-0.3,5.6-0.9,8.4
		c-1.4,7-7.4,11.5-14.3,11.1c-7.2-0.4-12.8-5.8-13-13.1c-0.2-6.1-0.1-12.3,0.6-18.3C255.1-0.6,261.7-5.8,269.1-5.3"/>
	<g id="MTrLNZ.tif_00000093855198264467246420000006342868565982805947_">
		<g>
			<path class="st4" d="M165.1,150.4c-0.2,2.3,0.1,6.5-1.2,10.2c-1.8,5.1-4.6,9.9-7.3,14.6c-3.9,6.8-11.8,9.3-18.4,6
				c-6.9-3.4-9.7-11.2-6.4-18.7c2.4-5.3,5.1-10.4,8-15.5c2.7-4.7,7.1-6.8,12.5-6.5C157.7,141,161.6,143.8,165.1,150.4z"/>
		</g>
	</g>
</g>
<g id="Design">
	<path class="st5" d="M404.7,377.2H201.6c-7.3,0-13.3-5.9-13.3-13.3V257.2c0-7.3,5.9-13.3,13.3-13.3h203.1c7.3,0,13.3,5.9,13.3,13.3
		v106.7C418,371.3,412,377.2,404.7,377.2z"/>
	<text transform="matrix(1 0 0 1 235.8933 290.7076)"><tspan x="0" y="0" class="st6 st7">make dimensions same as</tspan><tspan x="0" y="14.4" class="st6 st7">wood block dimensions</tspan></text>
	<path class="st5" d="M408.3,550.8H205.2c-7.3,0-13.3-5.9-13.3-13.3V430.8c0-7.3,5.9-13.3,13.3-13.3h203.1c7.3,0,13.3,5.9,13.3,13.3
		v106.7C421.6,544.8,415.6,550.8,408.3,550.8z"/>
</g>
</svg>
