<svg id="Layer_1" data-name="Layer 1" xmlns="http://www.w3.org/2000/svg" viewBox="0 0 612 792"><defs><style>.cls-1{fill:none;stroke:#00edff;stroke-miterlimit:10;}</style></defs><g id="Vinyl"><rect class="cls-1" x="174.7" y="230.9" width="32.5" height="39"/><rect class="cls-1" x="246.3" y="230.9" width="32.5" height="39"/><rect class="cls-1" x="317.9" y="230.9" width="32.5" height="39"/><rect class="cls-1" x="389.5" y="230.9" width="32.5" height="39"/><rect class="cls-1" x="461.2" y="230.9" width="32.5" height="39"/><rect class="cls-1" x="138.9" y="273.7" width="32.5" height="39"/><rect class="cls-1" x="210.5" y="273.7" width="32.5" height="39"/><rect class="cls-1" x="282.1" y="273.7" width="32.5" height="39"/><rect class="cls-1" x="353.7" y="273.7" width="32.5" height="39"/><rect class="cls-1" x="425.4" y="273.7" width="32.5" height="39"/><rect class="cls-1" x="174.7" y="316.6" width="32.5" height="39"/><rect class="cls-1" x="246.3" y="316.6" width="32.5" height="39"/><rect class="cls-1" x="317.9" y="316.6" width="32.5" height="39"/><rect class="cls-1" x="389.5" y="316.6" width="32.5" height="39"/><rect class="cls-1" x="461.2" y="316.6" width="32.5" height="39"/><rect class="cls-1" x="138.9" y="359.5" width="32.5" height="39"/><rect class="cls-1" x="210.5" y="359.5" width="32.5" height="39"/><rect class="cls-1" x="282.1" y="359.5" width="32.5" height="39"/><rect class="cls-1" x="353.7" y="359.5" width="32.5" height="39"/><rect class="cls-1" x="425.4" y="359.5" width="32.5" height="39"/><rect class="cls-1" x="174.7" y="402.3" width="32.5" height="39"/><rect class="cls-1" x="246.3" y="402.3" width="32.5" height="39"/><rect class="cls-1" x="317.9" y="402.3" width="32.5" height="39"/><rect class="cls-1" x="389.5" y="402.3" width="32.5" height="39"/><rect class="cls-1" x="461.2" y="402.3" width="32.5" height="39"/><rect class="cls-1" x="138.9" y="445.2" width="32.5" height="39"/><rect class="cls-1" x="210.5" y="445.2" width="32.5" height="39"/><rect class="cls-1" x="282.1" y="445.2" width="32.5" height="39"/><rect class="cls-1" x="353.7" y="445.2" width="32.5" height="39"/><rect class="cls-1" x="425.4" y="445.2" width="32.5" height="39"/><rect class="cls-1" x="174.7" y="488.1" width="32.5" height="39"/><rect class="cls-1" x="246.3" y="488.1" width="32.5" height="39"/><rect class="cls-1" x="317.9" y="488.1" width="32.5" height="39"/><rect class="cls-1" x="389.5" y="488.1" width="32.5" height="39"/><rect class="cls-1" x="461.2" y="488.1" width="32.5" height="39"/><rect class="cls-1" x="138.9" y="530.9" width="32.5" height="39"/><rect class="cls-1" x="210.5" y="530.9" width="32.5" height="39"/><rect class="cls-1" x="282.1" y="530.9" width="32.5" height="39"/><rect class="cls-1" x="353.7" y="530.9" width="32.5" height="39"/><rect class="cls-1" x="425.4" y="530.9" width="32.5" height="39"/><rect class="cls-1" x="174.7" y="573.8" width="32.5" height="39"/><rect class="cls-1" x="246.3" y="573.8" width="32.5" height="39"/><rect class="cls-1" x="317.9" y="573.8" width="32.5" height="39"/><rect class="cls-1" x="389.5" y="573.8" width="32.5" height="39"/><rect class="cls-1" x="461.2" y="573.8" width="32.5" height="39"/><rect class="cls-1" x="138.9" y="230.9" width="354.8" height="381.9"/></g><g id="Vinyl-2" data-name="Vinyl"><g id="N4ptMc.tif"><path class="cls-1" d="M156.29,675.16a27.06,27.06,0,0,1-3.7,2.1c-2.4.9-4.7.2-6.8-1.1a28.89,28.89,0,0,1-4.5-3.3,4.78,4.78,0,0,1-1.1-6.1,56.75,56.75,0,0,1,4.3-5.7,21.64,21.64,0,0,1-3.1-1.9c-2.7-2.1-3.2-4.6-1.5-7.6a17.34,17.34,0,0,1,5.1-6.3,7.25,7.25,0,0,1,9.2.7c.2.2.5.4.9.8.1-.8.2-1.4.3-2,.4-4.3,3.6-7.4,7.8-7.3a16.77,16.77,0,0,1,7.6,1.9,4.89,4.89,0,0,1,2.8,6,41.4,41.4,0,0,1-1.9,4.9c-.1.3-.4.6-.6,1.1h2.6a7.72,7.72,0,0,1,7.9,8.1,27.52,27.52,0,0,1-1.3,7.6,4.57,4.57,0,0,1-5.4,3.2c-.5-.1-1.1-.2-1.7-.3a8.13,8.13,0,0,1-1.8,6.4,15.33,15.33,0,0,1-8.5,5.1c-2.1.4-3.7-.7-4.8-2.6C157.39,677.66,156.89,676.26,156.29,675.16Zm1.6-21.4c-1-1-2-2-3.1-2.9a2.73,2.73,0,0,0-3.5-.1,6.43,6.43,0,0,0-1,9.4c-.4.2-.8.5-1.2.7-1.3.9-1.9,2.1-1.2,3.5a14.6,14.6,0,0,0,2.7,4.1,3.74,3.74,0,0,0,5.2,0c.3-.3.7-.6,1.1-1a17.35,17.35,0,0,0,0,2.3c.2,1.3.6,2.4,2,2.7a7.59,7.59,0,0,0,6.2-1.1c1.7-1.2,1.8-3,1.6-5a9.33,9.33,0,0,0,2.2.4c2,.2,3.1-.5,3.5-2.6a17,17,0,0,0,0-4.5,3.9,3.9,0,0,0-4-3.2h-1.6a7,7,0,0,0,.9-1.7c.9-1.9.6-3.3-1.2-4.3a13.16,13.16,0,0,0-3.8-1.3,3.56,3.56,0,0,0-3.8,2C158.39,652.16,158.19,653.06,157.89,653.76Z"/><path class="cls-1" d="M156,659.46c.1-2.1,1.6-3.3,4.1-3.2s3.8,1.2,3.8,3a4.35,4.35,0,0,1-4.1,4.5A4.12,4.12,0,0,1,156,659.46Z"/></g><g id="N4ptMc.tif-2" data-name="N4ptMc.tif"><path class="cls-1" d="M409.89,654.36c-.5.4-.9,1-1.4,1.4a3.61,3.61,0,0,1-3.2.3,12.23,12.23,0,0,1-2.4-1,2.23,2.23,0,0,1-1.2-2.6,19.45,19.45,0,0,1,1.3-3,9.83,9.83,0,0,1-1.6-.5,2.45,2.45,0,0,1-1.5-3.2,7.61,7.61,0,0,1,1.6-3.4,3.35,3.35,0,0,1,4.2-.7c.1.1.3.1.5.3,0-.4-.1-.6-.1-.9a3.47,3.47,0,0,1,2.7-4.1,8.73,8.73,0,0,1,3.6,0,2.29,2.29,0,0,1,1.9,2.4,19.67,19.67,0,0,1-.3,2.4c0,.2-.1.3-.2.6l1.2-.3a3.48,3.48,0,0,1,4.4,2.7,13.82,13.82,0,0,1,.3,3.5,2,2,0,0,1-2,2,2.49,2.49,0,0,0-.8.1,3.72,3.72,0,0,1-.1,3.1,7.08,7.08,0,0,1-3.2,3.2,2,2,0,0,1-2.4-.6A14.71,14.71,0,0,0,409.89,654.36Zm-1.6-9.8c-.6-.3-1.1-.7-1.7-1a1.35,1.35,0,0,0-1.6.3,3,3,0,0,0,.6,4.3l-.4.4a1.26,1.26,0,0,0-.2,1.7,6.12,6.12,0,0,0,1.7,1.5,1.66,1.66,0,0,0,2.3-.6,6.13,6.13,0,0,1,.4-.6c.1.4.2.7.3,1,.2.6.5,1,1.2,1a3.26,3.26,0,0,0,2.7-1.2,2.31,2.31,0,0,0,.2-2.4h1a1.32,1.32,0,0,0,1.3-1.5,6.53,6.53,0,0,0-.5-2,1.88,1.88,0,0,0-2.1-1c-.2.1-.5.1-.7.2a3.09,3.09,0,0,0,.2-.8,1.36,1.36,0,0,0-1-1.8,5.84,5.84,0,0,0-1.9-.2,1.5,1.5,0,0,0-1.5,1.3A3.12,3.12,0,0,0,408.29,644.56Z"/><path class="cls-1" d="M408,647.36c-.2-.9.3-1.6,1.5-1.9s1.8.1,2,.9a2,2,0,0,1-1.3,2.5A2,2,0,0,1,408,647.36Z"/></g><g id="N4ptMc.tif-3" data-name="N4ptMc.tif"><path class="cls-1" d="M350.89,742c-.9,1.1-1.7,2.3-2.7,3.3-1.9,1.7-4.4,1.8-6.8,1.3a24.88,24.88,0,0,1-5.3-1.6,4.76,4.76,0,0,1-3.1-5.4,59,59,0,0,1,2.1-6.8,32.12,32.12,0,0,1-3.6-.7c-3.2-1-4.6-3.2-4.1-6.6a17.64,17.64,0,0,1,2.6-7.7,7.38,7.38,0,0,1,8.9-2.6,4.79,4.79,0,0,1,1.1.5c-.2-.8-.3-1.4-.5-2a7.78,7.78,0,0,1,4.8-9.6,17.11,17.11,0,0,1,7.8-.8,4.88,4.88,0,0,1,4.7,4.6,47.31,47.31,0,0,1-.1,5.3,6,6,0,0,1-.2,1.2c.9-.3,1.7-.6,2.5-.9a7.71,7.71,0,0,1,10.2,4.8,32,32,0,0,1,1.5,7.6,4.6,4.6,0,0,1-3.9,4.9c-.5.1-1,.2-1.7.4a7.89,7.89,0,0,1,.5,6.7,15.3,15.3,0,0,1-6.2,7.7c-1.8,1.1-3.7.6-5.4-.7A29.3,29.3,0,0,1,350.89,742Zm-5.9-20.6c-1.3-.6-2.6-1.2-3.9-1.7a2.64,2.64,0,0,0-3.3,1.1,6.42,6.42,0,0,0,2.3,9.2c-.3.4-.6.7-.9,1.1-.9,1.3-1.1,2.6.1,3.8a15.22,15.22,0,0,0,3.9,2.9,3.76,3.76,0,0,0,4.9-1.8c.2-.4.4-.8.7-1.3a17.69,17.69,0,0,0,.8,2.2c.6,1.1,1.4,2,2.8,1.8a7.7,7.7,0,0,0,5.5-3.2c1.1-1.7.7-3.5-.2-5.2l2.2-.3c2-.5,2.8-1.5,2.4-3.6a13.48,13.48,0,0,0-1.6-4.2,4,4,0,0,0-4.9-1.6l-1.5.6c.1-.7.2-1.3.3-1.9.2-2-.6-3.3-2.6-3.6a14.18,14.18,0,0,0-4.1.1,3.61,3.61,0,0,0-2.9,3.1A20.85,20.85,0,0,1,345,721.36Z"/><path class="cls-1" d="M345.19,727.36c-.7-2,.3-3.6,2.8-4.5,2.2-.8,4-.2,4.6,1.5.8,2.3-.2,4.9-2.3,5.6A4,4,0,0,1,345.19,727.36Z"/></g><g id="N4ptMc.tif-4" data-name="N4ptMc.tif"><path class="cls-1" d="M438.82,717.15a27.06,27.06,0,0,1-3.7,2.1c-2.4.9-4.7.2-6.8-1.1a28.89,28.89,0,0,1-4.5-3.3,4.78,4.78,0,0,1-1.1-6.1,56.75,56.75,0,0,1,4.3-5.7,21.64,21.64,0,0,1-3.1-1.9c-2.7-2.1-3.2-4.6-1.5-7.6a17.34,17.34,0,0,1,5.1-6.3,7.25,7.25,0,0,1,9.2.7c.2.2.5.4.9.8.1-.8.2-1.4.3-2,.4-4.3,3.6-7.4,7.8-7.3a16.77,16.77,0,0,1,7.6,1.9,4.89,4.89,0,0,1,2.8,6,41.4,41.4,0,0,1-1.9,4.9c-.1.3-.4.6-.6,1.1h2.6a7.72,7.72,0,0,1,7.9,8.1,27.52,27.52,0,0,1-1.3,7.6,4.57,4.57,0,0,1-5.4,3.2c-.5-.1-1.1-.2-1.7-.3a8.13,8.13,0,0,1-1.8,6.4,15.33,15.33,0,0,1-8.5,5.1c-2.1.4-3.7-.7-4.8-2.6A18.06,18.06,0,0,1,438.82,717.15Zm1.5-21.3c-1-1-2-2-3.1-2.9a2.73,2.73,0,0,0-3.5-.1,6.43,6.43,0,0,0-1,9.4c-.4.2-.8.5-1.2.7-1.3.9-1.9,2.1-1.2,3.5a14.6,14.6,0,0,0,2.7,4.1,3.74,3.74,0,0,0,5.2,0c.3-.3.7-.6,1.1-1a17.35,17.35,0,0,0,0,2.3c.2,1.3.6,2.4,2,2.7a7.59,7.59,0,0,0,6.2-1.1c1.7-1.2,1.8-3,1.6-5a9.33,9.33,0,0,0,2.2.4c2,.2,3.1-.5,3.5-2.6a17,17,0,0,0,0-4.5,3.9,3.9,0,0,0-4-3.2h-1.6a7,7,0,0,0,.9-1.7c.9-1.9.6-3.3-1.2-4.3a13.16,13.16,0,0,0-3.8-1.3,3.56,3.56,0,0,0-3.8,2A22.43,22.43,0,0,0,440.32,695.85Z"/><path class="cls-1" d="M438.42,701.55c.1-2.1,1.6-3.3,4.1-3.2s3.8,1.2,3.8,3a4.35,4.35,0,0,1-4.1,4.5A4.25,4.25,0,0,1,438.42,701.55Z"/></g><g id="N4ptMc.tif-5" data-name="N4ptMc.tif"><path class="cls-1" d="M307.52,670.05a36.55,36.55,0,0,1-2.4,3.1c-1.7,1.6-4,1.7-6.2,1.4a27.2,27.2,0,0,1-4.9-1.3,4.42,4.42,0,0,1-3-4.9,49.05,49.05,0,0,1,1.7-6.3,24.2,24.2,0,0,1-3.3-.5c-3-.9-4.3-2.8-3.9-6a16,16,0,0,1,2.2-7.1,6.76,6.76,0,0,1,8.1-2.6c.3.1.6.2,1.1.4-.2-.7-.3-1.3-.5-1.8a7.15,7.15,0,0,1,4.1-8.9,15.67,15.67,0,0,1,7.1-.9,4.39,4.39,0,0,1,4.4,4.1,38.44,38.44,0,0,1,0,4.8,7.38,7.38,0,0,1-.2,1.2c.8-.3,1.5-.6,2.2-.9a7.11,7.11,0,0,1,9.5,4.2A23.7,23.7,0,0,1,325,655c.3,2.3-1.3,4-3.5,4.6a12.44,12.44,0,0,0-1.6.4,7.29,7.29,0,0,1,.6,6.1,14.18,14.18,0,0,1-5.5,7.2c-1.6,1.1-3.4.7-5-.5C309.22,672,308.32,671,307.52,670.05Zm-5.9-18.7c-1.2-.5-2.4-1-3.6-1.4a2.48,2.48,0,0,0-3,1.1,5.92,5.92,0,0,0,2.3,8.4c-.3.3-.5.7-.8,1-.8,1.2-.9,2.4.2,3.4a15.49,15.49,0,0,0,3.7,2.6,3.48,3.48,0,0,0,4.5-1.8,13.39,13.39,0,0,0,.6-1.2,20.75,20.75,0,0,0,.8,2c.6,1,1.4,1.8,2.6,1.6a6.92,6.92,0,0,0,4.9-3c1-1.6.5-3.2-.3-4.8a11.8,11.8,0,0,0,2-.4c1.8-.5,2.5-1.5,2.1-3.4a12.57,12.57,0,0,0-1.5-3.8,3.52,3.52,0,0,0-4.5-1.3c-.4.2-.9.4-1.4.6a12.77,12.77,0,0,0,.2-1.7c.1-1.9-.6-3-2.5-3.2a11.53,11.53,0,0,0-3.7.2,3.09,3.09,0,0,0-2.5,2.9A8.13,8.13,0,0,0,301.62,651.35Z"/><path class="cls-1" d="M301.82,656.85c-.7-1.8.2-3.3,2.4-4.2,2-.8,3.7-.3,4.3,1.2a4,4,0,0,1-2,5.2A3.58,3.58,0,0,1,301.82,656.85Z"/></g></g></svg>