<svg xmlns="http://www.w3.org/2000/svg" viewBox="0 0 434.12 878.6"><defs><style>.cls-1,.cls-3,.cls-4{fill:none;}.cls-1{stroke:#000;stroke-width:0.01px;}.cls-1,.cls-2,.cls-3,.cls-4{stroke-miterlimit:10;}.cls-2{fill:#fff;}.cls-2,.cls-3{stroke:red;}.cls-2,.cls-3,.cls-4{stroke-width:0.01px;}.cls-4{stroke:blue;}</style></defs><g id="CUT_acrylic" data-name="CUT acrylic"><path class="cls-1" d="M402,308.39l0,251.78s.56,3.85-2.42,4.51l-11.25-11.25s-5.91-2.94-10.15,1.41c-4.29,4.18-1.35,10.26-1.35,10.26l11.44,11.44c-1.2,2.72-4.93,2.05-4.93,2.05H132.81s-4.25.69-4.77-2.56l11.2-11.19s2.93-5.91-1.41-10.15c-4.18-4.29-10.26-1.36-10.26-1.36L116.1,564.62c-2.5-.78-2.06-4.78-2.06-4.78V309.31s-.53-4.26,2.42-5l11.45,11.45s5.91,2.94,10.15-1.41c4.28-4.18,1.35-10.26,1.35-10.26L128,292.62c1.21-2.72,4.93-2.05,4.93-2.05H383.46s4.25-.69,4.77,2.56L377,304.32s-2.94,5.91,1.41,10.15c4.18,4.29,10.26,1.36,10.26,1.36l11.44-11.45c2.55.72,1.87,4,1.87,4" transform="translate(-114 -290.49)"/><line class="cls-1" x1="432" y1="320.8" x2="432" y2="580"/><polyline class="cls-1" points="432 320.8 216 320.8 216 580 432 580"/><polyline class="cls-1" points="216.23 320.8 0.23 320.8 0.23 580 216.23 580"/><line class="cls-1" x1="432" y1="619.4" x2="432" y2="878.6"/><polyline class="cls-1" points="432 619.4 216 619.4 216 878.6 432 878.6"/><polyline class="cls-1" points="216.23 619.4 0.23 619.4 0.23 878.6 216.23 878.6"/></g><g id="Cut"><circle class="cls-2" cx="144.05" cy="72.17" r="9.79"/><circle class="cls-2" cx="205.66" cy="202.03" r="9.79"/><circle class="cls-2" cx="82.45" cy="202.03" r="9.79"/><circle class="cls-3" cx="324" cy="399.18" r="32.22"/><g id="Speaker"><path class="cls-3" d="M447,1028.88a24.3,24.3,0,0,1-2.74-4.41l.4-.29,2.27,3c.63-.89,1.21-1.74,1.84-2.55.11-.15.4-.16.61-.23,0,.25.17.57.07.73C448.73,1026.33,447.94,1027.49,447,1028.88Z" transform="translate(-114 -290.49)"/><path class="cls-3" d="M439.37,1024.82l-2.85-4.33.52-.39,2.3,3c.61-.86,1.19-1.71,1.82-2.52.12-.16.47-.13.71-.18,0,.18.15.42.08.53C441.16,1022.15,440.34,1023.37,439.37,1024.82Z" transform="translate(-114 -290.49)"/><path class="cls-3" d="M438.69,1033.13l2.19-3,.41.24a2.06,2.06,0,0,1-.1.72c-.6,1-1.2,2-1.88,3-.14.2-.81.34-.87.25a25.33,25.33,0,0,1-2.38-3.91C437.47,1030.85,437.72,1032.38,438.69,1033.13Z" transform="translate(-114 -290.49)"/><path class="cls-3" d="M439.13,1013l-2.86-4.32.41-.31c1.11.63,1.45,2,2.41,2.88.55-.78,1.07-1.59,1.66-2.32.17-.22.57-.26.86-.38a2.25,2.25,0,0,1-.14.84C440.77,1010.5,440,1011.59,439.13,1013Z" transform="translate(-114 -290.49)"/><path class="cls-3" d="M447.65,1018.83l-2.83-4.28.41-.36c.4.44.82.86,1.19,1.32s.75,1,1.17,1.62c.63-.89,1.19-1.72,1.8-2.51.13-.17.46-.19.71-.28,0,.22.16.49.08.63C449.41,1016.19,448.61,1017.38,447.65,1018.83Z" transform="translate(-114 -290.49)"/><path class="cls-3" d="M455.21,1038.29l-2.06,4c-1.68-.81-3-2.35-2.67-3.56l1.73,2.63c1.38-1.17,1.33-2.8,2.6-3.29Z" transform="translate(-114 -290.49)"/><path class="cls-3" d="M424.09,1007.78a6,6,0,0,1-1.56,4.08c-1.65-.82-2.62-2.73-1.91-4,.24.57.42,1,.65,1.48s.54.87,1,1.58l1.37-3.35Z" transform="translate(-114 -290.49)"/><path class="cls-3" d="M422,1032.85c.36-1.1.6-1.91.92-2.69.09-.23.4-.37.61-.56.08.25.28.54.21.73-.42,1.19-.91,2.36-1.38,3.56a3.71,3.71,0,0,1-2.21-4.22c.32.68.51,1.17.77,1.61S421.49,1032.17,422,1032.85Z" transform="translate(-114 -290.49)"/><path class="cls-3" d="M432.16,1013.41a4,4,0,0,1-1.17,4.26c-1.56-.75-2.54-2.66-1.89-3.89l1.65,3.08Z" transform="translate(-114 -290.49)"/><path class="cls-3" d="M428.41,1023.84l1.72,3.1,1.33-3.41h.31c.08.29.28.63.2.86a27,27,0,0,1-1.16,2.9c-.26.56-.64.59-1.14.15A3.5,3.5,0,0,1,428.41,1023.84Z" transform="translate(-114 -290.49)"/><path class="cls-3" d="M420.75,1019.64l1.75,3.22,1.46-3.7a2.43,2.43,0,0,1-.08,2.71,11.39,11.39,0,0,1-1.29,1.79,14.62,14.62,0,0,1-1.52-1.64A2.21,2.21,0,0,1,420.75,1019.64Z" transform="translate(-114 -290.49)"/><path class="cls-3" d="M424.13,1038l2.26,3.09c.54-.71,1-1.33,1.48-1.91a2.4,2.4,0,0,1,.74-.41c0,.28,0,.56,0,.84a.15.15,0,0,1-.06.1c-2.27,3.21-2.06,3-4.1.07a12.23,12.23,0,0,1-.72-1.45Z" transform="translate(-114 -290.49)"/><path class="cls-3" d="M439.77,1042l1.65-3.17c.66,1-.12,2.84-1.54,4a4.08,4.08,0,0,1-2-4.11Z" transform="translate(-114 -290.49)"/><path class="cls-3" d="M444.77,1005.08a3.65,3.65,0,0,1-2.12-3.77l.85,1.28c.24.36.47.72.8,1.24.42-1,.73-1.74,1.12-2.47.11-.21.46-.29.7-.43,0,.24.18.53.1.73C445.77,1002.81,445.26,1003.94,444.77,1005.08Z" transform="translate(-114 -290.49)"/><path class="cls-3" d="M454.76,1032.55c.55-.79,1-1.46,1.47-2.09.11-.14.41-.13.62-.18,0,.21.15.47.07.62-.5.95-1,1.87-1.56,2.8a3.5,3.5,0,0,1-2.49-3.77c.37.57.61,1,.89,1.36S454.4,1032.1,454.76,1032.55Z" transform="translate(-114 -290.49)"/><path class="cls-3" d="M453.21,1008l1.92,2.62,1.8-2.47.39.15a1.81,1.81,0,0,1,0,.7c-.36.8-.76,1.58-1.19,2.35a.85.85,0,0,1-.61.41C454.47,1011.65,453.05,1009.49,453.21,1008Z" transform="translate(-114 -290.49)"/><path class="cls-3" d="M457.68,1020.33c-.48,1-.93,2.07-1.45,3.08-.06.12-.55.17-.72.07a4.59,4.59,0,0,1-2.26-3.16l.3-.26,1.84,2.35,1.86-2.41Z" transform="translate(-114 -290.49)"/><path class="cls-3" d="M432.24,1001.92l1.59,2.6c.33-.79.56-1.44.86-2,.12-.24.43-.37.65-.55.05.28.21.59.14.83a9,9,0,0,1-.74,1.91,1,1,0,0,1-1.76.12,22.12,22.12,0,0,1-1.29-2.52Z" transform="translate(-114 -290.49)"/><path class="cls-3" d="M425.5,994.89c.52.44,1.05.86,1.55,1.32,1,.87,1.17.85,1.78-.26.22-.38.41-.78.79-1.49.19.51.41.84.34.95-.54.8-1.12,1.56-1.73,2.3a.65.65,0,0,1-.62,0c-.89-.74-1.73-1.53-2.59-2.29Z" transform="translate(-114 -290.49)"/><path class="cls-3" d="M452.67,994.83c.46.75,0,1.36-.5,1.83a1.68,1.68,0,0,1-2.32.11,1.83,1.83,0,0,1-.61-2.27c.58.65,1,1.56,1.59,1.67S452,995.38,452.67,994.83Z" transform="translate(-114 -290.49)"/><path class="cls-3" d="M440.47,996.31a18.81,18.81,0,0,1-2.37-2.93l.43-.33,1.91,2.17A13.46,13.46,0,0,1,441.5,994c.13-.12.42-.06.63-.08,0,.21.06.49-.05.62C441.6,995.13,441.07,995.66,440.47,996.31Z" transform="translate(-114 -290.49)"/><path class="cls-3" d="M426.77,1001.31c.05.28.21.6.14.84a9,9,0,0,1-.74,1.91,1,1,0,0,1-1.76.12,23,23,0,0,1-1.29-2.52l.54-.36,1.6,2.61c.32-.79.55-1.44.86-2,.12-.23.43-.37.65-.55" transform="translate(-114 -290.49)"/><path class="cls-3" d="M454.61,1001.27a2,2,0,0,1,.14.84A9,9,0,0,1,454,1004a1,1,0,0,1-1.76.12,23,23,0,0,1-1.29-2.52l.55-.36,1.59,2.61c.33-.79.56-1.44.87-2,.11-.23.42-.37.64-.55" transform="translate(-114 -290.49)"/><path class="cls-3" d="M431.14,1032.71c.05.28.21.59.14.84a9.44,9.44,0,0,1-.74,1.91,1,1,0,0,1-1.76.11,21.37,21.37,0,0,1-1.3-2.52l.55-.35,1.6,2.61c.32-.8.55-1.44.86-2,.12-.23.43-.37.65-.55" transform="translate(-114 -290.49)"/><path class="cls-3" d="M448.65,1033.71c.06.28.22.59.14.83a8.5,8.5,0,0,1-.74,1.91,1,1,0,0,1-1.75.12,22.18,22.18,0,0,1-1.3-2.52l.55-.35,1.59,2.6c.33-.79.56-1.44.87-2,.12-.24.42-.37.64-.55" transform="translate(-114 -290.49)"/><path class="cls-3" d="M434.13,1044.78c.06.28.22.59.15.84a9.47,9.47,0,0,1-.75,1.91,1,1,0,0,1-1.75.11,21.37,21.37,0,0,1-1.3-2.52l.55-.35,1.59,2.61c.33-.8.56-1.44.87-2.05.12-.23.42-.37.64-.55" transform="translate(-114 -290.49)"/><path class="cls-3" d="M448,1044.42c.05.28.21.59.14.84a9.22,9.22,0,0,1-.74,1.91,1,1,0,0,1-1.76.12,22.26,22.26,0,0,1-1.29-2.53l.54-.35,1.6,2.61c.33-.79.55-1.44.86-2,.12-.23.43-.37.65-.55" transform="translate(-114 -290.49)"/></g></g><g id="Etch"><g id="EpJCj1.tif"><path class="cls-4" d="M481.53,742.38m-92.28,22.18-7.63,7-.48-.48.83-2.71a17.91,17.91,0,0,0-3.34,2.42,29.08,29.08,0,0,1-3.47,1.9l-.42-.59.5-3-7.65,6.5-.39-.43.94-2.91a36.44,36.44,0,0,0-4.9,4c-.56.49-1.66,1-2.16.77-1.33-.63-1.81.17-2.49.93-1.15,1.29-2.34,2.54-3.88,4.18l-.58-3.18-6.68,8.75L346.29,785l-5,4,.85,1,45.73-1.15C388,780.85,391.21,773.21,389.25,764.56Zm138.26,53c-3.27,1.23-4.55,3.73-5.59,6.34A118.09,118.09,0,0,0,515.29,850c-.47,3-1,6-1.5,9.36,2.94-.86,5.32-.92,7.14,2.38.73-1.72,1.47-2.81,1.66-4,1.19-7.7,2.38-15.41,3.34-23.14C526.63,829.07,527,823.45,527.51,817.52Zm2.3.44a1.29,1.29,0,0,0-.15.3q-2.34,19.41-4.68,38.84c-.17,1.41.74,1.54,1.69,1.65a6,6,0,0,0,6.36-5.14c.08-.79.16-1.58.27-2.37a95.62,95.62,0,0,0-.56-30.34C532.4,819.16,531.75,818,529.81,818ZM485.18,867c2-2.09,4.93-2.08,5-5.48.15-10.24.6-20.48.87-30.72.09-3.25,0-6.51,0-10.41a11.46,11.46,0,0,0-1.5,2.3c-1.3,4.4-3.16,8.76-3.63,13.25-.9,8.6-1,17.28-1.39,25.92A33,33,0,0,0,485.18,867Zm-105.85-1.28.62.36,20.59-14-.24-.65a113.44,113.44,0,0,0-22.17,1.92c-.62,1.82-1.35,3.78-1.94,5.77-.12.42.14,1.35.4,1.41C379.32,861.3,379.34,863.5,379.33,865.76ZM500,865.21c3.45-14.51,1-28.58-2.12-42.63a1,1,0,0,0-.38.81c-.27,12.7-.47,25.41-.87,38.1C496.5,864,497.39,865,500,865.21ZM429,748.57c-.68,2.81,6,10.21-1.95,8.13-2.14-.28-4.3-.45-6.64-.7l1.2,3.22-9.78,1-.14.5,5.41,2.55V764c-2.77.35-5.54.85-8.33,1s-5.76,0-7.46,0c3,2.43,7,5.46,10.83,8.7a26,26,0,0,1,7.84,12c1.55,4.72,3.37,9.39,4.34,14.22.57,2.83-.13,6-.59,8.93-.16,1-1.35,1.81-2.07,2.71l-1.68-3.1c-1.67.26-1.92-1.13-1.87-2.84s0-3.4,0-5.58l-2.19,2.66h-.65c-.3-2.39-.61-4.79-.91-7.18l-.45-.27-1.58,2.54-.87-.29c-.27-2.65-.55-5.3-.82-8l-.55,0q-1.17,1.88-2.32,3.75l-.78,0c-.26-2.43-.53-4.85-.84-7.73-.87,1.29-1.51,2.25-2.38,3.56-.59-3.52-1.11-6.66-1.74-10.43-1.12,1.73-1.82,2.89-2.62,4a5.32,5.32,0,0,1-1.3.95,5.32,5.32,0,0,1-.87-1.57c-.63-4.05-1.14-8.13-1.78-12.19a14.52,14.52,0,0,0-.92-2.64l-.62.13c-.15,3.19-.33,6.38-.44,9.57-.13,3.54-.17,7.08-.31,10.61-.05,1.27.37,1.84,1.7,1.87,2.09,0,4.19.18,6.27.38,1.12.11,2.21.42,3.32.64l-.05.59H392.71c-2.27,11-4.51,21.83-6.79,32.89,3.15-.14,6-.2,8.88-.42q38.07-2.81,76.25-2c4.91.11,9.83.14,14.73.33a2.84,2.84,0,0,0,2.86-1.42,19.47,19.47,0,0,1,1.64-2.29c2.63-3.16,6.78-3.29,8.67.26s4.71,4,8,3.91c3.68-.06,7.36-.14,11-.41a4.83,4.83,0,0,0,2.57-1.44,17.06,17.06,0,0,0,1.88-2.65c2.56-3.6,5.81-4.3,9.57-2a8.25,8.25,0,0,1,4.29,7.33q0,10.71-.42,21.42c-.16,4.6-.59,9.19-.91,13.88,2.73.6,5.6-1.35,8,1.46-.88,0-1.44,0-2,0a9.24,9.24,0,0,0-3.14.22,3.78,3.78,0,0,1-4.4-.62,2.08,2.08,0,0,0-3.08,0,3.94,3.94,0,0,1-4,.8,4.2,4.2,0,0,0-2.56.49,9.79,9.79,0,0,0-2.11,1.5c-1.39,1.12-2.39.88-3.29-.69-1-1.73-2.37-2-3.86-.65-1.67,1.48-3.22,3.09-4.91,4.73-1.11-.56-1.37-1.46-.38-2.3,1.93-1.65,2.34-3.84,2.78-6.15,1.82-9.42,3.73-18.81,5.61-28.21.29-1.42.58-2.83.91-4.49-5.41-1.61-10.8.14-16.5-.38a29.35,29.35,0,0,0,.42,4.56c2.84,11.23,2,22.51.58,33.81a29.16,29.16,0,0,1-.79,3.12l3.39-1.15c-.73,2.43-4.28,3.92-6.13,3.1a10.89,10.89,0,0,0-4.33-1c-1.62,0-3.11.56-4.72-.57-.48-.33-2.43.71-3.11,1.58a4.15,4.15,0,0,1-4.21,1.79c-1.38-.11-2.94.83-4.24,1.6a9.64,9.64,0,0,0-2.16,2.4c-1,1.28-2.11,1.2-3.8-.1l9.83-7.13a102.57,102.57,0,0,1,3.44-42.09c-33.9-2.1-67.59-1.81-101.64,2.4-.69,3-1.46,6.38-2.42,10.54,3.21-.63,5.85-1.14,8.48-1.69.76-.16,1.57-.76,2.25-.62,4.87,1,10,.79,14.52,3.4,2.67,1.54,3.69,1.37,6.09-.41,2.56-1.9,5.24-3.64,7.83-5.5a24.54,24.54,0,0,0,2.44-2.12c1.27-1.22,1.84-1.37,3.36-.9-.53,1.61-1,3.23-1.61,4.83a1.9,1.9,0,0,1-.64.84c-1.3.93-2.77,1.6-2.24,3.79.14.6-1.11,1.53-1.53,2.66l9.46-6c1.88,0,3.5.3,4.95-.06,4-1,7.87-2.26,12.24-3.54a16,16,0,0,1-1.27,1.89c-1,1-2.75,1.54-2,3.59.07.21-.6.73-1,1-1.19,1-2.41,1.88-4.05,3.16,10.21-1.51,19.77-1.9,29.31-.36l.13,1.11c-2,.44-3.93,1-5.92,1.29a7.43,7.43,0,0,0-4.1,1.83c-1.55,1.33-4.05,1.66-6.2,2.18a35.66,35.66,0,0,1-10.93.56c-5-.33-10.08.55-15.14.78-3.08.14-6.18,0-9.84,0a7.22,7.22,0,0,0,1.77.66c4.54,0,8.16,2.19,11.67,4.66,3.32,2.35,6.62,8.65,3.93,13.4a8.52,8.52,0,0,1-1.75,1.62c-.44-.59-1.11-1.1-1.28-1.76a9.36,9.36,0,0,0-4.41-5.89c-1.92-1.15-3.68-2.55-5.53-3.82-1.2-.83-2.25-2-4.06-1.23-.39.17-1.29-.66-1.87-1.13a38.7,38.7,0,0,0-4.12-3.4,5.71,5.71,0,0,0-6.69.52c-8.34,6.09-16.66,12.22-25.15,18.1-1.86,1.29-4.37,1.68-6.61,2.38-2.07.65-4.17,1.15-6.26,1.71l-.17.83-3.05-3.28c-.47-.11-1.4-.4-2.36-.57-.68-.11-1.55-.34-2,0-1.93,1.15-3,.54-3.54-1.67l-5.35,2.45a7.88,7.88,0,0,1-.66-2.14c.08-5.12.22-10.24.37-15.36a3.59,3.59,0,0,1,.28-1.69,6.89,6.89,0,0,1,1.46-1.32c.42.5,1.14,1,1.22,1.5.4,2.72.62,5.45.92,8.18a9,9,0,0,0,.62,2.61c2.21-5.47,2.94-11.55,7.29-16.54l.45,3.52c3.07-.78,6.11-1.49,9.09-2.38.59-.17,1.06-1,1.4-1.64a22.63,22.63,0,0,0,1.07-2.86h-14l-.31-.83a10,10,0,0,1,2.18-1.5c3.47-1.2,7-2.37,10.5-3.36,3.22-.91,5.3-2.57,5.71-6.14a54.37,54.37,0,0,1,1.72-6.81c-4.56,0-8.87-.17-13.17,0-10,.46-19.9,1.14-29.86,1.61a3.12,3.12,0,0,1-2.47-1.33c-.44-.94,1.55-2.54,2.87-2.18,4.45,1.2,8.91.44,13.37.29q14-.45,27.94-.86c1.26,0,2.09-.2,2.45-1.71,2-8.42,4.17-16.8,6.2-25.22.45-1.88.57-3.83.91-6.33l-50.29,2.23L336.8,790c3.54-1.28,3.48-4.7,4.5-7.51a6.81,6.81,0,0,1,1.06-2.22c1.93-2.14,4-4.18,6.13-6.43l-5.87-.4-.29-.79,10.54-5.94-2.76-2.47,11.25-2L358,759.27c4.13-1.82,8.16-.78,12.34-.73l-1.27-2.45a16.81,16.81,0,0,1,3.51-.33c3.72.42,7.43,1,11.7,1.6a6.59,6.59,0,0,0-4.57-2.67,17.65,17.65,0,0,1-2.89-1.13l.18-.81-5.17.82-.67-1.91-5,1.31-.35-.42,2.35-3.18c-3.81.43-6.6,2.27-9.37,4.58-.42-2.94,2.33-3.9,3.23-5.85l-.35-.58-10.35,4.79-.51-.57,4.17-5.13-.39-.57-10.43,6.32-.46-.49,1.83-3.48-.3-.48-8.1,4.39v-3.55l-9.84,5-.51-.81c2.25-5.18,7.47-7.64,11.21-11.58l-3.24-.65c1-2.16,2.65-3.09,8.65-4.93l-.8-2.6c2.13.26,3.93.39,5.69.74,1.48.3,2.61.54,3.76-1,.54-.72,2.37-.9,3.49-.68,2.73.55,5.4,1.46,8.18,2.26l.93-2.32a29.66,29.66,0,0,1,4.89,2.41c1.43,1.06,2.61,1.84,4,.54,2.1,2.21,4,4.34,6.08,6.33.49.47,1.46.45,2.2.66-.15-.89-.25-1.79-.46-2.66s-.48-1.55-.91-2.87l-4.57-1.47,1.51-2.47-7.08-.83,1.64-2.77-7.49,1.85-.36-.45,2.19-2.57-.3-.62c-1.35.61-2.66,1.29-4.05,1.78a13.49,13.49,0,0,1-3.11.61,28.87,28.87,0,0,0-2.95.11c-2.44.53-4.85,1.22-7.28,1.84l-.62-.59,2.54-4.41-3.1-.84,5.36-4.48-.73-1.43c1.82-2.27,4.56-1.77,6.89-2.31a.92.92,0,0,0,.09-.27c.11-1.35.21-2.7.32-4,1.22.52,2.46,1,3.65,1.6a29.27,29.27,0,0,1,2.47,1.58c.3-.58.56-1,.73-1.43,1-2.66,1.52-2.86,3.83-1.3,1.32.88,2.62,1.79,4.08,2.8l1.88-4.47,6.26,8.41,2.73-3.32,3.24,7,.65-.15.21-3.61h3c.16-2.85.23-5.58.52-8.29a8.63,8.63,0,0,1,1.18-2.48,16.66,16.66,0,0,0,.85-1.88c.54-1.58,1-3.18,1.54-4.77l.88.1,1.36,9.86,3.28-2.66c1.58,3.59-1.43,6.2-1.33,9.37,2.11.21,4.05.28,5.14-2.15a12.32,12.32,0,0,1,1.9-2.62c.31-.38.88-1,1.14-.9,3,.93,5.12-1.6,7.8-1.74a12.19,12.19,0,0,1,1.24.06v3.08c3.08-.23,6-1.09,9,.82l-2.17,2.37c1.46.57,2.8,1,4.09,1.62s2.42,1.2,3.93,2l-2.69,2.23-12.09,4,.25,3.87c-2,.92-4.06-1.36-5.72.5L407,738.24l.09.63,5.6,2.71a25.26,25.26,0,0,0-4.32,1.5c-2.13,1.26.36,2.34.4,3.25l-3.36,2c3,.67,4.79-1.11,6.85-2.35,1.38-.83,2.83-1.88,3.71.41,2.46-1.09,4.73-2.18,7.06-3.11,1.57-.63,3.09-.67,3.59,1.55L433,743c0-.27-4.06,5.84-4,5.58m65.78,70.28-1,.2a29.8,29.8,0,0,0-.55,3.34c-.36,6.63-.77,13.25-1,19.88s-.13,13.26-.17,19.9c0,1.37.16,2.6,2.42,2.52,0-2.8-.06-5.51,0-8.23.32-11.46.71-22.91,1-34.38A12.77,12.77,0,0,0,494.74,818.85ZM366.27,767.71l.85.82-3,4.3.57.43c2.1-2.42,4.4-4.7,6.27-7.3s4.29-2.76,7.14-2.69L374,766.41l-.47-1.85-4.27,3.51.85,1c1.33-.23,2.92-.08,3.94-.77,2.32-1.54,5.44-1.77,7.08-4.5.37-.61,1.83-.58,2.8-.8a13.43,13.43,0,0,1,1.54-.17l0-.74c-2.38-.2-4.82-.84-7.11-.5a70.86,70.86,0,0,0-10.24,2.7c-1.79.56-3.82,1.06-4.09,3.55,0,.4-.56.86-1,1.11-1.76,1-3.14,2.44-5.22,3.3-2.69,1.12-4.5,4.38-6.69,6.72l1.06,1,5.84-7.2.31,2.9Zm3.44,85.37c-2.36,0-4.32-.11-6.25.06-.72.07-1.91.72-2,1.23-.4,3-.52,6-.74,9l.58.11,3.66-5.86,1.38,2.2Zm26.37-8.47c-.13-1.27-.83-1.88-2.28-1.78-3.95.28-7.91.43-11.85.77-.56,0-1.2.75-1.51,1.31-.19.35.08,1.41.3,1.46a8.92,8.92,0,0,0,3.08.22c.81-.11,1.53-.87,2.33-1C389.44,845.21,392.74,844.94,396.08,844.61Zm30.83-90.82-.13.49a8.9,8.9,0,0,1-2.55-.19c-2.25-.85-5.49,1.11-6.84-2.38-.06-.15-.52-.18-.8-.22a4.11,4.11,0,0,0-4.4,2.73l17.18,1.11c-1.8-3.23-2.74-3.75-4.47-2.58Zm-14.45,10,.18-.78c-2.75-.6-4-3.61-7.68-3.41-4.61.25-6.66.13-7.66,3.26,2.27-2,4.36-2.85,7-1.45a28.63,28.63,0,0,0,5.47,1.85C410.62,763.53,411.55,763.62,412.46,763.8ZM407.17,726l-1-.6c-.67,1-1.44,2-2,3.07-1,1.8-1.75,3.69-2.7,5.5-1.1,2.1-2.25,4.18-3.47,6.21a10.43,10.43,0,0,1-1.57,1.69l1.05,1.47Zm12,32.31c-3.23-3.5-13-3.49-16-.2,2.31-.41,4.38-.93,6.49-1.11s4.23,0,6.35,0l0,.54-1.93.89.13.4Zm.74,45.5c1.94-1.23,1.56-3,1.07-4.32-1.17-3.1-2.75-6.05-4.14-9-.24,2.27,2.28,4.73-.66,7.1C420.87,797.78,419.17,801.26,419.9,803.8ZM352,742.43,364.41,740C360.11,738.45,353.29,739.75,352,742.43Zm15.25-17.94,5.23,1.62-.68,1.19a7.93,7.93,0,0,0,2.64-.72,19.81,19.81,0,0,1,2.69-.4C375.12,724.5,368.73,723.06,367.27,724.49Zm37.29,58.81c.87-2.27-.95-9.17-2.72-9.58L400.69,775l.72-.1Zm-16.83-47.86.6-.15-3.45-10.41-.55.18A19.33,19.33,0,0,0,387.73,735.44ZM403.85,769l-.81.31q1.56,5.93,3.1,11.86l.67-.18C405.75,777,406,772.65,403.85,769Zm-30.94-22.61c.52,1.5.54,1.54,1.82,1.06,1.7-.64,3.28-.84,4.89.37.46.35,1.34.17,2,.23l.13-.56-5.46-3.39.13,2.08Zm30.63,3.89A8.64,8.64,0,0,0,396,757Zm-7.17,8.89.5.53c2.7-1.79,5.88-3.07,6.93-6.53l-.48-.51Zm-16.92-28.64,2.51,1L380.12,734l4.38-.47-4.29-5.65Zm1.43-3.79c-1.24-4.42-3.76-7.09-6.12-6.51Zm-9.68,15.14-.11-.93c-2.2.19-4.4.36-6.59.61-.22,0-.61.55-.55.68.15.31.54.78.77.75C366.89,742.63,369,742.23,371.2,741.84Zm-2-4.24L374,740l.24-.46-5.23-4-.75.05c1.13,2.55-.88,1.36-1.57,2.08l2.81,1.39Zm44.38,13c-2.48-.88-5.32.6-7.84,4ZM377.42,840c3.13-.89,3.38-1.22,3.09-4.22C378.63,836.6,377.11,837.59,377.42,840Zm-27.24-68.3,1.4,2.7,3.27-3.67-.38-.49Zm43.24-17.93.72.1c.4-3.43.79-6.86,1.19-10.29l-.85-.09C394.13,746.91,393.77,750.34,393.42,753.77Zm-5.51-1.58-.93.45q1.62,3.14,3.26,6.27l.92-.47Zm-13.76,107,1.16-2.59-2.75-1.16C371.48,857.53,371.48,857.53,374.15,859.15Zm11.21-123.46c-1.14,3.56-1,3.91,2.21,4.73Zm31.84-17.81c-5.46.66-5.67.78-5.94,3.34Zm-24.35,10.26c.49-2,.9-4.13-2-5Zm23.87-8.26.11.45,4.5.5L420.16,718ZM377.67,850.5l-.62-.49-3.77,1.8c.74.46,1.71,1.35,2,1.17A15,15,0,0,0,377.67,850.5Zm3.8-27.08-.53,4.31.64.32a8.63,8.63,0,0,0,1.67-2.39C383.36,825.24,382.37,824.51,381.47,823.42Zm17.07-43.87c1.84-2.23,1.81-4,0-5.63Zm-10.84-16c-2.81-.67-3,1.53-3.86,2.7C385.8,766.72,386.1,764.69,387.7,763.57Zm-26.79,2.5c-2.25-.93-3.59,0-4.37,2.1Zm9.31,97.87c3-1.06,3.09-1.53,1-3.81ZM397.4,750l2.6-3.88C397,746,397.23,747.72,397.4,750Zm-1.12-13.31.57.15c.77-1.54,2.16-2.93,1.08-5.49C397.27,733.45,396.77,735.05,396.28,736.65Zm4.33,35c.58-1.65,1.55-3.51-1.26-4.32C399.82,768.93,400.21,770.3,400.61,771.66Zm-28.23-11.1.19.88,5.15-1.07-.18-.84Zm26.09-35.91-.7-.23c-1,1-2,2-.47,4Z" transform="translate(-114 -290.49)"/><path class="cls-4" d="M519.46,766.7c-2.05.57-4.1,1.17-6.16,1.7a4.37,4.37,0,0,1-2,.27,25,25,0,0,0-11.79.07,9.67,9.67,0,0,1-8.23-1.53,7.65,7.65,0,0,0-8.3-.83c-1.12.53-2.44.91-3.23-.55s-2.24-2.9-1-4.93a10.13,10.13,0,0,1,6.36-4.45,15.79,15.79,0,0,0,5.3-2.56,5.15,5.15,0,0,1,4.77-1.23c2.61.71,4.8.49,6.9-1.65s5.5-2.09,7.77.23a10.67,10.67,0,0,0,6.59,3.23c4.3.62,7.75,2.76,9.1,7.25,1,3.27-.37,5.15-3.8,5.42-.71.06-1.44,0-2.16,0Zm-37.87-2a10.2,10.2,0,0,1,2.83-.77c2.11.06,4.62-.26,6.22.75a11.81,11.81,0,0,0,10.07,1.64,17,17,0,0,1,3.43-.41q8.33-.53,16.64-1c2.33-.13,3.2-1.52,2.12-3.58a8.38,8.38,0,0,0-5.61-4.42,25.52,25.52,0,0,1-9.92-4.62,2.77,2.77,0,0,0-3.94.17c-2.47,2.41-5.3,2.85-8.59,2.1a3.91,3.91,0,0,0-3.09.78,12.09,12.09,0,0,1-6.92,3.21C481.61,759,480.32,761.47,481.59,764.74Z" transform="translate(-114 -290.49)"/><path class="cls-4" d="M424.13,790.16a37.42,37.42,0,0,1,5.41-.75c9.75,0,19.52-.37,29.23.2a328.67,328.67,0,0,0,44.82-.8c7.62-.6,15.3-.53,23-.7a5.85,5.85,0,0,1,1.88.65l0,.66a11.7,11.7,0,0,1-2.65.71c-11.75.4-23.51.93-35.28,1-13.44.12-26.88-.21-40.32-.21-7.87,0-15.74.29-23.61.41a13.63,13.63,0,0,1-2.5-.43Z" transform="translate(-114 -290.49)"/><path class="cls-4" d="M450.46,772.81a36.12,36.12,0,0,1-5.16.47c-1.75-.06-3.47-.69-5.23-.8a14.55,14.55,0,0,0-4.8.36c-2,.6-3.66.6-5.43-.8a6.63,6.63,0,0,0-3.6-.86c-1.43-.06-2.9.43-4.3.27a3.12,3.12,0,0,1-2.28-1.54,3.48,3.48,0,0,1,.55-2.91c2.11-2.56,5-3.38,8.29-3.46a9.83,9.83,0,0,0,4.47-1.15c2.4-1.39,4.69-1.32,7.27-.69a20.65,20.65,0,0,0,5.88.4,4.89,4.89,0,0,1,4.09,1.23,17.21,17.21,0,0,0,5,2.89c2.25,1,2.81,2.41,1.28,4.32A6.06,6.06,0,0,1,450.46,772.81Zm-29.73-3c1.75,0,3.07.29,4.23,0,2.08-.56,4-.65,5.78.66a4.47,4.47,0,0,0,4.85.6c2.14-.91,4.13-.65,6.45-.07,4.08,1,8.26.18,12.2-1.41.22-.09.36-.39.65-.72-2.14-1.55-4.14-3.1-6.24-4.46a5.62,5.62,0,0,0-2.46-.53,65.78,65.78,0,0,1-7.19-.68,7,7,0,0,0-5,.44,11.4,11.4,0,0,1-5.32,1.36C425.24,764.79,422.89,766.1,420.73,769.84Z" transform="translate(-114 -290.49)"/><path class="cls-4" d="M500,798.36l.6,2.86a22.37,22.37,0,0,1,4.13-.77,4.83,4.83,0,0,1,3.27.9,2.3,2.3,0,0,0,2.76.73q5.61-1.61,11.28-2.92a2.37,2.37,0,0,1,2.09.59,2.4,2.4,0,0,0,2.61,1.35,28,28,0,0,1,6.44.42,6.17,6.17,0,0,1-1.83.92c-2.92.45-5.85.9-8.8,1.07-.8,0-1.65-.88-2.48-1.36l.11-1-14,3.84.18-3c-1.6.2-3.09.28-4.53.6-2,.45-3.67.51-3.61-2.31-3.87.24-6.78,2.17-9.53,4.44-1.49,1.23-2.55,1-3.32-1.05C490.27,802.08,494.59,799,500,798.36Z" transform="translate(-114 -290.49)"/><path class="cls-4" d="M451.83,801l8-2.43a7.26,7.26,0,0,1,2.09-.51,18.82,18.82,0,0,1,2.85.54c-.22.78-.45,1.55-.67,2.33-.06.2-.08.42-.16.86,5.58-1.08,10.76-4.66,16.73-2.2-6.6-.47-12.39,2.76-19,4.19l1.4-4.73-13.25,3.79L451,798a27.23,27.23,0,0,0-14.27,4.09l1.42.73c-.5.29-.87.67-1.27.71-1,.09-2,0-3,0,.54-1,.82-2.47,1.64-2.9a38.25,38.25,0,0,1,16.23-4.06c1.28-.05,1.65.78,1.3,1.88A22.38,22.38,0,0,1,451.83,801Z" transform="translate(-114 -290.49)"/><path class="cls-4" d="M462.25,793.44c4.73-.49,9.43-1.07,14.16-1.37.79-.05,1.65,1.13,2.48,1.74l-.23.61,14.82-2.4.71,2c5-.07,9.95-3.22,15.18-.6a2.41,2.41,0,0,1-3.33.76,5.7,5.7,0,0,0-3.05-.42c-3.2.54-6.37,1.23-9.53,2-1.79.42-3.2.44-3.35-2.09l-15,2.87c.48-1.32.73-2,1.06-3A25.56,25.56,0,0,0,464.35,795C463.38,795.28,462.34,795.7,462.25,793.44Z" transform="translate(-114 -290.49)"/><path class="cls-4" d="M355,814.32c4.23-.68,8.48-1.35,12.72-2.06,1.16-.2,1.61.23,2.32,1.22s2.39,1.32,3.5,1.87c-1.46,1.27-3.34,1.43-5.4-.26a5.27,5.27,0,0,0-5.19-1c-3.33.87-6.71,1.52-10.34,2.33l.76-4c-5.6-.66-10.25,1.78-15,4.11-1.24-1.23-.32-2,.72-2.34,4.2-1.28,8.41-2.61,12.69-3.53C354.92,810,355.3,810.67,355,814.32Z" transform="translate(-114 -290.49)"/><path class="cls-4" d="M473.39,813c1.41-.59,2.66-1.05,3.86-1.61a3.37,3.37,0,0,1,4,.41,3.24,3.24,0,0,0,2.09.24c2.41-.27,4.81-.7,7.23-.89a3.28,3.28,0,0,1,2.13,1.11c-4.35-1.34-7.92,1-12,2.27-1.14-3-3.1-2.12-5.18-1a15.59,15.59,0,0,1-3,1.18c-.48.14-1.3.16-1.49-.11a2.06,2.06,0,0,1,0-1.57c.28-.84.72-1.63,1.21-2.72-5.22-.3-8.49,2.92-12.19,5.15l-.59-.31c.34-.61.53-1.52,1.05-1.78a91.82,91.82,0,0,1,9.53-4.48c3-1.13,3.94-.13,3.36,3.12A6.54,6.54,0,0,0,473.39,813Z" transform="translate(-114 -290.49)"/><path class="cls-4" d="M412.14,811.85c1.51-1.4,3.23-1.58,4.55-.4.67.6.59,2,.91,3.38l6.19-2.09a31.87,31.87,0,0,1,3.08-1c2.73-.63,3.82.3,3.65,3.27,7-1.47,13.77-3.63,20.91-3.44l.33.7c-.65.34-1.32,1-1.94,1A46.28,46.28,0,0,0,431.76,816a4.71,4.71,0,0,1-1.05.24c-.49,0-1,0-1.65,0a5.52,5.52,0,0,1,0-.82c.37-2.43-.84-3.41-3.22-2.52s-4.68,1.9-7,2.81c-1.06.41-2.17.7-3.64,1.17.33-1.06.53-1.76.77-2.45.7-2,.42-2.37-1.71-2.5Z" transform="translate(-114 -290.49)"/><path class="cls-4" d="M370.68,801.17c-5.4-1.68-10.72-.62-16.05.26-2.49.4-2.8.1-3-3-4.23.33-8.33.84-11.84,3.63a11.74,11.74,0,0,1-2.86,1.12c1.95-4.19,13.51-7.58,17.73-5.75l-.69,2.74,7.92-.56c2.09-.16,4.18-.45,6.26-.41a9.42,9.42,0,0,1,2.85,1.05Z" transform="translate(-114 -290.49)"/><path class="cls-4" d="M529.78,811c-3.17.91-6.31,1.92-9.53,2.63-.72.16-1.67-.74-2.52-1.15l0-.77-8.52,3.81v-3.34l-9.75,2.14c.72-.57,1.11-1.12,1.62-1.26a66.19,66.19,0,0,1,7.55-1.79c.86-.12,1.87.73,2.81,1.14l-.09.66c2-.9,4-1.86,6.09-2.63a2.15,2.15,0,0,1,2,.35,2.25,2.25,0,0,0,2.82.74,45.45,45.45,0,0,1,5-1.25,13,13,0,0,1,2.42,0Z" transform="translate(-114 -290.49)"/><path class="cls-4" d="M407.67,804.08h8.24l0,.58-12.8,1.5-.4-1,4.41-3.37a9.72,9.72,0,0,0-6.75.57,58.74,58.74,0,0,1-6.34,2.64c.44-.7.73-1.78,1.36-2.06,4.44-1.93,9-3.6,14.52-2.53Z" transform="translate(-114 -290.49)"/><path class="cls-4" d="M458.1,809a24.71,24.71,0,0,0-4.59-.48c-2.87.23-5.71.76-8.57,1.15-.35,0-.71,0-1.65,0l2.72-4.23-12.55,4.2-.36-.75a12.88,12.88,0,0,1,2.37-1.37c3.3-1.06,6.61-2.07,10-2.94a7.91,7.91,0,0,1,2.72.31c-.43.78-.83,1.56-1.29,2.33a10.74,10.74,0,0,1-.85,1.11c3.63-.43,7.05-.92,10.47-1.21C458.62,807,458.82,807.43,458.1,809Z" transform="translate(-114 -290.49)"/><path class="cls-4" d="M374,803.18l-.56,1.33c-.12.32-.23.64-.48,1.3l9.62-1.83.14.89-11.45,2.58V804a9.67,9.67,0,0,0-6,2.11,7.73,7.73,0,0,1-1.85,1c-.26.09-.81-.21-1-.48s0-.72.19-1C364,803.64,371.17,802,374,803.18Z" transform="translate(-114 -290.49)"/><path class="cls-4" d="M435.77,794.71l5.73-.57.14.59a53.4,53.4,0,0,0-7.07,1.79c-3,1.15-4.37-1.76-6.76-2,1.11-1.7,4.25-3.18,5.91-2.51C434.48,792.32,434.89,793.49,435.77,794.71Z" transform="translate(-114 -290.49)"/><path class="cls-4" d="M448.72,818.74v-2.61c-1.66.47-3.19.8-4.63,1.36s-2.68,1.34-4,2l-.46-.42c.48-.49.87-1.18,1.45-1.43q3.07-1.32,6.26-2.38c2.5-.86,2.9-.58,3.5,2.17,2.76.33,5.79-1,8.91,1.28Z" transform="translate(-114 -290.49)"/><path class="cls-4" d="M476.44,818.4l-4.16,1.21c.32-1.11.48-1.67.74-2.55l-7.6.84C468.5,815.22,474.32,815.31,476.44,818.4Z" transform="translate(-114 -290.49)"/><path class="cls-4" d="M389.76,819.88l.64-2.44.24.54,12.17-3C399,818.35,394.14,817.78,389.76,819.88Z" transform="translate(-114 -290.49)"/><path class="cls-4" d="M544.31,871.1l3.79.62c-1.43.82-2.86,1.75-4,.22Z" transform="translate(-114 -290.49)"/></g><g id="JjFCYo.tif"><path class="cls-4" d="M184.5,690.22c2-6.09,3.86-12.63,6.41-18.87,5.44-13.3,13.78-24.34,26.47-31.62,2.23-1.28,4.65-2.22,6.94-3.4a2.86,2.86,0,0,1,3.23.3c7.33,4.8,12.75,11.35,17.27,18.7,6.46,10.52,10.73,21.94,13.8,33.85.2.75.41,1.5.7,2.59,1.49-1.64,2.73-3.06,4-4.43,9.16-9.69,19.58-17.43,32.6-21.18a53.33,53.33,0,0,1,17.93-2,3.84,3.84,0,0,1,2.54,1.63c4.45,6.78,6.66,14.4,7.74,22.36,2.53,18.68,0,36.9-5.32,54.82-5.73,19.37-14.62,37.13-27.59,52.71-12.28,14.76-27.14,25.94-45.61,31.85a18.36,18.36,0,0,0-10.93,8.73c-1.55,2.75-3.37,5.36-5.06,8-.87,1.38-2.07,2-3.53,1.1s-1.3-2.29-.42-3.66c2-3,3.8-6.14,5.79-9.15a11.76,11.76,0,0,0,.76-12.75c-.91-1.75-1.81-3.51-2.82-5.47a13.66,13.66,0,0,0-4.91,8.76c-.62,3.93-1.15,7.87-1.69,11.82-.22,1.59-.91,2.78-2.66,2.56s-2.16-1.53-1.95-3.13c.54-4,1.11-8,1.55-12.07a10.91,10.91,0,0,0-4.08-10c-1.67,3.82-3.53,7.38-4.75,11.15-.92,2.82,0,5.69,1.61,8.23q3,4.77,6,9.54c.89,1.42,1.52,2.94-.28,4s-2.85-.1-3.75-1.55c-1.86-3-3.78-6-5.65-9a15,15,0,0,0-8.25-6.69c-28.77-9.16-48.26-29-62.36-54.74a151.8,151.8,0,0,1-18.74-64.87c-.6-10.51-.13-21,3.19-31a88.7,88.7,0,0,1,5.51-12,3.28,3.28,0,0,1,2.4-1.35c14.76-.85,27.74,4,39.19,13C175.08,681.12,179.78,685.94,184.5,690.22Zm73.83,34.47A75.45,75.45,0,0,0,240.12,730c-5.48,2.45-10.6,5.42-14.66,10-1.9,2.14-2.26,4.45-1.42,7.57a58.39,58.39,0,0,1,4.45-4.61c7.47-6.12,16.27-9.32,25.53-11.45,5.08-1.17,5.09-1.14,4.56-6.33C258.57,725,258.51,725,258.33,724.69Zm50.09,33.5c-6.18-.84-11.83-1.92-17.52-2.31a40.25,40.25,0,0,0-19.24,2.93,7,7,0,0,0-4.45,6.07c12.76-5.56,25.63-3.94,38.62-.92C306.62,762.19,307.36,760.54,308.42,758.19Zm-172.17.26a25.12,25.12,0,0,1,1.25,2.91c.59,2.2,1.76,2.43,3.9,1.9,8.86-2.22,17.85-3.11,26.92-1.33,3,.58,5.83,1.62,8.8,2.46-.34-4.53-3.79-5.84-7.27-6.87C158.66,754.21,147.58,755.58,136.25,758.45Zm140.28-18.89a39.27,39.27,0,0,1,19.27-4.66c6.59.09,13.16.82,20.07,1.28.32-1.33.76-3.13,1.29-5.28-4.54-.56-8.75-1.3-13-1.55-7.4-.44-14.69.25-21.64,3.17C279.44,733.82,277.09,735.72,276.53,739.56Zm-21.2-43.62c-9.93,2.14-19.11,5.54-26.92,11.9a43.37,43.37,0,0,0-5.95,6.44c-1.38,1.71-1.08,3.75-.47,6a39.35,39.35,0,0,1,15.74-12.26c6-2.63,12.3-4.65,18.63-7C256.07,699.62,255.72,697.84,255.33,695.94Zm-87.48,43.29c-.43-3.42-2.46-5.32-5.31-6.6-8-3.58-16.38-4-24.9-3.25-3.41.29-6.78,1-10.33,1.46l1.45,5.79C142.09,733.9,155.09,733.13,167.85,739.23ZM189,749.81a29.9,29.9,0,0,1,.84,4.42c.09,2.2,1.19,2.63,3.19,2.8a86.75,86.75,0,0,1,14,1.85c4.63,1.16,9,3.24,13.39,4.86.71-3.76-1.28-6.33-4.8-8.26C207.38,751,198.5,749.91,189,749.81ZM269.74,758c1.8-.67,3.35-1.37,5-1.84,9.75-2.81,19.53-2.08,29.29,0,5.06,1.06,5.06,1.1,6.71-3.78a1.52,1.52,0,0,0,0-.52,72.29,72.29,0,0,0-20.9-2.71,40.35,40.35,0,0,0-15.3,2.94C271.92,753.2,269.9,754.73,269.74,758Zm-11.33-40.58a71.71,71.71,0,0,0-18.76,5.41,43.34,43.34,0,0,0-14.06,9.4c-2.07,2.16-3.43,4.54-2.17,7.76,9.38-10.52,22-14.3,35-16.87ZM135.64,757.07c13.25-3.17,26.25-4.81,39.19.81a6.2,6.2,0,0,0-3.75-5.41,34.07,34.07,0,0,0-4.08-1.64c-7.94-2.38-16-2.23-24.09-1-3.1.46-6.15,1.2-9.41,1.84Zm87.21-24c9.42-10.5,22-14.53,35.42-17.19-.21-1.93-.4-3.74-.6-5.66a71.92,71.92,0,0,0-20.86,6.74c-4.74,2.44-9.18,5.32-12.6,9.53C222.63,728.41,221.76,730.48,222.85,733.05ZM172.5,751.43c-.3-3.61-2.79-5.12-5.61-6.24-7.45-3-15.23-3.28-23.06-2.5-4.19.42-8.34,1.29-12.66,2,.39,1.34.61,2.19.9,3s.69,1.74,1,2.59C146.42,747.19,159.53,745.61,172.5,751.43Zm99.47.29a37.84,37.84,0,0,1,19.51-3.91c6.65.38,13.27,1.36,20.17,2.1l1.65-4.82a71.76,71.76,0,0,0-22.61-2.44A39.08,39.08,0,0,0,276.15,746C273.82,747.13,272.21,748.74,272,751.72ZM219,748.94c.44-3.27-.56-5.65-3.07-7.3a50.58,50.58,0,0,0-6.16-3.84c-7.18-3.42-14.83-4.44-22.76-4.27.13,1.76.31,3.3.35,4.84s.68,2,2.3,2.1C200.11,740.76,210.25,742.13,219,748.94Zm-.8-7.32c1.07-4.72-1.2-7.49-4.9-9.65a43.2,43.2,0,0,0-14.42-5.31c-4-.7-8.09-1-12.35-1.52.14,2.6.25,4.63.37,6.78C198.36,732.25,209.27,733.75,218.24,741.62Zm1.35,14.88c.67-3.77-.46-6.51-3.72-8.07A75.1,75.1,0,0,0,205.81,744a50.63,50.63,0,0,0-17.91-2c.16,1.36.38,2.53.41,3.7.06,2.09.95,2.69,3.12,2.74C201.39,748.71,211.07,750.2,219.59,756.5Zm-37.79,21c-.31-4.36-3.45-5.68-6.76-6.7-7.4-2.27-15-2.21-22.53-1.11-3.24.47-6.44,1.22-9.87,1.88a17.93,17.93,0,0,1,1.24,2.3c.91,2.53,2.37,2.91,5,2.31C159.9,773.72,170.9,773,181.8,777.5Zm76.34-38.3c-3.45.84-6.71,1.46-9.86,2.43-7.87,2.43-15.32,5.66-21.23,11.71-2.06,2.11-3,4.39-1.76,7.47,1-1.06,1.92-2.13,3-3,7.33-6.34,16.14-9.52,25.39-11.71,4.48-1.07,4.49-1,4.58-5.63C258.22,740.16,258.18,739.88,258.14,739.2Zm-78.76,31.71c-.24-2.4-1.11-4.06-3.15-4.93a39.16,39.16,0,0,0-4.7-1.85c-9-2.53-18.08-1.94-27.13-.14-1.66.33-3.3.78-5.11,1.21l2.66,5.12C154.45,767.35,166.84,765.74,179.38,770.91Zm79.14-38.84c-8.36,1.38-16.22,3.61-23.24,8a73.7,73.7,0,0,0-9.86,8c-1.65,1.49-1.61,3.56-.78,5.72,9.21-9.93,21.25-13.52,33.88-16Zm4.19,45.07c4.09-.82,8.14-1.89,12.26-2.4,7.47-.91,14.82.23,22.12,1.84.66.15,1.76.1,2.07-.3a42.58,42.58,0,0,0,2.56-4.39A60.24,60.24,0,0,0,282,769.21a84.85,84.85,0,0,0-14.49,2.51A5.85,5.85,0,0,0,262.71,777.14Zm2.34-6.47c3.77-.84,7.56-2,11.44-2.52,8.14-1.17,16.16.06,24.11,1.88.72.16,1.94.09,2.25-.36a29.23,29.23,0,0,0,2.23-4.33,74.07,74.07,0,0,0-20.37-2.64c-5.5.12-10.86.8-15.93,3.14A5.85,5.85,0,0,0,265.05,770.67ZM162.4,726c-.81-4-3.42-6-6.7-7.34-7.25-3-14.84-3.63-22.57-3-2.74.22-5.47.63-8.3,1l1,5.82C138.41,720.37,150.64,720,162.4,726Zm89.31-43.92c-8,1.1-20.14,7.18-25.94,13A19.28,19.28,0,0,0,222,700.2c-.74,1.54-.63,3.49-.89,5.25,8.81-10,20.13-14.71,32.25-18C252.75,685.55,252.24,683.87,251.71,682.09Zm67,40.53c.28-2.09.52-3.87.77-5.75-6.94-1.3-13.71-1.85-20.42-.64a75,75,0,0,0-12.58,3.82c-2.54.94-3.79,3.24-4.43,6.12C293.93,720.18,306.15,720.51,318.76,722.62Zm-62-19.32c-9.42,1.05-22.47,6.9-29.39,13.31a30.11,30.11,0,0,0-4.74,5.75c-.64,1-.48,2.5-.68,3.78,9.77-10.52,22.32-14.64,35.57-17.49C257.22,706.75,257,705.09,256.73,703.3Zm17.54,42.07a38.15,38.15,0,0,1,19.6-4.19c6.64.27,13.25,1.23,20.06,1.91.38-1.33.87-3,1.39-4.81a69.89,69.89,0,0,0-21-2,40.61,40.61,0,0,0-15.18,3.51C276.87,740.92,274.63,742.12,274.27,745.37ZM170.18,745c-.69-3.88-3.67-5-6.43-6-8.22-3.22-16.8-3.43-25.44-2.5-3,.33-6,1-9.23,1.48l1.64,5.46C144.07,740.5,157.18,739.15,170.18,745Zm16.67-29.18c11.19.75,21.63,3.23,30.31,10.56.83-4.24-1.06-6.88-4.27-9a40.45,40.45,0,0,0-13.24-5.92,37.68,37.68,0,0,0-12.8-1.2Zm-.24,8c11.23.63,22,2.27,31.1,9.58a6.82,6.82,0,0,0-2.91-7.08,38.26,38.26,0,0,0-14-6.79c-4.59-1.12-9.31-1.72-14.16-2.58Zm-21.54,8.37a6.07,6.07,0,0,0-3.8-5,72.42,72.42,0,0,0-12.07-3.94c-7.65-1.54-15.35-.91-23.21.68l1.05,5.53C140.05,727.06,152.69,726.25,165.07,732.2Zm56.48-19.57c8.83-10.58,20.75-15.09,33.5-18.19-.47-1.91-.91-3.66-1.41-5.66-3.46,1.12-6.73,2-9.86,3.23-7.63,3-14.65,6.89-20,13.29C222.09,707.32,220.81,709.53,221.55,712.63Zm96.93,11.47a67.1,67.1,0,0,0-21.94-.94c-4.68.66-9.26,1.73-13.38,4.19-1.86,1.11-3.42,2.45-3.66,5,12.36-6,25.07-5.1,37.94-2.67C317.81,727.67,318.13,726,318.48,724.1Zm-93,42.78c3.24-2.32,6.32-4.84,9.7-6.86,6-3.6,12.63-5.56,19.43-7,.8-.17,1.93-.7,2.14-1.32a28.36,28.36,0,0,0,.8-5c-2.48.57-4.65,1-6.76,1.55-8.58,2.41-16.72,5.67-23.23,12.1C225.56,762.33,224.68,764.49,225.49,766.88Zm-41.44,16.81c-.2-3.56-2.54-4.89-5.29-5.84-7.49-2.57-15.18-2.56-22.91-1.53-3.07.41-6.11,1.11-9.28,1.7.27.6.34.81.45,1,2.43,4.12,2.42,4,7.1,3.14C164.15,780.23,174.12,779.66,184.05,783.69ZM298,778.36a67.91,67.91,0,0,0-20.07-2.44,36.42,36.42,0,0,0-14,2.84c-2.26,1-3.26,2.73-3.57,5.24a30.5,30.5,0,0,1,14.56-3c6.08.35,12.13,1.16,18.18,2,1.32.17,2,0,2.67-1.11S297.14,779.62,298,778.36ZM226,773.85c2.33-1.83,4.47-3.77,6.86-5.33,6.25-4.08,13.22-6.43,20.47-8,1.3-.27,2.14-.7,2.26-2.19a41.89,41.89,0,0,1,.87-4.39c-3.55.95-6.75,1.66-9.87,2.65-6.86,2.2-13.31,5.19-18.54,10.35C226.06,768.93,225.08,771.11,226,773.85Zm67.79,10.42c-4.45-.64-8.58-1.43-12.74-1.8a41.78,41.78,0,0,0-18.32,2c-2.66,1-4.52,2.58-4.81,5.64,1.8-.56,3.5-1.22,5.27-1.63,7.54-1.76,15.09-1.24,22.62,0C290.91,789.43,290.9,789.47,293.79,784.27ZM220.72,771.2c.78-3.7-.77-5.77-3.89-7.31a52,52,0,0,0-17.27-5.06c-2.85-.33-5.74-.41-8.88-.63a26.85,26.85,0,0,1,.95,3.93c.15,2,1.21,2.39,3,2.45C203.78,764.91,212.67,766.21,220.72,771.2Zm28.38-96.58c-5,2.23-9.81,4.1-14.35,6.45a31.9,31.9,0,0,0-12,10.21,7.82,7.82,0,0,0-1.3,6.52,37.41,37.41,0,0,1,13.59-11c5.19-2.48,10.6-4.48,16-6.72ZM186.47,790c-.3-3.66-2.65-5-5.33-5.89-6.56-2.26-13.32-2.29-20.11-1.57-3.39.37-6.75,1.08-10.54,1.7a26.91,26.91,0,0,1,2,2.8c1,1.91,2.35,2.19,4.49,1.8a105.55,105.55,0,0,1,13.15-1.57A37.32,37.32,0,0,1,186.47,790Zm-61.66-74.85c11.79-1.71,23.21-2,34.23,3.5a8.43,8.43,0,0,0-4.6-5.77c-9.56-4.93-19.69-4.64-30.12-3.47.06,1.33.09,2.43.17,3.52C124.54,713.57,124.67,714.21,124.81,715.14Zm160.72,3.62c11.13-5.4,22.48-5.23,34.16-3.38l.57-5.76c-2.11-.23-4-.49-5.87-.63-8.11-.58-16,.06-23.5,3.62C288.39,713.8,286.24,715.4,285.53,718.76Zm-23.62-22.67c8.53,5,15.08,11.49,19,20.71.77-1.56,1.5-2.82,2-4.17a4,4,0,0,0,.28-2.49c-3.23-8.55-9.49-14.27-17.41-18.6Zm-45.33,1.82a25.53,25.53,0,0,0-.05-4.35,6.42,6.42,0,0,0-1.43-3.42c-6.08-5.59-13.43-8.26-21.58-8.88-.48,0-1.32.23-1.44.55-.58,1.61-1,3.27-1.43,5C203.76,689.05,208.61,691.12,216.58,697.91Zm-37.92-6.53a40.75,40.75,0,0,0-16.12,15.3c-2.27,3.78-1,6.66,1.12,9.8,3.8-9.21,10.5-15.61,18.88-20.59ZM187,708.65c11.23,0,21.25,2.67,29.72,10a7,7,0,0,0-2.8-7.27c-7.7-6.11-16.48-8.52-26.38-8.38Zm67.52,53c-2.68.72-5.17,1.28-7.59,2.06-6.93,2.21-13.49,5.12-18.8,10.33a6.68,6.68,0,0,0-1.76,7.36c6.12-6.53,13.79-10.14,22.07-12.13,4.06-1,5.64-3,6.08-6.65C254.57,762.46,254.55,762.31,254.55,761.63Zm.65,35.24c1.42-.47,2.7-1,4-1.32,7.94-2.1,15.91-1.57,23.89-.23a3.31,3.31,0,0,0,2.41-.3,46.64,46.64,0,0,0,3.77-4.33c-2.34-.42-4.2-.81-6.09-1.09-7.2-1-14.38-1.28-21.48.72C258.45,791.25,255.67,792.73,255.2,796.87Zm-65.88-.1c-.47-3.61-2.63-5.39-5.75-6.36a41.46,41.46,0,0,0-16.15-1.61c-4,.37-7.93,1-12.3,1.52a31.52,31.52,0,0,1,2,2.62c1.32,2.18,3,2.52,5.54,2.08C171.6,793.45,180.53,793.22,189.32,796.77Zm32-11.65c.11-6.09,1.16-5.44-4.19-7.67A65.75,65.75,0,0,0,204.62,774c-3-.6-6.17-.5-9.65-.73a43.23,43.23,0,0,1,1.59,4.45c.51,2.13,1.64,2.8,3.89,2.75C207.65,780.33,214.67,781.31,221.3,785.12Zm-33.57-83.53c10.91-.06,20.55,2.75,28.71,10.15.33-4.72.32-5.12-1.07-6.38-7.57-6.83-16.82-8.84-26.74-9.52Zm28.57,2.64c.79-3-.17-5-2.31-6.72a40.06,40.06,0,0,0-17.17-8.23c-2.18-.48-4.42-.69-6.68-1l-1.2,6.15C199.08,695.19,208.46,697.33,216.3,704.23Zm-23.65,61.62a49.47,49.47,0,0,0,1.51,4.86,2.34,2.34,0,0,0,1.63,1.25c8.86.1,17.43,1.35,25.29,5.82.68-3.28-.47-5.31-3.42-6.77C209.81,767.14,201.42,766.22,192.65,765.85Zm33.84,22.76c.76-.72,1.36-1.33,2-1.9,5.77-5.08,12.66-8,19.89-10.22.73-.23,1.7-.57,2-1.14.83-1.74,1.37-3.62,2.17-5.86-9,2.33-17.14,5.36-23.8,11.49A7.13,7.13,0,0,0,226.49,788.61Zm-65.63,8.06c2.85,4.44,4.12,5.06,8.78,4.48,1-.13,2-.23,3.07-.28,6.61-.31,13.16-.06,19.55,2.59-.67-2.89-1.95-4.82-4.59-5.79C178.86,794.43,170,795.21,160.86,796.67Zm91.37,6.88c1.52-.49,2.81-1,4.14-1.32,6.81-1.72,13.68-1.61,20.6-.69a4.53,4.53,0,0,0,2.83-.43,46.37,46.37,0,0,0,4.3-3.42l-.59-.81c-8.71-1.58-17.38-2.19-26,.68A7.31,7.31,0,0,0,252.23,803.55Zm68.35-101.4c-3.47,0-6.63-.1-9.77,0-5.94.25-11.73,1.25-17,4.11-3.13,1.68-4.15,2.93-4.75,5.62,9.92-5.1,20.45-5,31.26-3.8C320.38,706.22,320.46,704.55,320.58,702.15Zm-99-11.81c7.09-9,16.77-13.32,27.19-16.7l-2.24-5.18c-8.28,2.93-15.83,6.62-21.63,13.18C222.77,684,221.07,686.56,221.53,690.34ZM155.79,711.9a9,9,0,0,0-4.76-5.62c-8.48-4.51-17.57-4.78-26.88-4v5.63C135,706.7,145.6,706.62,155.79,711.9Zm122.32,10.72c2.14-3.9,2.16-4,.41-7.63A36,36,0,0,0,269,702.93c-2.5-2.07-5.22-3.87-7.84-5.8l-.6.49c.33,2,.57,4,1,6a3.71,3.71,0,0,0,1.36,2C269.35,710,274.77,715.15,278.11,722.62Zm-111.82-.35c5.52-9.24,6.73-10.57,15.23-16.78.45-.33,1.07-.77,1.14-1.24.37-2.26.58-4.55.9-7.23-7.95,4.58-13.91,10.34-17.84,18.15C164.41,717.76,164.5,720,166.29,722.27Zm55,70.47c.41-6.32,1.1-5.89-4.49-8.23-5.8-2.43-11.95-2.85-18.45-2.6a38.31,38.31,0,0,0,2.29,4.71A3.67,3.67,0,0,0,203,788.3C209.42,788.43,215.62,789.24,221.25,792.74Zm63.65-83c.45-2,1.38-3.7,1-5-2.26-8.18-7.51-14.12-14.8-18.77l-4.33,4.26C279.34,699.56,279.34,699.56,284.9,709.72ZM160,708.85c3.88-7.82,4-8,17.69-18.9a35.29,35.29,0,0,0-3.44-3.08,2.42,2.42,0,0,0-2.18-.17,33.16,33.16,0,0,0-13.12,16.18A5.08,5.08,0,0,0,160,708.85Zm61.47-26.53.81.24c6-7.93,14.54-12.09,23.65-15.48-.93-1.79-1.74-3.33-2.63-5.05-2.32,1.09-4.49,2-6.55,3.11-5.16,2.79-10,6.09-13.07,11.22C222.57,678.14,222.16,680.32,221.44,682.32Zm-28.78-2.7c9.08.86,17.1,3.56,24.08,9.51,0-1.58.07-3.4-.79-4.42-5.46-6.51-12.72-9.69-21.12-10.9Zm-40.5,25.58c-1.53-7.27-17.21-11.07-27.93-9.85l-.27,5.5C133.86,700,143.3,700.51,152.16,705.2ZM292,704.63l.6.64c8.72-4.73,18.17-4.89,28-4.31-.14-2-.26-3.69-.38-5.59-8.52-.23-16.63.27-23.83,4.9C294.65,701.35,293.42,703.16,292,704.63Zm-96.26-32.19c8.14,1.32,15.32,4.67,21,10.79,1.58-3.87.36-6.63-2.71-9a32.14,32.14,0,0,0-11.52-5.81c-5.2-1.32-4.26-2.33-6.73,3.61A2.08,2.08,0,0,0,195.73,672.44Zm91.47,31.32c2.83-3.6,3.12-4.63,1.92-7.7-2.3-5.9-6.45-10.32-11.51-13.95a1.87,1.87,0,0,0-1.69,0c-1.23.85-2.33,1.89-3.59,2.94C279.48,689.72,284.55,695.66,287.2,703.76ZM167.81,681.21a35.68,35.68,0,0,0-11.92,13.23c-1.73,3.38-1.36,6.25,1.34,9.12,2.63-8,7.79-14.06,14.85-18.76Zm81.78,96.35c-2.8,1-5,1.67-7.19,2.56-5.2,2.14-10.18,4.67-14.13,8.8-2.11,2.19-2.39,3.42-1.66,6.34,5.1-5.22,11.47-8.15,18.16-10.57a4.4,4.4,0,0,0,2.19-1.56C247.9,781.56,248.54,779.83,249.59,777.56Zm-82.91,25.35c1.3,1.16,2.23,1.87,3,2.72a5.64,5.64,0,0,0,5.55,1.72,26,26,0,0,1,6.6-.22c4.34.43,8.65,1.13,12.87,1.71-.56-2.67-1.39-3.61-4.89-4.78C182.44,801.61,174.92,801.89,166.68,802.91Zm111.21.14c-2.89-.27-5.15-.56-7.42-.67a40.71,40.71,0,0,0-16.53,2.12c-3,1.11-3.74,2.08-4.36,5.16,6.87-2.67,14-2.62,21.13-2.13a4,4,0,0,0,2.45-.5C274.65,806,276,804.7,277.89,803.05Zm-75.76-13.28c1.17,1.91,2.18,3.36,3,4.91s1.85,1.73,3.32,2a81.33,81.33,0,0,1,9.32,2.44,18.68,18.68,0,0,1,3.71,2.23,24,24,0,0,1,0-3.64c.39-2.46-.78-3.79-2.85-4.82C213.57,790.39,208.16,789.76,202.13,789.77Zm-19.68-83.18c-5.93,4-10.57,8.47-13.87,14.34-1.76,3.12-1.06,5.62.82,8.36a37,37,0,0,1,11.73-15.16,2.37,2.37,0,0,0,.86-1.4C182.21,710.84,182.29,708.93,182.45,706.59Zm79.87.4c-.27,5.1.22,6.35,3.54,9.41.22.2.42.42.63.62a41.81,41.81,0,0,1,8.87,12.46c.7-1.91,2-4.11,1.44-5.71C274.31,716.34,268.73,711.38,262.32,707Zm29.06-10.32a5.58,5.58,0,0,0,.91-7c-1.63-3.09-3.21-6.38-5.55-8.9-4.41-4.76-3-4.37-8.33-.67-.1.07-.12.25-.18.38l1-1c2.21,2.76,4.56,5.42,6.6,8.3S289.58,693.78,291.38,696.67ZM239.8,656.1a38.48,38.48,0,0,0-13.48,9.58c-2.25,2.6-4,5.46-3.76,9.44,5.23-7,12.27-11.11,20.07-14.32Zm-78.17,20.8c-4.55,3.73-8.21,7.9-9.86,13.61a6.08,6.08,0,0,0,1.7,6.34c2.36-7.12,7.15-12.2,13.1-16.59Zm37-10.9c7.35,1.53,13.68,4.24,18.86,9.66.61-2.27.71-4.09-.68-5.86-3.88-4.93-9.15-7.4-15.11-8.9Zm120.89,22.43c-6.61.16-12.8,1.08-18.43,4.37a10.42,10.42,0,0,0-5.06,5.86c7.66-4.32,15.81-4.89,24.15-4.87C319.92,691.91,319.72,690.32,319.49,688.43Zm-171.37,9.3c-2.5-5.77-15.67-11-23.23-9l-.51,4.71c4.2.33,8.27.34,12.21,1.06S144.31,696.63,148.12,697.73Zm78,104.58c3.68-2.32,7.27-5.28,11.38-7,4.35-1.8,5.72-5.43,7.61-9a44.74,44.74,0,0,0-15.85,8.28C226.67,796.79,225.54,799.4,226.11,802.31ZM270.67,809c-7.12-.42-13.58-.6-19.81,1.73-2.87,1.07-3.92,2.42-4.41,5.12,4.14-.57,8.43-1.75,12.67-1.59C263.9,814.43,266.91,811.9,270.67,809Zm-96.86-.07c3.71,2.63,6.51,5.72,11.23,5.08a20.92,20.92,0,0,1,6.13.49c2.39.4,4.74,1,7.19,1.6-.9-2.55-2-4.63-4.72-5.55C187.33,808.37,180.9,808.13,173.81,808.91Zm8.1-93.58a37.91,37.91,0,0,0-10.66,13.19c-1.31,2.68-.84,4.85.8,7.24A36.6,36.6,0,0,1,181,723.21a2.88,2.88,0,0,0,.89-1.63C182,719.69,181.91,717.8,181.91,715.33Zm81.14.57c.21,4.14-.3,7.83,3.26,10.59,1.68,1.3,2.75,3.42,4,5.25.85,1.28,1.48,2.7,2.22,4.07a6.79,6.79,0,0,0,.41-7.75A39,39,0,0,0,263.05,715.9Zm-81.21,8.59a33.08,33.08,0,0,0-7.64,10c-1.78,3.56-1.66,4.86.42,8,2.25-3.08,4.6-6.27,6.9-9.48a2.87,2.87,0,0,0,.59-1.57C182.1,729.29,182,727.17,181.84,724.49Zm20.95-64.84c6,1.7,11.34,4.37,15.35,9.51,1-5.08,1-5.55-2.2-8a35.45,35.45,0,0,0-6.82-4C205.3,655.44,205,655.66,202.79,659.65ZM150.12,691c1.52-6.15,5.32-10.78,10.13-15a17.54,17.54,0,0,0-3-1.55,2.38,2.38,0,0,0-2,.29,80.42,80.42,0,0,0-6.3,7.87C147,685.54,147.15,688.47,150.12,691Zm144.18.11c2.77-2.83,3.25-4.23,1.67-7.24a31.71,31.71,0,0,0-4.82-7c-3.25-3.46-2-3.24-6.45-.87-.1,0-.15.2-.31.42C289,680.41,292.8,685,294.3,691.14Zm6.13.1c5.89-3.1,12.24-4,18.86-4.28l-1.13-5.11C311.15,683.27,304.06,683.9,300.43,691.24Zm-64.6-40.68c-5.8,4.32-12.1,7.82-12.46,16,2.39-2.22,4.6-4.6,7.14-6.55s5.39-3.48,8.28-5.31Zm-91.71,40.77c-2.18-5.42-10.83-9.83-17.94-9.31l-1,4.79C132,687.05,138.21,688.05,144.12,691.33ZM208.2,798.14l-.53.75,13.15,11.8a48.46,48.46,0,0,1,.37-4.91,3.64,3.64,0,0,0-1.72-3.92A18.77,18.77,0,0,0,208.2,798.14Zm61.89-55c.49-2,1.63-3.93,1.23-5.51-1.17-4.67-4.08-8.44-7.83-12.18,0,2.19,0,3.86,0,5.53,0,1-.21,2.23.27,3C265.66,737,267.79,739.85,270.09,743.15Zm-63.22-89,12.31,7.14c1.75-3.59-.39-6-3.35-8.16-4.56-3.29-5.54-3.17-9,1.19C206.77,654.41,206.77,654.5,206.87,654.19ZM154,673.11c-5.67-2.7-4.6-2.9-8.31,2.37a10,10,0,0,0-1,2c-1.47,3.52-1.18,4.82,1.2,7Zm144.56,11.64c2.79-2.22,2.33-5.25.6-8.33a28.31,28.31,0,0,0-2.94-4.12,2.19,2.19,0,0,0-1.82-.68,38,38,0,0,0-4.09,1.5Zm-92.2,136.16c1.53-3.08,2.94-5.82,4.26-8.6,1.55-3.25,1.52-3.27-1.72-5.33a14.51,14.51,0,0,0-5.38,7,2.32,2.32,0,0,0,.06,1.64C204.42,817.32,205.35,819,206.38,820.91Zm35.9,2.82c6.44-2.1,12.49-4.43,18-8.27a100.87,100.87,0,0,0-11.56,1.67C245.18,817.8,243.38,820.21,242.28,823.73Zm-57.82-8.34-.26.84,17.71,7.57.58-.78c-1.26-1.62-2.21-3.77-3.86-4.75C194.32,815.68,189.37,815.43,184.46,815.39ZM225.82,811a64,64,0,0,0,12.68-14.62,69.36,69.36,0,0,0-8.66,5.15A8.72,8.72,0,0,0,225.82,811ZM236,807.39a19.83,19.83,0,0,0-1.85,2.3c-.36.6-.81,1.52-.59,2,1.39,3.1,3,6.11,4.49,9.23C242,814.8,241.75,812.73,236,807.39Zm-58.87-58.18c1.78-2.47,3.55-4.89,5.26-7.34a2.79,2.79,0,0,0,.54-1.59c-.11-1.86-.35-3.71-.55-5.56l-.58-.2c-1.59,2.45-3.16,4.89-4.75,7.33A6,6,0,0,0,177.08,749.21Zm30.64,56.31-3.7-4.24c-5,3.49-5.33,5.67-1.89,11.21C203.93,810.26,205.74,808,207.72,805.52Zm24.09-159.45c-4.3,2.95-7.53,6.34-7.07,11.64l10-8.45Zm73.43,37.58,12.48-3.5c-.44-1.32-.9-2.73-1.37-4.18C311.38,677.13,306.92,678.53,305.24,683.65Zm-166-.13c-1.78-5.13-6.18-6.67-11.22-7.66l-1.3,4.12Zm43.65,60.07c-5,5.07-5.73,8.3-3,13.64C182.44,753,186,749.05,182.94,743.59Zm58.13,58.14-3.87,4.66c1,1.06,1.89,2,2.7,3s1.51,2.22,2.3,3.4C245.45,806.83,246.35,807.49,241.07,801.73ZM212.13,649l8,5.64c1.39-4.25.79-6-3.33-9.16ZM267.24,749.6c2.26-4,.72-9.41-3.94-13.3-.16,2.11-.89,4.28-.29,6C263.94,744.87,265.78,747.16,267.24,749.6ZM302.13,679c3.11-3,3.33-5.35.71-9.63l-5.58,1.3Zm-155.07-8.31c-6.45-2.27-6.3-2-7.1,3.86-.2,1.45,1.36,3.14,2.12,4.74C143.88,676.15,145.48,673.39,147.06,670.65Zm55.87,129.13-3-4.46c-4.12,3.18-4.38,5.31-1.3,9.63Zm59.82-54.49c-1.36,4.45-1.6,8.53,1.75,11.91C267.74,752.8,265.89,749,262.75,745.29Zm-80.41,18.63c3-3.31,4.61-6.84,2-11.31C182.28,756.21,179.35,759.46,182.34,763.92Zm62.75,32.14L242,800.49l4,4.75C248.81,799.74,248.73,799,245.09,796.06Zm-58.81-35c-3.75,4.77-3.61,6.11-1.14,10.19C188.28,766.28,188.35,765.63,186.28,761Zm10.06,28.17c-3.88,3.95-3.51,3.92-.91,8.74C199.36,793.47,199.36,793.47,196.34,789.2Zm-8.73-10.5c3.18-3.9,3.27-5.55.71-9.66C185.44,772.81,185.36,773.74,187.61,778.7Zm61.23,11.55c-3.14,4-3.09,5,.41,7.8C250.43,795.41,252.42,792.79,248.84,790.25ZM191,776.86c-3.39,3.93-3.12,4-.89,8C193.36,782.58,193,779.78,191,776.86Zm4.6,10.56-1.94-4.23c-3.23,3.16-3.35,4.08-1.1,8Zm66.41-23.33c2-3.41,1.66-6.93-1-8.79C260.39,758.36,259,761.51,262.05,764.09ZM259.21,763c-.33,3-2.75,5.77.36,8.38C260.83,768.65,262.22,766,259.21,763Zm-7.34,28.37c2.1-3.83,2.08-4.44-.16-6.82C249.35,788.29,249.35,788.29,251.87,791.41Zm5-12.53c1-2.74,2.9-5.18,0-8C256.71,773.63,253.66,776,256.9,778.88Zm-2.48-.42c-2.31,4.35-2.31,4.35,0,6.81C255.33,783,257.22,780.71,254.42,778.46ZM226.15,648.4l.42.18,4-3.7-3.24-2.66C226.89,644.49,226.52,646.44,226.15,648.4Zm-97.44,25.91,5.88,1.91-4.11-5.79ZM314,670.63l-3.61,5.13.31.37,5.14-1.65Zm-179.07-2.16,3.5,4.92,1.37-4.42Zm83.36-23.89,3.15,3.46,1.09-5.8Zm86.41,24.48,1.49,4.47c1.17-1.68,2.1-3,3.31-4.76Z" transform="translate(-114 -290.49)"/></g><g id="JjFCYo.tif-2" data-name="JjFCYo.tif"><path class="cls-4" d="M184.5,988.82c2.05-6.1,3.86-12.63,6.42-18.87,5.43-13.3,13.77-24.34,26.46-31.62,2.23-1.28,4.65-2.22,6.94-3.4a2.86,2.86,0,0,1,3.23.3c7.34,4.79,12.75,11.35,17.27,18.7,6.47,10.52,10.73,21.94,13.8,33.85.2.75.41,1.5.7,2.59,1.49-1.64,2.73-3.06,4-4.43,9.16-9.69,19.58-17.43,32.61-21.18a53.54,53.54,0,0,1,17.92-2,3.89,3.89,0,0,1,2.54,1.64c4.45,6.78,6.66,14.4,7.74,22.36,2.53,18.68,0,36.9-5.32,54.82-5.73,19.37-14.62,37.13-27.59,52.71-12.28,14.76-27.13,25.93-45.6,31.85a18.35,18.35,0,0,0-10.94,8.73c-1.55,2.75-3.37,5.36-5.06,8-.87,1.39-2.07,2-3.53,1.11s-1.29-2.29-.42-3.66c2-3,3.8-6.14,5.8-9.15a11.76,11.76,0,0,0,.75-12.75c-.91-1.75-1.81-3.51-2.82-5.47a13.66,13.66,0,0,0-4.91,8.76c-.61,3.93-1.15,7.87-1.69,11.82-.21,1.59-.91,2.78-2.66,2.56s-2.16-1.53-1.95-3.13c.54-4,1.11-8,1.55-12.07a10.88,10.88,0,0,0-4.08-10c-1.66,3.82-3.53,7.38-4.75,11.15-.92,2.82,0,5.69,1.61,8.23q3,4.77,6,9.54c.89,1.42,1.52,2.94-.28,4s-2.85-.1-3.75-1.55c-1.86-3-3.78-6-5.65-9a15,15,0,0,0-8.25-6.69c-28.77-9.16-48.25-29-62.36-54.75A151.71,151.71,0,0,1,119.53,1007c-.6-10.52-.13-21,3.19-31a88.7,88.7,0,0,1,5.51-12,3.25,3.25,0,0,1,2.4-1.35c14.76-.85,27.74,4,39.19,13C175.08,979.72,179.78,984.54,184.5,988.82Zm73.83,34.47a75.25,75.25,0,0,0-18.2,5.26c-5.49,2.45-10.61,5.41-14.67,10-1.9,2.14-2.26,4.45-1.42,7.57a58.39,58.39,0,0,1,4.45-4.61c7.47-6.12,16.27-9.32,25.54-11.45,5.07-1.17,5.08-1.14,4.55-6.33C258.57,1023.64,258.51,1023.58,258.33,1023.29Zm50.09,33.5c-6.18-.84-11.82-1.92-17.52-2.31a40.25,40.25,0,0,0-19.24,2.93,7,7,0,0,0-4.45,6.07c12.76-5.56,25.64-3.94,38.62-.92C306.62,1060.79,307.37,1059.14,308.42,1056.79Zm-172.17.25a25.94,25.94,0,0,1,1.25,2.92c.59,2.2,1.76,2.43,3.9,1.9,8.86-2.22,17.86-3.11,26.92-1.33,3,.58,5.83,1.62,8.8,2.46-.34-4.53-3.78-5.84-7.26-6.87C158.67,1052.81,147.58,1054.18,136.25,1057Zm140.28-18.88a39.29,39.29,0,0,1,19.28-4.66c6.58.09,13.15.82,20.06,1.28.33-1.33.76-3.13,1.29-5.28-4.54-.56-8.75-1.3-13-1.55-7.4-.44-14.69.25-21.64,3.17C279.44,1032.42,277.09,1034.32,276.53,1038.16Zm-21.19-43.62c-9.94,2.14-19.12,5.54-26.93,11.9a43.37,43.37,0,0,0-5.95,6.44c-1.38,1.71-1.08,3.75-.47,6a39.35,39.35,0,0,1,15.74-12.26c6-2.63,12.3-4.65,18.63-7C256.07,998.22,255.72,996.44,255.34,994.54Zm-87.49,43.29c-.43-3.42-2.46-5.32-5.3-6.6-8-3.58-16.39-4-24.91-3.25-3.41.29-6.78,1-10.33,1.46l1.45,5.79C142.09,1032.5,155.09,1031.73,167.85,1037.83ZM189,1048.41a29.9,29.9,0,0,1,.84,4.42c.09,2.2,1.19,2.63,3.2,2.8a86.78,86.78,0,0,1,14,1.85c4.63,1.16,9,3.24,13.39,4.86.72-3.76-1.28-6.33-4.8-8.26C207.38,1049.57,198.5,1048.51,189,1048.41Zm80.75,8.21c1.79-.67,3.34-1.37,5-1.84,9.75-2.82,19.53-2.08,29.29,0,5.07,1.06,5.06,1.1,6.72-3.78,0-.12,0-.28-.06-.52a72,72,0,0,0-20.9-2.71,40.35,40.35,0,0,0-15.3,2.94C271.92,1051.8,269.9,1053.33,269.75,1056.62ZM258.41,1016a71.71,71.71,0,0,0-18.76,5.41,43.34,43.34,0,0,0-14.06,9.4c-2.06,2.16-3.43,4.54-2.17,7.75,9.39-10.51,22-14.29,35-16.86Zm-122.77,39.63c13.25-3.17,26.25-4.81,39.19.81a6.18,6.18,0,0,0-3.75-5.41,34.07,34.07,0,0,0-4.08-1.64c-7.94-2.38-16-2.24-24.09-1-3.1.45-6.15,1.2-9.41,1.84Zm87.21-24c9.42-10.5,22-14.53,35.42-17.19-.21-1.93-.4-3.74-.6-5.66a71.62,71.62,0,0,0-20.86,6.74c-4.74,2.44-9.18,5.32-12.6,9.53C222.63,1027,221.77,1029.08,222.85,1031.65ZM172.5,1050c-.3-3.61-2.79-5.13-5.61-6.24-7.45-3-15.22-3.28-23.06-2.5-4.19.42-8.34,1.29-12.66,2,.4,1.34.61,2.19.9,3s.69,1.73,1,2.59C146.42,1045.79,159.53,1044.2,172.5,1050Zm99.48.29a37.79,37.79,0,0,1,19.5-3.91c6.65.38,13.27,1.36,20.17,2.1l1.65-4.82a71.76,71.76,0,0,0-22.61-2.44,39.08,39.08,0,0,0-14.54,3.35C273.82,1045.73,272.21,1047.34,272,1050.32ZM219,1047.54c.44-3.27-.56-5.65-3.06-7.3a51.47,51.47,0,0,0-6.17-3.84c-7.18-3.42-14.83-4.44-22.76-4.27.13,1.76.31,3.3.35,4.84s.68,2,2.3,2.1C200.11,1039.36,210.26,1040.73,219,1047.54Zm-.8-7.32c1.08-4.72-1.2-7.49-4.9-9.65a43.2,43.2,0,0,0-14.42-5.31c-4-.7-8.09-1-12.35-1.52.14,2.6.25,4.63.37,6.78C198.36,1030.85,209.27,1032.35,218.24,1040.22Zm1.35,14.88c.67-3.77-.46-6.51-3.72-8.07a75.1,75.1,0,0,0-10.06-4.39,50.63,50.63,0,0,0-17.91-2c.16,1.36.38,2.53.42,3.7.05,2.09.94,2.69,3.11,2.74C201.39,1047.31,211.07,1048.8,219.59,1055.1Zm-37.79,21c-.31-4.36-3.45-5.68-6.76-6.7-7.4-2.27-15-2.21-22.53-1.11-3.24.47-6.44,1.22-9.87,1.88a17.93,17.93,0,0,1,1.24,2.3c.91,2.53,2.38,2.91,5,2.31C159.9,1072.31,170.91,1071.59,181.8,1076.1Zm76.34-38.3c-3.45.84-6.71,1.46-9.86,2.43-7.87,2.43-15.32,5.66-21.22,11.71-2.07,2.11-3,4.39-1.77,7.47,1-1.06,1.92-2.13,3-3,7.33-6.34,16.14-9.52,25.39-11.71,4.48-1.07,4.49-1,4.58-5.64C258.22,1038.76,258.19,1038.47,258.14,1037.8Zm-78.76,31.71c-.24-2.4-1.11-4.06-3.14-4.93a40,40,0,0,0-4.71-1.85c-9-2.53-18.08-1.94-27.12-.14-1.67.33-3.3.78-5.12,1.21,1,1.94,1.82,3.49,2.66,5.12C154.45,1066,166.84,1064.34,179.38,1069.51Zm79.14-38.84c-8.36,1.38-16.22,3.61-23.24,8a73,73,0,0,0-9.85,8c-1.66,1.49-1.62,3.56-.79,5.72,9.21-9.93,21.25-13.52,33.88-16.05Zm4.19,45.07c4.09-.82,8.14-1.89,12.26-2.4,7.47-.91,14.82.23,22.12,1.84.66.15,1.76.1,2.07-.3a42.58,42.58,0,0,0,2.56-4.39,60,60,0,0,0-19.68-2.68,84.57,84.57,0,0,0-14.48,2.51A5.85,5.85,0,0,0,262.71,1075.74Zm2.35-6.47c3.76-.85,7.55-2,11.43-2.52,8.14-1.17,16.16.06,24.11,1.88.72.16,1.94.09,2.26-.36a31.28,31.28,0,0,0,2.23-4.33,74.19,74.19,0,0,0-20.38-2.64c-5.5.12-10.85.8-15.92,3.14A5.82,5.82,0,0,0,265.06,1069.27ZM162.4,1024.61c-.8-4-3.42-6-6.7-7.34-7.25-3-14.84-3.63-22.57-3-2.74.22-5.47.63-8.3,1l1,5.82C138.41,1019,150.64,1018.6,162.4,1024.61Zm89.31-43.92c-8,1.1-20.13,7.18-25.93,13A19.11,19.11,0,0,0,222,998.8c-.74,1.54-.63,3.49-.89,5.25,8.81-10,20.13-14.71,32.25-18C252.75,984.15,252.24,982.47,251.71,980.69Zm67,40.53c.28-2.09.52-3.87.77-5.75-6.94-1.3-13.71-1.85-20.42-.64a75,75,0,0,0-12.58,3.82c-2.54.94-3.79,3.24-4.43,6.12C293.93,1018.78,306.15,1019.11,318.76,1021.22Zm-62-19.32c-9.42,1.05-22.47,6.9-29.39,13.31a30.06,30.06,0,0,0-4.73,5.75c-.65,1-.49,2.5-.69,3.78,9.78-10.52,22.32-14.64,35.57-17.49C257.22,1005.35,257,1003.69,256.73,1001.9ZM274.27,1044a38.2,38.2,0,0,1,19.6-4.19c6.64.27,13.25,1.23,20.06,1.91.38-1.33.87-3,1.39-4.81a69.89,69.89,0,0,0-21-2,40.61,40.61,0,0,0-15.18,3.51C276.87,1039.52,274.63,1040.72,274.27,1044Zm-104.09-.33c-.69-3.88-3.67-5-6.43-6.05-8.22-3.22-16.8-3.44-25.44-2.5-3,.33-6,1-9.23,1.48l1.65,5.46C144.07,1039.1,157.18,1037.75,170.18,1043.64Zm16.67-29.19c11.19.76,21.63,3.24,30.31,10.57.83-4.24-1.06-6.88-4.27-9a40.45,40.45,0,0,0-13.24-5.92,37.68,37.68,0,0,0-12.8-1.2Zm-.24,8c11.23.63,22,2.27,31.1,9.58a6.82,6.82,0,0,0-2.91-7.08,38.26,38.26,0,0,0-14-6.79c-4.59-1.12-9.31-1.72-14.16-2.59Zm-21.54,8.37a6.08,6.08,0,0,0-3.79-5,72.83,72.83,0,0,0-12.08-3.94c-7.65-1.54-15.35-.91-23.21.68l1.06,5.53C140.05,1025.66,152.69,1024.85,165.07,1030.8Zm56.48-19.57c8.83-10.58,20.75-15.09,33.5-18.19-.47-1.91-.91-3.66-1.41-5.66-3.46,1.12-6.72,2-9.86,3.23-7.62,3-14.65,6.89-20,13.29C222.09,1005.92,220.81,1008.13,221.55,1011.23Zm96.93,11.47a67,67,0,0,0-21.93-.94c-4.69.66-9.27,1.73-13.39,4.19-1.85,1.11-3.42,2.45-3.66,5,12.36-6,25.08-5.1,37.94-2.67C317.81,1026.27,318.13,1024.57,318.48,1022.7Zm-93,42.78c3.24-2.32,6.32-4.84,9.7-6.87,6-3.59,12.63-5.55,19.43-7,.8-.17,1.93-.7,2.14-1.32a28.36,28.36,0,0,0,.8-5c-2.48.57-4.65,1-6.76,1.55-8.58,2.41-16.72,5.67-23.23,12.1C225.56,1060.93,224.68,1063.09,225.49,1065.48Zm-41.43,16.81c-.2-3.56-2.55-4.89-5.3-5.84-7.49-2.57-15.18-2.56-22.9-1.53-3.08.41-6.12,1.11-9.28,1.7a9,9,0,0,0,.45,1c2.42,4.11,2.41,4,7.09,3.14C164.15,1078.83,174.12,1078.26,184.06,1082.29ZM298,1077a68,68,0,0,0-20.08-2.44,36.42,36.42,0,0,0-14,2.84c-2.26,1-3.26,2.73-3.56,5.24a30.44,30.44,0,0,1,14.55-3c6.08.35,12.14,1.15,18.18,2,1.32.17,2.05,0,2.68-1.11S297.14,1078.22,298,1077Zm-72-4.51c2.33-1.83,4.47-3.77,6.86-5.33,6.25-4.08,13.22-6.43,20.47-8,1.3-.27,2.14-.7,2.26-2.19a41.89,41.89,0,0,1,.87-4.39c-3.55.94-6.75,1.66-9.87,2.65-6.86,2.2-13.31,5.19-18.54,10.35C226.06,1067.52,225.08,1069.71,226,1072.45Zm67.79,10.42c-4.45-.64-8.58-1.43-12.74-1.8a41.79,41.79,0,0,0-18.32,2c-2.66,1-4.52,2.58-4.81,5.64,1.8-.57,3.51-1.22,5.27-1.63,7.54-1.76,15.09-1.24,22.63.05C290.91,1088,290.9,1088.07,293.79,1082.87Zm-73.07-13.07c.78-3.7-.77-5.77-3.89-7.32a52.19,52.19,0,0,0-17.27-5c-2.85-.33-5.73-.41-8.88-.63a25.61,25.61,0,0,1,.95,3.93c.15,2,1.21,2.39,3,2.45C203.78,1063.51,212.67,1064.81,220.72,1069.8Zm28.38-96.58c-5,2.22-9.8,4.1-14.35,6.45a32,32,0,0,0-12,10.21,7.82,7.82,0,0,0-1.3,6.52,37.41,37.41,0,0,1,13.59-11c5.19-2.48,10.61-4.48,16-6.72Zm-62.63,115.37c-.3-3.66-2.65-5-5.33-5.89-6.56-2.27-13.32-2.29-20.11-1.57-3.39.36-6.74,1.08-10.54,1.7a29,29,0,0,1,2,2.8c1,1.91,2.34,2.19,4.48,1.8a105.55,105.55,0,0,1,13.15-1.57A37.32,37.32,0,0,1,186.47,1088.59Zm-61.66-74.85c11.79-1.71,23.21-2,34.23,3.5a8.43,8.43,0,0,0-4.6-5.77c-9.56-4.93-19.69-4.64-30.12-3.48.06,1.34.09,2.43.17,3.53C124.54,1012.17,124.67,1012.81,124.81,1013.74Zm160.72,3.62c11.14-5.4,22.48-5.23,34.17-3.38l.56-5.76c-2.11-.23-4-.49-5.87-.63-8.1-.58-16,.06-23.5,3.62C288.39,1012.4,286.24,1014,285.53,1017.36Zm-23.62-22.67c8.53,5,15.08,11.49,19,20.71.77-1.56,1.5-2.82,2-4.17a3.9,3.9,0,0,0,.28-2.49c-3.23-8.55-9.49-14.27-17.41-18.6C264.46,991.71,263.27,993.1,261.91,994.69Zm-45.33,1.82a25.53,25.53,0,0,0-.05-4.35,6.42,6.42,0,0,0-1.43-3.42c-6.08-5.59-13.43-8.26-21.58-8.88-.48,0-1.32.23-1.44.55-.58,1.61-1,3.27-1.43,5C203.76,987.65,208.61,989.72,216.58,996.51ZM178.66,990a40.75,40.75,0,0,0-16.12,15.3c-2.27,3.78-1,6.66,1.12,9.8,3.8-9.21,10.5-15.61,18.89-20.59Zm8.37,17.27c11.23,0,21.25,2.67,29.73,10A7,7,0,0,0,214,1010c-7.7-6.11-16.48-8.52-26.38-8.38Zm67.52,53c-2.68.72-5.17,1.28-7.59,2.06-6.93,2.21-13.49,5.12-18.8,10.33a6.68,6.68,0,0,0-1.76,7.36c6.12-6.53,13.79-10.14,22.07-12.13,4.06-1,5.64-3,6.08-6.65C254.57,1061.06,254.55,1060.91,254.55,1060.23Zm.65,35.24c1.42-.47,2.7-1,4-1.32,7.94-2.1,15.91-1.57,23.89-.23a3.31,3.31,0,0,0,2.41-.3,46.64,46.64,0,0,0,3.77-4.33c-2.33-.42-4.2-.82-6.09-1.09-7.2-1-14.38-1.28-21.48.72C258.45,1089.85,255.67,1091.33,255.2,1095.47Zm-65.88-.1c-.46-3.61-2.63-5.39-5.75-6.36a41.27,41.27,0,0,0-16.15-1.61c-4,.37-7.93,1-12.3,1.52a32.1,32.1,0,0,1,2,2.62c1.31,2.18,3,2.52,5.53,2.08C171.6,1092.05,180.53,1091.82,189.32,1095.37Zm32-11.65c.11-6.09,1.16-5.44-4.19-7.67a65.55,65.55,0,0,0-12.49-3.43c-3-.6-6.17-.5-9.65-.73a41,41,0,0,1,1.59,4.45c.51,2.13,1.64,2.8,3.89,2.75C207.65,1078.93,214.67,1079.91,221.3,1083.72Zm-33.57-83.53c10.91-.07,20.55,2.75,28.71,10.15.33-4.72.32-5.12-1.07-6.38-7.57-6.83-16.82-8.84-26.74-9.52Zm28.58,2.64c.79-3-.18-5-2.32-6.73a40.05,40.05,0,0,0-17.17-8.22c-2.18-.48-4.41-.69-6.67-1L188.94,993C199.08,993.79,208.46,995.93,216.31,1002.83Zm-23.66,61.62c.54,1.8.9,3.39,1.51,4.86a2.34,2.34,0,0,0,1.63,1.25c8.86.1,17.43,1.35,25.29,5.82.68-3.28-.47-5.31-3.42-6.77C209.81,1065.74,201.42,1064.82,192.65,1064.45Zm33.85,22.76c.75-.72,1.35-1.33,2-1.9,5.77-5.08,12.66-8,19.89-10.22.73-.23,1.7-.57,2-1.14.83-1.74,1.37-3.62,2.18-5.86-9,2.33-17.15,5.36-23.8,11.49A7.09,7.09,0,0,0,226.5,1087.21Zm-65.64,8.06c2.85,4.44,4.12,5.06,8.78,4.48,1-.13,2.05-.23,3.07-.28,6.61-.31,13.16-.07,19.55,2.59-.67-2.89-1.95-4.82-4.59-5.79C178.86,1093,170,1093.81,160.86,1095.27Zm91.37,6.88c1.52-.49,2.81-1,4.14-1.32,6.81-1.72,13.69-1.61,20.6-.69a4.53,4.53,0,0,0,2.83-.43,45.08,45.08,0,0,0,4.3-3.42l-.59-.81c-8.7-1.58-17.38-2.19-26,.68A7.3,7.3,0,0,0,252.23,1102.15Zm68.35-101.4c-3.47,0-6.62-.1-9.77,0-5.94.24-11.73,1.25-17,4.1-3.13,1.69-4.15,2.94-4.75,5.63,9.92-5.1,20.46-5,31.26-3.8C320.38,1004.82,320.46,1003.15,320.58,1000.75Zm-99-11.81c7.09-9,16.78-13.32,27.19-16.7l-2.24-5.18c-8.28,2.93-15.83,6.62-21.63,13.18C222.77,982.6,221.07,985.16,221.53,988.94Zm-65.74,21.56a9,9,0,0,0-4.76-5.62c-8.48-4.51-17.57-4.78-26.88-4v5.63C135,1005.3,145.6,1005.22,155.79,1010.5Zm122.33,10.72c2.13-3.9,2.16-4,.4-7.63a36,36,0,0,0-9.49-12.06c-2.49-2.07-5.22-3.87-7.84-5.8l-.59.49c.32,2,.56,4,1,6a3.65,3.65,0,0,0,1.36,2C269.35,1008.58,274.77,1013.75,278.12,1021.22Zm-111.83-.35c5.52-9.25,6.73-10.57,15.23-16.78.45-.33,1.07-.77,1.14-1.24.37-2.26.58-4.55.9-7.23-7.95,4.58-13.91,10.34-17.84,18.15C164.42,1016.36,164.5,1018.63,166.29,1020.87Zm55,70.47c.41-6.32,1.1-5.89-4.49-8.23-5.8-2.43-11.95-2.85-18.45-2.6a38.31,38.31,0,0,0,2.29,4.71,3.67,3.67,0,0,0,2.42,1.68C209.42,1087,215.62,1087.84,221.25,1091.34Zm63.65-83c.45-2,1.38-3.7,1-5-2.26-8.18-7.51-14.12-14.8-18.77l-4.32,4.26C279.34,998.16,279.34,998.16,284.9,1008.32ZM160,1007.45c3.87-7.82,4-8,17.68-18.9a35.29,35.29,0,0,0-3.44-3.08,2.42,2.42,0,0,0-2.18-.17,33.16,33.16,0,0,0-13.12,16.18A5.06,5.06,0,0,0,160,1007.45Zm61.46-26.53.81.24c6-7.93,14.54-12.09,23.65-15.48-.93-1.79-1.74-3.33-2.63-5-2.32,1.09-4.49,2-6.54,3.11-5.16,2.79-10,6.09-13.08,11.22C222.57,976.73,222.16,978.92,221.44,980.92Zm-28.78-2.7c9.08.86,17.1,3.56,24.09,9.51,0-1.58.06-3.4-.8-4.42-5.46-6.51-12.72-9.69-21.12-10.9Zm-40.5,25.58c-1.53-7.27-17.2-11.07-27.93-9.85l-.27,5.5C133.87,998.62,143.3,999.11,152.16,1003.8Zm139.83-.57.6.64c8.72-4.73,18.17-4.89,28-4.31-.14-2-.25-3.69-.38-5.59-8.52-.23-16.62.27-23.83,4.9C294.65,1000,293.43,1001.76,292,1003.23ZM195.73,971c8.14,1.32,15.32,4.67,21,10.79,1.58-3.87.36-6.63-2.71-9a32.06,32.06,0,0,0-11.52-5.81c-5.19-1.32-4.26-2.33-6.72,3.61A1.23,1.23,0,0,0,195.73,971Zm91.47,31.32c2.83-3.6,3.13-4.63,1.92-7.7-2.3-5.9-6.45-10.32-11.51-13.95a1.87,1.87,0,0,0-1.69,0c-1.23.85-2.33,1.89-3.59,2.94C279.48,988.32,284.55,994.26,287.2,1002.36ZM167.81,979.81A35.68,35.68,0,0,0,155.89,993c-1.72,3.38-1.36,6.25,1.34,9.12,2.63-8,7.79-14.06,14.86-18.76Zm81.78,96.35c-2.8,1-5,1.67-7.19,2.56-5.2,2.14-10.18,4.67-14.13,8.8-2.1,2.19-2.39,3.42-1.66,6.34,5.1-5.22,11.48-8.15,18.16-10.57a4.36,4.36,0,0,0,2.19-1.56A60.3,60.3,0,0,0,249.59,1076.16Zm-82.91,25.35c1.3,1.16,2.23,1.87,3,2.72a5.62,5.62,0,0,0,5.54,1.72,26,26,0,0,1,6.6-.22c4.34.43,8.65,1.13,12.87,1.71-.56-2.67-1.39-3.61-4.89-4.78C182.45,1100.21,174.93,1100.49,166.68,1101.51Zm111.21.14c-2.89-.27-5.15-.56-7.42-.67a40.71,40.71,0,0,0-16.53,2.12c-3,1.11-3.74,2.08-4.36,5.16,6.87-2.67,14-2.62,21.13-2.13a4,4,0,0,0,2.45-.5C274.65,1104.59,276,1103.3,277.89,1101.65Zm-75.76-13.28c1.17,1.91,2.18,3.36,3,4.91s1.85,1.73,3.32,2a81.33,81.33,0,0,1,9.32,2.44,18.68,18.68,0,0,1,3.71,2.23,24,24,0,0,1,0-3.64c.4-2.46-.78-3.79-2.85-4.82C213.57,1089,208.16,1088.36,202.13,1088.37Zm-19.68-83.18c-5.92,4-10.57,8.47-13.87,14.34-1.76,3.12-1.06,5.62.83,8.35a36.94,36.94,0,0,1,11.72-15.15,2.37,2.37,0,0,0,.86-1.4C182.21,1009.44,182.29,1007.53,182.45,1005.19Zm79.87.4c-.27,5.1.22,6.35,3.54,9.41.22.2.42.42.63.62a41.81,41.81,0,0,1,8.87,12.46c.7-1.91,2-4.11,1.44-5.71C274.31,1014.94,268.73,1010,262.32,1005.59Zm29.06-10.32a5.6,5.6,0,0,0,.92-7c-1.64-3.09-3.22-6.38-5.56-8.9-4.41-4.76-3-4.37-8.33-.67-.1.07-.12.25-.18.38l1-1c2.22,2.76,4.56,5.42,6.61,8.3S289.58,992.38,291.38,995.27ZM239.8,954.7a38.48,38.48,0,0,0-13.48,9.58c-2.25,2.6-4,5.46-3.75,9.44,5.22-7,12.26-11.11,20.06-14.32Zm-78.17,20.8c-4.55,3.73-8.21,7.9-9.86,13.61a6.08,6.08,0,0,0,1.7,6.34c2.36-7.12,7.15-12.2,13.11-16.59Zm37-10.9c7.36,1.53,13.69,4.24,18.86,9.66.61-2.27.71-4.09-.68-5.86-3.88-4.93-9.14-7.4-15.11-8.9ZM319.49,987c-6.61.16-12.8,1.08-18.43,4.37a10.45,10.45,0,0,0-5.06,5.86c7.66-4.32,15.81-4.89,24.15-4.87C319.92,990.51,319.73,988.92,319.49,987Zm-171.37,9.3c-2.5-5.77-15.67-11-23.23-9l-.51,4.71c4.2.33,8.27.34,12.21,1.06S144.32,995.23,148.12,996.33Zm78,104.58c3.68-2.32,7.27-5.28,11.38-7,4.35-1.8,5.72-5.43,7.62-9a44.78,44.78,0,0,0-15.86,8.28C226.67,1095.39,225.54,1098,226.11,1100.91Zm44.56,6.67c-7.12-.42-13.58-.6-19.81,1.73-2.87,1.07-3.92,2.42-4.41,5.12,4.15-.57,8.44-1.75,12.67-1.59C263.9,1113,266.91,1110.5,270.67,1107.58Zm-96.86-.07c3.71,2.63,6.51,5.72,11.23,5.08a20.92,20.92,0,0,1,6.13.49c2.39.39,4.74,1,7.19,1.6-.9-2.55-2-4.63-4.72-5.55C187.33,1107,180.9,1106.73,173.81,1107.51Zm8.1-93.58a37.91,37.91,0,0,0-10.66,13.19c-1.31,2.68-.84,4.85.8,7.24a36.6,36.6,0,0,1,8.93-12.55,2.83,2.83,0,0,0,.89-1.63C182,1018.29,181.91,1016.4,181.91,1013.93Zm81.14.57c.21,4.14-.3,7.83,3.26,10.59,1.68,1.3,2.76,3.42,4,5.25.85,1.28,1.48,2.7,2.22,4.07a6.79,6.79,0,0,0,.41-7.75A39,39,0,0,0,263.05,1014.5Zm-81.21,8.59a32.88,32.88,0,0,0-7.63,10c-1.79,3.56-1.66,4.86.41,8,2.25-3.08,4.6-6.27,6.9-9.48a3,3,0,0,0,.6-1.57C182.1,1027.89,182,1025.77,181.84,1023.09Zm20.95-64.84c6,1.7,11.35,4.37,15.35,9.51,1-5.08,1-5.55-2.2-8a35.45,35.45,0,0,0-6.82-4C205.31,954,205,954.26,202.79,958.25Zm-52.67,31.37c1.52-6.14,5.32-10.77,10.13-15a17.54,17.54,0,0,0-3-1.55,2.38,2.38,0,0,0-2,.29,83.06,83.06,0,0,0-6.3,7.86C147,984.14,147.15,987.07,150.12,989.62Zm144.18.12c2.77-2.83,3.26-4.23,1.68-7.24a32.09,32.09,0,0,0-4.83-7c-3.25-3.46-2-3.24-6.45-.87-.1,0-.15.2-.31.42C289,979,292.8,983.56,294.3,989.74Zm6.14.09c5.88-3.09,12.23-4,18.85-4.27l-1.13-5.11C311.15,981.87,304.06,982.5,300.44,989.83Zm-64.61-40.67c-5.8,4.32-12.1,7.82-12.46,16,2.39-2.22,4.6-4.6,7.14-6.55s5.39-3.48,8.29-5.31Zm-91.71,40.77c-2.18-5.42-10.83-9.83-17.94-9.31l-1,4.79C132,985.65,138.21,986.65,144.12,989.93Zm64.08,106.81-.53.75,13.15,11.8a48.46,48.46,0,0,1,.37-4.91,3.63,3.63,0,0,0-1.72-3.92A18.74,18.74,0,0,0,208.2,1096.74Zm61.9-55c.48-2,1.62-3.94,1.22-5.51-1.17-4.67-4.07-8.44-7.83-12.18,0,2.19,0,3.86,0,5.53,0,1-.2,2.23.27,3C265.66,1035.58,267.79,1038.45,270.1,1041.75Zm-63.23-89,12.32,7.15c1.75-3.59-.4-6-3.36-8.16-4.56-3.29-5.54-3.17-9,1.19C206.78,953,206.77,953.1,206.87,952.78ZM154,971.71c-5.68-2.7-4.61-2.9-8.32,2.37a10,10,0,0,0-1,2c-1.47,3.52-1.18,4.82,1.2,7Zm144.55,11.64c2.79-2.22,2.33-5.25.6-8.33a27.07,27.07,0,0,0-2.94-4.12,2.18,2.18,0,0,0-1.81-.68,37.46,37.46,0,0,0-4.1,1.5Zm-92.19,136.16c1.52-3.08,2.93-5.82,4.25-8.6,1.55-3.25,1.52-3.27-1.72-5.33a14.51,14.51,0,0,0-5.38,7,2.37,2.37,0,0,0,.06,1.64C204.42,1115.92,205.35,1117.57,206.39,1119.51Zm35.89,2.82c6.44-2.1,12.49-4.43,18-8.27a100.87,100.87,0,0,0-11.56,1.67C245.19,1116.4,243.38,1118.81,242.28,1122.33ZM184.46,1114l-.26.83,17.71,7.58.58-.78c-1.26-1.62-2.21-3.77-3.85-4.75C194.32,1114.28,189.37,1114,184.46,1114Zm41.36-4.35A63.86,63.86,0,0,0,238.5,1095a71.42,71.42,0,0,0-8.66,5.16A8.72,8.72,0,0,0,225.82,1109.64ZM236,1106a21,21,0,0,0-1.85,2.3c-.36.6-.81,1.52-.58,2,1.38,3.1,2.94,6.11,4.49,9.23C242,1113.4,241.75,1111.33,236,1106Zm-58.87-58.18c1.78-2.47,3.55-4.89,5.26-7.34a2.79,2.79,0,0,0,.54-1.59c-.11-1.86-.35-3.71-.54-5.56l-.59-.2q-2.37,3.66-4.75,7.33A6.06,6.06,0,0,0,177.08,1047.81Zm30.65,56.31-3.71-4.24c-5,3.49-5.33,5.67-1.89,11.21C203.93,1108.86,205.74,1106.59,207.73,1104.12Zm24.08-159.45c-4.3,3-7.53,6.34-7.07,11.64l10-8.45Zm73.43,37.58,12.48-3.5c-.44-1.32-.9-2.73-1.37-4.18C311.38,975.73,306.92,977.13,305.24,982.25Zm-166-.13c-1.78-5.13-6.18-6.67-11.22-7.67l-1.3,4.13Zm43.65,60.07c-5,5.07-5.73,8.3-3,13.64C182.44,1051.64,186,1047.65,182.94,1042.19Zm58.13,58.14L237.2,1105c1,1.06,1.89,2,2.7,3s1.51,2.23,2.3,3.41C245.45,1105.43,246.35,1106.09,241.07,1100.33Zm-28.94-152.7,8,5.64c1.39-4.25.79-6-3.33-9.16Zm55.12,100.57c2.25-4,.71-9.41-3.95-13.3-.15,2.11-.89,4.27-.29,6C263.94,1043.47,265.78,1045.76,267.25,1048.2Zm34.88-70.64c3.11-3,3.33-5.35.72-9.63l-5.59,1.29Zm-155.07-8.31c-6.45-2.27-6.3-2-7.1,3.86-.2,1.45,1.36,3.13,2.12,4.74C143.88,974.75,145.48,972,147.06,969.25Zm55.87,129.13-3-4.46c-4.12,3.17-4.38,5.31-1.3,9.63Zm59.82-54.49c-1.36,4.45-1.59,8.53,1.75,11.91C267.75,1051.4,265.89,1047.64,262.75,1043.89Zm-80.4,18.63c3-3.31,4.6-6.84,2-11.31C182.28,1054.81,179.35,1058.06,182.35,1062.52Zm62.74,32.14c-1,1.5-2.07,3-3.07,4.43l4,4.75C248.81,1098.34,248.73,1097.58,245.09,1094.66Zm-58.81-35c-3.75,4.77-3.61,6.11-1.14,10.19C188.28,1064.88,188.35,1064.23,186.28,1059.63Zm10.06,28.17c-3.88,4-3.51,3.92-.91,8.74C199.36,1092.07,199.36,1092.07,196.34,1087.8Zm-8.73-10.5c3.18-3.9,3.28-5.55.71-9.66C185.44,1071.41,185.36,1072.34,187.61,1077.3Zm61.23,11.55c-3.14,4-3.09,5,.41,7.8C250.43,1094,252.42,1091.39,248.84,1088.85ZM191,1075.46c-3.39,3.93-3.12,4-.88,8C193.37,1081.18,193,1078.38,191,1075.46Zm4.6,10.56-1.94-4.23c-3.23,3.16-3.35,4.08-1.1,8Zm66.41-23.33c2-3.41,1.66-6.93-1-8.79C260.39,1057,259,1060.11,262.05,1062.69Zm-2.84-1c-.33,3-2.74,5.77.36,8.38C260.83,1067.25,262.22,1064.6,259.21,1061.64ZM251.87,1090c2.1-3.83,2.08-4.44-.16-6.82C249.35,1086.89,249.35,1086.89,251.87,1090Zm5-12.53c1-2.74,2.9-5.18,0-8C256.71,1072.23,253.66,1074.58,256.9,1077.48Zm-2.48-.42c-2.31,4.35-2.31,4.35.05,6.81C255.33,1081.55,257.22,1079.31,254.42,1077.06ZM226.15,947l.42.19,4-3.7-3.25-2.66C226.9,943.09,226.52,945,226.15,947Zm-97.44,25.92,5.88,1.91-4.11-5.8ZM314,969.23l-3.61,5.13.31.37,5.14-1.65C315.19,971.81,314.67,970.73,314,969.23Zm-179.07-2.16,3.5,4.92,1.37-4.42Zm83.36-23.89,3.15,3.46,1.09-5.8Zm86.41,24.48,1.49,4.47c1.17-1.68,2.1-3,3.31-4.76Z" transform="translate(-114 -290.49)"/></g><g id="XNfGwU.tif"><path class="cls-4" d="M386.83,973c.19.2.38.55.58.56,1,0,2,.18,2.51-1,0,0,.1,0,.39-.16a7.53,7.53,0,0,1-.44,1.22,18.43,18.43,0,0,1-4.3,4.38c-3,2.52-6.67,3.79-10.37,4.77a21.66,21.66,0,0,1-9.25.16c-6.87-1.16-12.25-4.83-17.25-9.3a15.8,15.8,0,0,1-3.38-5c-1.29-2.61-2.83-5.18-3-8.12a40.6,40.6,0,0,1,.27-8.17,26,26,0,0,1,7.71-15.72,52.44,52.44,0,0,1,8.14-7,4.5,4.5,0,0,1,.43-.23c.91,1.26.91,1.26,2.43.62a45,45,0,0,1,5.55-2.28,36.83,36.83,0,0,1,16.66-1c4.55.89,8.54,3.19,12.39,5.68a30.36,30.36,0,0,1,3.85,3,1.33,1.33,0,0,0,2,.13c2.42-1.65,4.87-3.26,7.33-4.86a8.32,8.32,0,0,1,2.08-1.1c1.28-.39,1.64,0,2,.91,1,2.8,2,5.57,3,8.37a7.11,7.11,0,0,1,.38,1.82c.37,4.17.7,8.36-.7,12.4a25.32,25.32,0,0,1-2.35,4.86c-1.19,1.94-2.58,3.77-3.93,5.62a7.74,7.74,0,0,1-1.3,1.18c-.64.54-1.26,1.11-1.93,1.59-.84.61-1.74,1.14-2.61,1.7a20.86,20.86,0,0,1-6.06,2.66,37.79,37.79,0,0,1-7.82,1.16,11.51,11.51,0,0,0-2.79.91l.07-.93c-.69-.16-1.37-.36-2.06-.46a36.81,36.81,0,0,1-10.19-3.23c-.42-.18-1-.77-1.32-.15s.51.73.91,1l0,1,2-.37-1.11,1.75c1,.17,2.28-.64,2.45,1,1.33-.32,1.33-.32,1.26.55l1.44-.14,0,.17-1,.78.13.3a21.5,21.5,0,0,0,2.14-.72c1.25-.57,1.23-.61.57-1.73,0,0,0-.08,0-.09l2.56.43-.73.88.33.28a1.23,1.23,0,0,1,1.8.4Zm-42.7-14.34a11.64,11.64,0,0,0,1.12,4s.1,0,.21,0l.06-.44,1.12-.6c-1.32-.44-1.44-.68-1.1-1.64l-1.44-1.29c.91-.39,1.16-.82.86-1.6a1,1,0,0,0-1.38-.58c.08.39.15.74.23,1.09S344,958.31,344.13,958.68Zm2.75-15.15c.21,0,.47.1.64,0a4.85,4.85,0,0,0,.79-.58l-.17.59,1.9-.06-1.91,1.75,1.54.15c-.45.64-1,1.17-.36,1.84,0,0-.26.36-.41.55l-.62.78,1.3.19-1.14,1.94,1.21.56c-.81.17-1.79,0-2.1,1.3a2.91,2.91,0,0,0,.93-.24,11.66,11.66,0,0,0,1.17-1.06c.41-.2.45,0,.26.29-.32.52-.69,1-1.06,1.53l1.53,0-1,1.56.28-.11c.34.35.84.65.95,1.07.06.23-.52.63-.82,1l-.39.46.11.22,2.37-.59.1.21-1.25,1.67.87.14-.12.36c.34.17.84.3.84.43a1.88,1.88,0,0,1-.37,1,4.32,4.32,0,0,1-.7.65l1.85.51-1.53,1.79.16.25a14.61,14.61,0,0,1,1.47-.14.82.82,0,0,1,.63.27c.08.14-.08.45-.21.63a2.8,2.8,0,0,1-.48.49l3.21.75L354.6,967l.14.21,1.12-.15a13,13,0,0,1,.3,2c0,.5.11.73.6.79a3,3,0,0,1,.58.21l-.68.78,2.2-.15-1.32,1.22,1.83.25L358.23,974l2.11.18-.7,1.15,2-.36.09.2-1.12,1.23,2.55-.14-.7,1.35,2.81-.07-.88,1,2.49-.07.14.24a2.13,2.13,0,0,0-.29.4c-.11.24-.18.5-.27.75a4.36,4.36,0,0,0,.79.2,7.69,7.69,0,0,0,.95-.06l0,.21-.84.21c-.87.18-.93.32-.43,1.31l1.44-1,.13.31c.05.11.12.22.17.33l.27-.07-.28-1.43c.38,0,1-.13,1,0a.91.91,0,0,0,1.13.6l1.44-.21c-.36-.81-1.8-.22-1.47-1.51l-.94.45c0-.19-.05-.3-.07-.4s-.07-.5-.11-.75a6.07,6.07,0,0,0-.74.31,4.17,4.17,0,0,0-.58.44,8.67,8.67,0,0,0-.59-1.94c-.48-.85-1.21-.19-1.89,0-.2-1.06-.91-1-1.65-.8a1,1,0,0,1,.38-1.37h0l0,1,2.51-1.27.42.86-.78.55,1.35.21.31-.54c.32.17.62.47.86.43.83-.14,1.64-.4,2.45-.61a24.45,24.45,0,0,1-2.25-1.69,18.12,18.12,0,0,1-1.66-2.07c-.23,0-.76,0-.92-.19-.55-.73,0-1.36.44-1.95l-2.27,0,.76-1.37-1.3-.06a9.87,9.87,0,0,0,.93-1.68c.19-.57.44-.69,1-.5l-.62,1,1.94,0-.52,1.1c1.39,0,2.08.79,1.83,1.94,1.15.33,1.15.33.44,1.79l2.17-.85.12.2-1,1.2c.94.57,2.14-.75,2.78.55l-1.34,1,.13.2,1.45-.25-.31,1.32,2.54-1,.14.21-.76,1.11a6.48,6.48,0,0,0,1.53.83,3.33,3.33,0,0,0,1.55-.2c.26-.09.43-.43.82-.84-1,0-1.86.07-1.78-1,0-.05-.23-.11-.33-.19-.69-.59-1.47-.51-2.49-.06l.73-1.52a3.23,3.23,0,0,1-.61-.08c-.27-.09-.54-.23-.8-.34a4.24,4.24,0,0,1,.37-.7,3.86,3.86,0,0,1,.54-.53l-.25-.32c-1.09.33-1.83.19-1.86-1.05,0-.13-.35-.22-.41-.38-.22-.53-1.23-1-.08-1.7-.8-.51-1.5-1-2.21-1.43-1.18-.77-2.37-1.53-3.52-2.34-.69-.5-.69-.88-.08-1.42l1.34-1.17-.8-.52.62-1.07c-.33-.15-.77-.23-.83-.43s.16-.61.28-1c-.88-.07-1.76.11-2.38-.78-.77-1.11.4-1.52.62-2.22-.38-.19-.77-.33-1.12-.55s-.71-.53-1.1-.82l.63-.92h-1.48l.54-1.08-.62-1.33-.89-.19.69-.92-1.09-.34.64-1.11-1.13-.25.16-.13-.84-1.24.84-1.05c-.7-.6-.66-.59-.43-1.22.1-.29.14-.78,0-.94a3,3,0,0,0-1.12-.48,4.2,4.2,0,0,0-.63-.06l.85-1c-1-.29-1-.45-.32-1.18l1-1-1.71-.68.15-2.46c-1.46.39-1.13,2.05-2.25,2.6l.79.72-.84.91c1.37.9-.49,1.2-.37,2h1.75l-.7.73.46.19v2.06l1.41-.22.08.21c-.39.19-.78.37-1.16.58a5.66,5.66,0,0,0-.54.43c.22.13.42.28.65.39s.34.09.75.21l-1.68,1.31.71.25c-.45.11-.76.16-1.05.26a1.41,1.41,0,0,0-.45.28c-.11.1-.17.28-.29.36s-.32-.12-.31-.18a.87.87,0,0,1,.17-.51c.44-.42.91-.81,1.36-1.21l0-.25c-1.17.23-1.56-.42-2-1.27-.55-1.18.6-1.47,1-2.11l-.38-1-1.25-.37.65-.92-.24,0a3.61,3.61,0,0,1-.06-1.13,7.29,7.29,0,0,0,.22-3.25,2.51,2.51,0,0,1,.36-1.36,12.09,12.09,0,0,1,.76-1.36l-.21-.22c-.23.12-.63.23-.65.37-.09,1-.92,1.37-1.43,2s-1.11,1.49-1.67,2.24l.2.18,1.44-.43.17.22-1.86,2.18,1,.4c-.14,1.43.26,3-1,4.17l.52-.06.81,1.09-1.37,1.1.11.24c.85-.18,1.1.2,1.06.95a.82.82,0,0,0,.29.65c.58.22.51.55.33,1a1.36,1.36,0,0,0,0,.56l-.63.58.14.18,1.73-.58c-.3,1.09.68,2-.33,2.84,1.21.4,1.26.57.54,1.59-.08.11-.21.24-.21.36s.08.5.18.52c1,.22.91.79.52,1.5a1.93,1.93,0,0,0-.09.56l1.33.35-.48,2.41a4,4,0,0,1,1.13-.14c.16,0,.44.42.39.55a5.57,5.57,0,0,1-.68,1.12l-.14-1.17-2.12.31,1.35-2.2-.18-.16-1.54.87.42.79a5.56,5.56,0,0,1-.85-.22c0-.52.15-1,.24-1.56-1-.35-1-.35-.66-.94l.67.56.55-1.45c-.49-.16-.94-.32-1.41-.43-.12,0-.31.07-.43.17s0,.2,0,.31.1.29.07.31a.46.46,0,0,1-.36.09c-.09,0-.21-.23-.18-.31a3.41,3.41,0,0,1,.37-.74c.19-.27.42-.5.71-.85-.86-.07-1.42-.41-1.55-1.17,0-.15.21-.35.32-.51.16.31.22.57.39.7s.49-.14.51-.25a1.6,1.6,0,0,0-.18-.72c-.08-.17-.27-.3-.31-.47-.18-.78-.33-1.58-.5-2.4a1.52,1.52,0,0,1-1.38-1.79c0-.27.1-.67,0-.78-.55-.42-.29-.75,0-1.14a1.77,1.77,0,0,0,.16-.46l-.91,0,.94-2.57-.62-.37c.12-.53.24-1,.31-1.43,0-.26-.07-.55,0-.81.13-.72.32-1.44.53-2.38l-2.23,1.4,1.32.72-1.38.65.44-.55-.13-.19-1.94,1.2a5.45,5.45,0,0,1,2-3.47c-.67-.51-1-.14-1.23.3q-1.26,2.21-2.47,4.43a5.28,5.28,0,0,0-.27,1l1.68-.52c-.14.24-.25.49-.41.72s-.38.45-.55.68-.45.64-.73,1c-.06.72.48,1.64-.31,2.45.74.9.74.9,0,1.9l.69.24c-.18.76.22,1.7-.93,2a2.12,2.12,0,0,1,1,3l1.41.21-1.8,2.05c2,0,1.7.44,1.05,1.91l1.51.21-.65,1.36,1.52.35L348,964.26l1.49.2-1,1.06,1.75.47c-.38.33-.63.54-.87.76l-.76.7.1.11,1.57-.82-.16.72,1.23,0-.67,1.37.9.26c.07.54,0,1.14.24,1.5s.87.51,1.36.78l-.95.92,2.46.46-1.56.85,1.44.37-.21.72c.49.52,2,0,1.37,1.53a8.78,8.78,0,0,1,1.06.35c.27.13.66.28.73.5a.93.93,0,0,0,1,.7,1.46,1.46,0,0,1,.57.31c1,.67,1.95,1.42,3,2s1.31.13,1.2-1l-1,.4c-.42.15-.82.19-.79-.44s-.39-.72-.93-.68c-.87.05-1.18-.35-1-1.19.06-.21.13-.41.23-.7l-1.53,0-.37-.26,1.24-1.38-1.9-.26.29-1.54c-.56-.1-1.38,0-1.71-.38s-.18-1.17-.25-1.79l-.28.05c-1.06.15-1.27,0-1.18-1.09,0-.52.13-1,.2-1.59l-.82,0c.19.87.19.87-.72.69l1.46-2.38a10.42,10.42,0,0,1-1.32.13c-.22,0-.58-.07-.65-.22a20.12,20.12,0,0,1-.79-1.94l-.72-.26a8.64,8.64,0,0,1,.38-.88c.24-.4.52-.76.87-1.27-1.69.15-1.72.1-1-1.58-1.19-.07-1.19-.07-1.12-1.13l-.69-.35.55-1.17a5.57,5.57,0,0,1-.78.12,4.1,4.1,0,0,1-.69-.1,3.29,3.29,0,0,1,.24-.73,3.49,3.49,0,0,1,.58-.57l-1.1-.25a5.49,5.49,0,0,1,.4-1c.37-.61.8-1.18,1.21-1.77l-.17-.19-1.85,1-.52-2.92c-.73-.42-.73-.42.16-1.69-.51-.26-1-.54-.54-1.22a.42.42,0,0,0,0-.38c-.43-.49-.06-.82.2-1.19.13-.18.41-.42.37-.53-.33-.86.3-1.38.74-2a1.74,1.74,0,0,0-.33-.1,3,3,0,0,0-.42,0l-.75-.39Zm23.3,17.36a26.39,26.39,0,0,0,3.3,1.43c3.3.89,6.62,1.66,9.93,2.5,3.67.93,7.25.19,10.77-.72A25.67,25.67,0,0,0,399,962a18.82,18.82,0,0,0,7.09-5.4c.32-.08.7,0,.82-.21,2.42-3.18,4.2-6.62,4.25-10.74,0-1.13.08-2.26,0-3.38-.26-3.32.05-6.76-2-9.7a.16.16,0,0,1,0-.08c-.11-.75-.56-.73-1-.39-2,1.44-4,2.8-5.89,4.4a66.8,66.8,0,0,1-9.83,7.11,25.75,25.75,0,0,0-2.48,1.85c-.44.34-.87.7-1.31,1l-.13-.15.37-.76a2.73,2.73,0,0,0-.87.54q-5.19,4.4-10.36,8.82c-.39.33-.94.55-.88,1.23,0,.09-.26.23-.43.3a5.12,5.12,0,0,0-1.2.49C373.49,958.21,372,959.45,370.18,960.89Zm-8.74-27.54c.1.24.14.37.2.49a1.51,1.51,0,0,0,.27.42,25.61,25.61,0,0,1,3,4.22c3.41,5.31,7.08,10.45,10.63,15.67.44.64.77.72,1.39.2,4.61-3.88,9.28-7.69,13.86-11.59a19.16,19.16,0,0,1,6.08-3.9c1-.34,1.06-.69.23-1.36a38.84,38.84,0,0,0-3.1-2.35c-2.71-1.76-5.4-3.49-8.64-4.25-1.83-.43-3.62-.92-5.5-1.19-3.45-.49-6.86-1-10.2.47-.13.05-.28.05-.41.1Zm38.22,32.12a21.86,21.86,0,0,0,3-1.77c1.77-1.44,3.45-3,5.11-4.56a19.06,19.06,0,0,0,6.24-12.7,26.68,26.68,0,0,0-2.12-12.57,17.64,17.64,0,0,0-1-2c-.12-.21-.46-.29-.7-.44a6.18,6.18,0,0,0-.21.79,1.08,1.08,0,0,0,.15.48,14,14,0,0,1,1.4,5.44c0,1.89.15,3.77.19,5.66a19,19,0,0,1-2.51,10,20.34,20.34,0,0,1-6.69,6.68c-4.62,3.15-9.62,5.18-15.21,5.17a47.94,47.94,0,0,1-8.67-1.3,29.65,29.65,0,0,1-8.16-2.75c-.23-.12-.6,0-.9,0,.17.24.29.56.52.71,1,.65,1.93,1.3,2.93,1.86a25.18,25.18,0,0,0,4.13,2.12C384.69,968.88,392.14,968.24,399.66,965.47ZM365.24,941a1.77,1.77,0,0,0-.07-.44c-1.27-2-2.53-4-3.82-6.06a5.4,5.4,0,0,0-.87-.92c-.39-.37-.67-.26-.85.18l.58.56L359,936.68l1.52-.18c-.54,1.22.53,1.13,1.24,1.41a7,7,0,0,0-.71.89,1.67,1.67,0,0,0-.15.64,4.43,4.43,0,0,1-.08.9,6.84,6.84,0,0,1-.55,1l1.57-.21c0,.42-.1.89.08,1.12a1.45,1.45,0,0,1-.14,2,2.33,2.33,0,0,0-.22.66l.71.09.6.1a2.49,2.49,0,0,1-.15.69,12.16,12.16,0,0,1-.73,1h1.46l-.55,1.07,2,1.3-.76.56.78.51-.69,1.15,1.77,1.39-.53.69,1.74.54-1.06,1c.34.21.9.39.92.62a3.62,3.62,0,0,1-.39,1.29l2.27.13-1.23,1.1.09.16,1.7-.37-.86,1.7a6.06,6.06,0,0,0,4.11-2.39A3.3,3.3,0,0,1,372,957c-.43-.36-.83-.76-1.26-1.16l.85-1.29-1.79.15.72-1.25c-.67-.12-1.6.2-1.18-1l-1.26-.06,1-1.46c-.48,0-.75,0-1,0-.47,0-.79-.18-.72-.7.1-.79-.26-1.22-1.12-1.37l1.09-1.53-1.24.23c-.48.07-.7-.12-.58-.62.27-1.18.26-1.19-.9-1.36a4,4,0,0,1-.6-.21l1.69-2.29-.65-.23-.09-1.39-1-.11.72-1.05ZM400,936.59c-3.56-3.42-7.78-5.66-12.15-7.68a20,20,0,0,0-10.1-2c-2.36.18-4.7.55-7,.68-3.5.19-6.55,1.6-9.53,3.23-.47.26-.91.57-.57,1.2a.86.86,0,0,0,1.29.35c.91-.46,1.79-1,2.73-1.36,3.35-1.38,6.66-2.85,10.42-2.81a33.15,33.15,0,0,1,22.48,8.42C398.62,937.67,398.72,937.65,400,936.59Zm-33.72,7.64a25.88,25.88,0,0,0,1.76,2c.54.5.46.8-.07,1.18a7.6,7.6,0,0,0-.7.7l1.08.23-.06.72.82.22-.71,1.13,1.92,0L369,951.76l1.47,0c-.57,1.57.95.6,1.32,1.09l-.57.69c.42.25,1,.41,1.08.68s-.27.83-.37,1.09c.8.09,1.67.24,2.54.26s1-.29.52-1a16.31,16.31,0,0,0-1.12-1.37A26.75,26.75,0,0,1,372,951c-1.43-2.13-2.79-4.3-4.16-6.46C367.51,944,367.17,943.59,366.24,944.23Zm-17,28.64a32.11,32.11,0,0,1-1.79-4.07c-.4-1.37-1.37-2.67-.62-4.31-1.49.74-1.66,1.37-1,2.69a22.33,22.33,0,0,1,1.32,3A5.52,5.52,0,0,0,349.27,972.87Zm24.17,3.29a3.51,3.51,0,0,0-.4.67,5.2,5.2,0,0,0-.14.88l.9,0c.21,0,.49-.09.61,0,.77.66,1.32.17,1.86-.18l-1.1-1.28-1.14.45,0-1.45-1.55.61v.14Zm-1.81,2.67c.43-.07.43-.07.54-1.5l-.85-1.16a3.42,3.42,0,0,1-.9.13c-1.2-.13-1.55.24-1.32,1.24l1.8.25,0,.24.81-.27Zm-13.29-48.22a11.37,11.37,0,0,0-4.32,3.54C355.56,933.54,358.29,931.31,358.34,930.61Zm23.43,45.06a8.16,8.16,0,0,0,1.76.06,2.63,2.63,0,0,0,1.1-.68.72.72,0,0,0-.19-.59A2.27,2.27,0,0,0,381.77,975.67Zm-3.4,2.93c.68.61,2.13-1,1.83,1,.67.08,1.13-.12,1.16-.87s-.55-.76-1.11-.71a4.71,4.71,0,0,0-1,.08A4.37,4.37,0,0,0,378.37,978.6Zm-28.15-5.44-.16.14a6.62,6.62,0,0,0,.74.92,6.26,6.26,0,0,0,2.82,1.87,5.6,5.6,0,0,0,.59.07c0-.22,0-.51-.16-.65a2,2,0,0,0-.68-.25,3.89,3.89,0,0,1-1-.37C351.6,974.35,350.92,973.74,350.22,973.16Zm13.69,6.68,1.21-.48.58,1,.78-1.48C364.41,978.78,364.18,978.86,363.91,979.84Zm-14.48-41.46c1.34.15,1.85-.32,2.4-2.28ZM344,952.8c-.21.7-.43,1.34-.59,2a1.55,1.55,0,0,0,.12.65,3.68,3.68,0,0,0,.73-.17,6.88,6.88,0,0,0-.2-2.45S344,952.79,344,952.8Zm24.67,29.71c1,.06,1.87.14,2.71.15.17,0,.37-.18.51-.33s-.05-.23-.08-.35a4.39,4.39,0,0,1-.6.15c-.35,0-.9.22-1,.07C369.67,981.48,369.3,981.87,368.7,982.51Zm-8.64-4.67a2,2,0,0,0,2.19-1C361.06,976.74,360.19,977.12,360.06,977.84Zm-1.12-44.17c-1.3-.13-1.49.13-1.31,1.8Zm22,40.92c1.84-.06,1.84-.06,2-1.5Zm-37.22-13.34-.35.11,1,3,.38-.12ZM379,979.33l-2.87,1.13a2.24,2.24,0,0,0,.87-.15,2.27,2.27,0,0,1,1-.1C378.66,980.38,378.81,980.05,379,979.33Zm-21.43-7.67-.16-.28a6.69,6.69,0,0,0-1.13.3c-.15.07-.18.41-.26.62.21.06.5.24.62.16A6.44,6.44,0,0,0,357.58,971.66Zm15,10.83,1.52-.94C373,981.08,372.51,981.36,372.61,982.49Zm-23.47-16.35-1.5-.16-.07.25.64.94Zm26.2,15.41c.13.24.72.33,1.53,0,.24-.09.41-.38.62-.57l-.19-.23Zm1.56-2.67-1.46-.47-.17,1.11Zm.32-.61,1.69-.66C378.1,977.12,377.63,977.32,377.22,978.27Zm-6.89,3.16.13.36,1.2-.41c-.06-.13-.1-.37-.19-.39C371,980.88,370.53,980.87,370.33,981.43Zm-20.06-26-.15-.24c-.65,0-1.23.17-1.33,1.1ZM348.9,969.9l-.31.18c.34.45.65.92,1,1.35.09.11.36.09.54.08s.15-.24.13-.25-.32-.17-.45-.28a4.28,4.28,0,0,1-.64-.56A2.94,2.94,0,0,1,348.9,969.9Zm17.15-22.52,1.65-.5C366.77,946.22,366.6,946.26,366.05,947.38Zm-3.94,31.41,2-.68C363.33,978,362.55,977.88,362.11,978.79Zm20.63-2,.79,1.27.41-1.28Zm14.15-9.25,0-.18-2.74.63.06.24Zm-15.5,9.35c-1.36-.44-1.36-.44-1.46.28Z" transform="translate(-114 -290.49)"/><path class="cls-4" d="M396.75,942.81h1.54l.63,2.06C398,945.18,397,944.27,396.75,942.81Z" transform="translate(-114 -290.49)"/><path class="cls-4" d="M386.84,952.22c.83-.33,1.55-.12,1.68.44a.88.88,0,0,1-.31.78,1.23,1.23,0,0,1-1.57-.56C386.58,952.64,386.79,952.35,386.84,952.22Z" transform="translate(-114 -290.49)"/><path class="cls-4" d="M404.79,944.7a6.84,6.84,0,0,1-.75-1.12,1.09,1.09,0,0,1,0-.83c.05-.12.5-.19.66-.09a1.23,1.23,0,0,1,.57.73,4,4,0,0,1-.23,1.2Z" transform="translate(-114 -290.49)"/><path class="cls-4" d="M402.62,940.62a6.07,6.07,0,0,1-.33.62,6,6,0,0,1-1.3-.7,1,1,0,0,1,.32-.73C402,939.46,402.26,939.94,402.62,940.62Z" transform="translate(-114 -290.49)"/><path class="cls-4" d="M382.43,955.27a2.55,2.55,0,0,1,.23-.76c.06-.06.42,0,.56.14a5,5,0,0,1,.81.84c.1.12.17.44.11.48s-.45.25-.58.17A11.83,11.83,0,0,1,382.43,955.27Z" transform="translate(-114 -290.49)"/><path class="cls-4" d="M393,948.3l1.51,1.71-.11.28a4.05,4.05,0,0,1-1.39-.56c-.28-.27-.25-.84-.36-1.28Z" transform="translate(-114 -290.49)"/><path class="cls-4" d="M399.52,953.08c-.89-.19-1.2-.66-1.08-1.69C399.33,951.47,399.7,952.06,399.52,953.08Z" transform="translate(-114 -290.49)"/><path class="cls-4" d="M396.88,956.74c-.3.47-.38.79-.57.88-.56.24-.83-.2-1-.62-.06-.16.18-.6.27-.59A6.25,6.25,0,0,1,396.88,956.74Z" transform="translate(-114 -290.49)"/><path class="cls-4" d="M392.1,956.13l-.51,1c-.27-.18-.64-.3-.77-.54s.09-.56.15-.85Z" transform="translate(-114 -290.49)"/><path class="cls-4" d="M402.67,947.74c-.17.14-.42.43-.5.39a3.85,3.85,0,0,1-1-.73c-.07-.06.08-.35.14-.53l1.05.56Z" transform="translate(-114 -290.49)"/><path class="cls-4" d="M385,960.57l1.48,1c-1.11.39-1.31.28-1.64-.79Z" transform="translate(-114 -290.49)"/><path class="cls-4" d="M386.57,940a12.58,12.58,0,0,1-1.87-.94c-.26-.18-.34-.66-.43-1,0,0,.34-.31.49-.28.46.1,1.05.17,1.31.48a5.07,5.07,0,0,1,.67,1.57Z" transform="translate(-114 -290.49)"/><path class="cls-4" d="M370.45,936.88,370.2,938c-.3-.14-.72-.2-.87-.43a4.31,4.31,0,0,1-.47-1.36c0-.07.43-.34.51-.29A10.62,10.62,0,0,1,370.45,936.88Z" transform="translate(-114 -290.49)"/><path class="cls-4" d="M381.83,935.17c-.53-.46-1-.81-1.4-1.23a1.23,1.23,0,0,1-.34-.76c0-.12.4-.38.57-.34a1.11,1.11,0,0,1,.74.49A12.59,12.59,0,0,1,381.83,935.17Z" transform="translate(-114 -290.49)"/><path class="cls-4" d="M382.47,943.85l-.37.79a13.19,13.19,0,0,1-1.28-1.07c-.09-.08.06-.56.22-.68C381.4,942.64,382.2,943.1,382.47,943.85Z" transform="translate(-114 -290.49)"/><path class="cls-4" d="M375.51,946.1c.69-.13,1.24-.89,1.8-.15a1.24,1.24,0,0,1-.16,1.15C376.34,947.47,376,946.77,375.51,946.1Z" transform="translate(-114 -290.49)"/><path class="cls-4" d="M373.31,934.4l.46-1A8.19,8.19,0,0,1,375,934c.05,0-.26.83-.38.82A4.62,4.62,0,0,1,373.31,934.4Z" transform="translate(-114 -290.49)"/><path class="cls-4" d="M373.47,942.87l-1.14-1.63a1.07,1.07,0,0,1,1.59.4C374.25,942.13,374.08,942.53,373.47,942.87Z" transform="translate(-114 -290.49)"/><path class="cls-4" d="M377.6,938.64c.87,0,1.42.18,1.51.89a2,2,0,0,1-.16.7c-.22-.08-.54-.09-.65-.25A12.14,12.14,0,0,1,377.6,938.64Z" transform="translate(-114 -290.49)"/><path class="cls-4" d="M360.69,957.69c.9.28,1.18-1.38,2.28-.66l-1.28,1.22.07.21,1.21,0-1.06,1.19h1.44l-1,1.5,1.76-.26-.73,1.36-.65-.2-.69,1.31-.25-.72a1.59,1.59,0,0,1-.49.19,3.09,3.09,0,0,1-.59-.08l.18-.57.39-1.24-1-.05.87-1.06-1.32-.12.57-1.23-1.13-.76h-.89l-.08-.2,1.43-1.39-1.82.18c.05-1.54.42-2.65,2.28-2.13l.23.58,1.24-.36-.4,1,1,.06Z" transform="translate(-114 -290.49)"/><path class="cls-4" d="M364.69,974.6c-.33-.7-.79-1.17-1.67-.83l-.4-2.18-.76-.22.54-1.45-2.07.81.21-2.18-.89-.13c0-.55-.23-.87-.93-.85-1,0-.29-.63-.29-1.06l-1.7.23-.05-.2,1.51-.43,0-.26-.47-.15.74-.91-1.8.18c.66-1,.48-1.43-.69-1.4l.34-.73,1.34,1,.87-.94.17.15-.33.51c.27.36.65.64.67.95a3.76,3.76,0,0,1-.39,1.29l1.35-.37-.39,1.73c.74-.18,1.27-.15,1.44.69,0,.21.54.32.9.52l-1.29,1.43.1.15.53-.11,1.43-.19.11,1.3,1.45-.19-.58,1.05,1.15-.34.11.12-1.15,1.14,1.45-.14-.07,1.15,1.11.17-1.61.63Z" transform="translate(-114 -290.49)"/><path class="cls-4" d="M364.82,964.4l.95-.19.21.11a5.07,5.07,0,0,0-1.57,2.93c-.22-.72-.41-1.37-1.35-1.14l.08-1.23-1,.38.49-1.3-.83-.12c0-.09,0-.13,0-.14a5.4,5.4,0,0,1,2.85-.74.89.89,0,0,1,.35.69c0,.2-.23.41-.37.61Z" transform="translate(-114 -290.49)"/><path class="cls-4" d="M359.62,952.63l-2,.57-.1-.22.79-1-2,0c.93-1.35,2.4-1.67,3.42-2.61l.18.16-1,1.57,1,.23-.62.67c-.41.45-.26.63.3.62Z" transform="translate(-114 -290.49)"/><path class="cls-4" d="M356.85,949.4l.33-.79-.16,0,1.49-.92C358.81,949.25,358.71,949.34,356.85,949.4Z" transform="translate(-114 -290.49)"/><path class="cls-4" d="M359.62,952.65l1.84.15.11.23c-.39.24-.78.69-1.14.67a.92.92,0,0,1-.81-1.07Z" transform="translate(-114 -290.49)"/><path class="cls-4" d="M358,949.62c-.14.64-.56.79-1.57.64l-.07-.23.7-.15Z" transform="translate(-114 -290.49)"/><path class="cls-4" d="M369.74,974.34l-.7,1-.15-.75-.89.29,0-.08,1.63-.65Z" transform="translate(-114 -290.49)"/></g><g id="fmeGpT.tif"><path class="cls-4" d="M478.17,1088c-1.55-3.67-3.08-7.36-4.69-11a1.22,1.22,0,0,0-1.13-.42c-1.39.82-3.15,1.5-3.91,2.75-.62,1,0,2.78.07,4.21a2.7,2.7,0,0,1-.64,1.66c-.29-5.71-3.47-8.86-8.59-10.18-5.44-1.41-8.75,2.2-12,5.81l-.38-.42a8.87,8.87,0,0,1,.68-1.3q6.78-9.15,13.58-18.26c1.08-1.45,2.2-2.87,3.21-4.36a2,2,0,0,0,.09-1.37c-.36-1.6-.83-3.19-1.2-4.79a7.2,7.2,0,0,1,0-1.47l.65-.23a39.44,39.44,0,0,1,2.51,5.15,3.14,3.14,0,0,0,2.42,2.35c4.66,1.23,9.31,2.53,14,3.69,2.82.69,5.71,1.14,8.55,1.78.47.11.86.6,1.29.92-.48.14-1,.25-1.42.43a11.66,11.66,0,0,0-3.37,1.46,39.4,39.4,0,0,0-4.27,4.57,14.16,14.16,0,0,0-1.64,2.63c-1.29,2.44-.37,4.36,1.45,6.1a2.84,2.84,0,0,1,.7,1.72c-2.54-1.23-3.71-4.79-7.52-3.61.76,1.86,1.54,3.75,2.3,5.65.63,1.58,1.31,3.15,1.79,4.78a1.73,1.73,0,0,0,1.89,1.38c3.73.2,7.47.32,11.18.74a76.56,76.56,0,0,1,7.89,1.6,3.85,3.85,0,0,0,4.05-1.3c6.89-7,13.91-13.77,20.91-20.62,2-1.92,4-3.76,6-5.66,1.49-1.42,2.74-1.54,3.83-.34,1.68,1.85,1.67,3,.05,4.47q-8.44,7.88-16.87,15.77c-2.6,2.44-5.16,4.94-7.73,7.43-.5.48-.94,1-1.59,1.73.77.25,1.26.44,1.78.57,2.39.59,4.78,1.24,7.2,1.73a5.53,5.53,0,0,1,4.45,4.15c1.88,6.43,3.81,12.81,4.13,19.62.29,6.13.56,12.2-1.26,18.15-1.55,5.1-3.73,9.86-7.72,13.58a4.22,4.22,0,0,0-.74.89c-4.38,7.09-11.19,10-19.07,10.74a82.27,82.27,0,0,1-23.48-1.24,34,34,0,0,1-17.86-9.62,11.25,11.25,0,0,0-1.52-1.49c-6.4-4.28-8.47-11-10.2-17.93s-.25-13.51,2-20c1.66-4.7,3.42-9.38,5.14-14.06,1.86-5.06,5.39-7.79,10.87-8.07,3.89-.19,7.76-.68,11.65-1A10.19,10.19,0,0,1,478.17,1088Zm43.65,22.22c1.47-1.27,1.67-2.85.55-5.08-1,.48-2.14.77-2.18,2.23-.28-1.21-1.1-.41-1.69-.45a26.3,26.3,0,0,1,2.78-1.85c1.45-.73,1.53-1.62.72-2.82-3.82,1.2-5.51,2.27-4.5,4.71l1.07-.09-3.49,5.59h-.32l1-9.4c-1.89.54-3.75,1.14-5.64,1.58s-4,.42-5.61,2c-.7.71-1.11,0-1.36-.72-.15-.41-.4-1.09-.64-1.11a13.17,13.17,0,0,0-3.87.09c-.91.23-1.5.44-2.35-.24-.38-.3-1.58,0-2.07.4a4.29,4.29,0,0,0-1.12,2.15c-1.06,4.27-2.25,8.5-2.1,13a16.93,16.93,0,0,1-.74,4.18c0,.2-.47.31-.72.47-.14-.26-.4-.52-.4-.78,0-.71.14-1.42.2-2.13.26-3,.52-6.1.76-9.15.19-2.39.52-4.78.48-7.17,0-2.23-1.37-3.16-3.61-3a2.92,2.92,0,0,1-1.7-.3,3,3,0,0,0-4.31.43c-.86.88-1.34.46-1.66-.44-.6-1.69-1.06-1.89-2.83-1.52a3,3,0,0,1-2-.21c-1.56-.89-2.11-.91-2.77.75-1.13,2.79-2,5.68-3,8.51a4.81,4.81,0,0,1-.89,1.15c-.22-.49-.71-1-.61-1.45.77-3,1.6-6,2.52-9,.5-1.64.35-2.37-1.35-2.87a61.38,61.38,0,0,0-7.07-1.64,1.87,1.87,0,0,0-2.2,2,12.23,12.23,0,0,0-1.27.87c.46.87,1,1.69,1.69,2.75l-3.43-2.83,1-2.12-1.84-1.35a26.18,26.18,0,0,0-1.57,3.31,1.92,1.92,0,0,0,.44,1.6,17.72,17.72,0,0,0,2.18,1.79c-.47.62-1.11,1.1-1.08,1.52a16.65,16.65,0,0,0,.65,2.92l-1.31-.55-.92,5.53-.89-.68a10.81,10.81,0,0,0,.64-1.29c.6-2,.31-4.08,1.26-6,.67-1.38-.24-2.46-1.67-3.13a15.48,15.48,0,0,0-1,2c-1.25,3.87-2.4,7.78-3.7,11.63a1.77,1.77,0,0,0,.71,2.37c2,1.42,3.92,2.91,5.88,4.37l-.2.3-7-4.79c-.72,3.43-1.67,6.58-1.2,9.93.71,5,1.81,10,4.33,14.44a31,31,0,0,0,4.15,5.58c1.4,1.51,3.32,2.54,4.69,4.07a23.4,23.4,0,0,0,9.17,6.28c11.34,4.3,23,4.52,34.76,2.24a18.81,18.81,0,0,0,10.53-5.48c2.48-2.72,4.75-5.64,7-8.59a30.18,30.18,0,0,0,5.79-16.93,81.85,81.85,0,0,0-3.14-26.4,18.15,18.15,0,0,0-.69-1.72l-.26.09c.26,3.46.52,6.92.78,10.3Zm-4.26-16.07-.2.45c.29.61,1,1.44.8,1.81-.8,1.57-1.17,3.68-3.15,4.19a41,41,0,0,1-8.78,1.6c-1.72.06-3.53-.11-5.29-.21a92.57,92.57,0,0,1-18.65-2.52c-1.16-.31-2.36-.5-3.55-.73a44.63,44.63,0,0,1-6.58-1.36,63.46,63.46,0,0,1-7.52-3.64c-.57-.3-.95-1-1.42-1.45l.5-.58c2.87,1.53,5.73,3.06,8.61,4.57a7,7,0,0,0,1.92.79c2.68.49,5.37.86,8.05,1.36,1.5.28,3,.77,4.48,1,.89.16,1.84,0,2.73.12,1.89.27,3.77.63,5.65,1,3.61.7,7.33-.52,10.93.59a2,2,0,0,0,1-.07,24.48,24.48,0,0,1,4.49-.85c2.88,0,4.38-1.57,5.55-4.35-1.26-.63-2.51-1.37-3.84-1.88-1.06-.4-2.26-.42-3.34-.78s-1.64-.08-2.11,1a6.4,6.4,0,0,1,1.43.52c.74.52,2.05,1.24,2,1.71a5.82,5.82,0,0,1-1.69,2.59c-.27.31-.9.32-1.38.42-4.38,1-8.77.39-13.14,0-7.64-.67-15.24-1.54-21.95-5.75a7.15,7.15,0,0,1-1.17-1.22c.41-.32.78-.8,1.24-.94,1.8-.53,3.62-1,5.44-1.43l0-.59a83,83,0,0,0-17.16,2.32c1.75-2.7,4.89-.92,6.58-2.77-3.77.48-7.72.26-10.74,2.73.88,1,1.54,1.9,2.29,2.68a1.6,1.6,0,0,0,1,.32,7.9,7.9,0,0,1,1.44-.09c2,.5,4.06,1.17,6.13,1.58,1.6.32,2.8.91,3,2.39,2.62.27,5,.51,7.45.78a1.32,1.32,0,0,1,.88.4c.8,1.17,1.75,1.24,3,.73a3.72,3.72,0,0,1,1.78,0c1.29.2,2.56.53,3.85.71a4,4,0,0,1,3.71,4.07,6.38,6.38,0,0,0,.25,1,18.61,18.61,0,0,1,.83-1.74c.79-1.27,2.51-2.08,3.52-1.41,1.48,1,3.1.54,4.51.4,1.57-.16,2.76-.19,3.62,1.17a6,6,0,0,1,1.74-.82c3.67-.25,6.91-2.42,10.65-2.33a2.52,2.52,0,0,0,1.05-.42c1.06-.5,2.1-1,3.15-1.53s1.53-2.6.61-3.28A38.4,38.4,0,0,0,517.56,1094.13Zm15-26.55.34.28a15.36,15.36,0,0,1,1.44-1.36c.52-.39,1.2-.57,1.68-1a1.54,1.54,0,0,0,.43-1.22,1.7,1.7,0,0,0-3-.85c-6.41,6.1-12.77,12.26-19.26,18.28-3.57,3.31-6.66,7.09-10.36,10.29a51.74,51.74,0,0,0-4.74,5.26,8.72,8.72,0,0,0-.68,1.06c1.95,1,3.05,1,4.16-.47,2.1-2.74,5.11-4.62,6.59-8,.87-2,3.12-3.37,4.75-5l.17.15-.81,1.45a1.79,1.79,0,0,0,.38-.18q8.08-7.77,16.17-15.55a1.39,1.39,0,0,0,.38-.84c.13-1.65,1.45-2.36,2.64-3.24Zm-79.62,6.2c7.45-.45,8-.41,14.17,4.25-.75-6.75-1.45-13.11-2.21-20Zm25.68.56.23-.5-12.1-16.31-.53.26c.66,6.49,1.32,13,2,19.6C471.38,1075.28,474.63,1073.62,478.6,1074.34Zm1.4-.64c.93-5.37,5.35-7.77,7.93-11.48a.61.61,0,0,0-.23-.14c-4.72-1.23-9.44-2.46-14.18-3.64-.34-.08-1.07.15-1.11.34-.22,1.19-.86,2.77-.34,3.58C474.46,1066.15,477.19,1069.74,480,1073.7Zm2.5,17.8c.86,1.89,1.53,3.45,2.3,5a1.75,1.75,0,0,0,1.12.81c2.87.42,5.76.84,8.66,1.08a3.83,3.83,0,0,0,2.52-.76,39,39,0,0,0,3.42-3.61A66,66,0,0,0,482.5,1091.5Zm.3,5.44.64-.33c-.8-2.07-1.61-4.14-2.4-6.21-1.74-4.56-3.45-9.12-5.22-13.66-.16-.42-.67-.69-1-1a4.3,4.3,0,0,0,0,1.43c1.83,5,3.66,10,5.59,14.91C481,1093.73,482,1095.31,482.8,1096.94Zm-8.92-4.73-.07.52c2.19,1.33,4.29,2.82,7.15,3.52l-2.07-5Zm8.32-2.6-.15.4a3.51,3.51,0,0,0,1.17.51,72.37,72.37,0,0,1,17.46,2.18,4,4,0,0,0,1.44-.23l0-.81Zm21.44,9.07c3,.53,5.76-.34,6.58-2.09C507.35,1094.52,505.23,1095.19,503.64,1098.68ZM471.06,1061c.12-1.14.59-2.45.21-2.79-.65-.58-1.84-.54-3-.82Zm-14,35.55c.5-.62,1.06-1.06,1-1.27a8.73,8.73,0,0,0-1.06-1.7c-.39.27-1.16.67-1.12.79A15.46,15.46,0,0,0,457.05,1096.51Z" transform="translate(-114 -290.49)"/><path class="cls-4" d="M520.15,1107.3a9.77,9.77,0,0,1,.42,1.88c0,1,.62,1,1.32,1-1.35,1.27-1.36,2.83-.91,4.65l2.35-1.07c-1.1,1.56-3.45,2.07-2.22,4.29l1.84-.57.2.34a31.16,31.16,0,0,1-3.1,1.58c-1.87.74-3.9,1.17-4.16,3.77-.09.87.19,1.06.88,1.14l0,0-2.53,3.69.48-2.52-2.12.45c2-.84,3.47-1.93,2.94-4.52l-1.56.26a1.59,1.59,0,0,1,0-.25c2-.42,2.49-1.77,2.34-3.62a4.66,4.66,0,0,1,.52-2.3l.66,1.23c3.48-1.24,3.44-1.41,2.36-5.17C519.46,1110.22,520,1108.7,520.15,1107.3Zm.11,8.77c-2.45.93-3.92,1.54-3.16,3.83C520.58,1119,521,1118.54,520.26,1116.07Z" transform="translate(-114 -290.49)"/><path class="cls-4" d="M509.4,1131.21c3.93-1.43,7.89-2.8,11.79-4.33,2.79-1.1,2.85-1.37,2.81-4.45a3.93,3.93,0,0,1,.29-1,7.58,7.58,0,0,1-.52,5.18,1.23,1.23,0,0,1-.5.41l-13.79,4.61Z" transform="translate(-114 -290.49)"/><path class="cls-4" d="M519.21,1138.58a43.89,43.89,0,0,1-12.55,3.66L519,1138Z" transform="translate(-114 -290.49)"/><path class="cls-4" d="M510.55,1136.09c1.74-.56,3.46-1.16,5.21-1.69,2.09-.62,4.35-1,4.92-3.76l.56.41-1.69,3.7c-.59-.32-1-.73-1.25-.65-1.33.47-2.58,1.15-3.92,1.57a35.19,35.19,0,0,1-3.73.76Z" transform="translate(-114 -290.49)"/><path class="cls-4" d="M517.33,1145.4a62.05,62.05,0,0,1-13.75,3.27l13.57-3.67Z" transform="translate(-114 -290.49)"/><path class="cls-4" d="M488.46,1130.77l-.84,8.22-.41-.06.84-8.24Z" transform="translate(-114 -290.49)"/><path class="cls-4" d="M505,1155.62l.77-1.39-1.07-.18,3.23-2,1,.69Z" transform="translate(-114 -290.49)"/><path class="cls-4" d="M516.77,1124.27l5.33-2.83.28.56a12.58,12.58,0,0,1-5.64,2.23Z" transform="translate(-114 -290.49)"/><path class="cls-4" d="M508.22,1129.64c.65-2.41,1.29-4.83,1.94-7.24l.43.11-1.89,7.26Z" transform="translate(-114 -290.49)"/><path class="cls-4" d="M465.17,1126.24l1.06-10.31h.08l-1.06,10.33Z" transform="translate(-114 -290.49)"/><path class="cls-4" d="M525.85,1072l-5.76,6.1-.3-.27,5.74-6.14Z" transform="translate(-114 -290.49)"/><path class="cls-4" d="M477.68,1066.65c-.78-1.65-.83-3.08.45-4.45Z" transform="translate(-114 -290.49)"/><path class="cls-4" d="M479.49,1067.71l1.13-4.71.65.15-1.31,4.69Z" transform="translate(-114 -290.49)"/></g><path class="cls-4" d="M449.52,989.89m-21.38.82L420.26,985h5.2c-2.18-3.13-5.45-4.53-8.24-6.59a21.33,21.33,0,0,1,7.08,1.3l-1.86-2,.23-.38,6.46,2.2a25,25,0,0,0-4.4-7.51c2.94.3,5.33,1.69,7.78,3.75v-7.88a9.05,9.05,0,0,1,4.27,5.07c1.83-.92,3.57-2,5.43-2.7a11.93,11.93,0,0,1,6-.73l-4.59,5.92.23.13,5.76-1.67.08.31-2.41,3.13,6.52-1.44.1.32-6.2,8.62a23.83,23.83,0,0,1,8.12-.06,19.13,19.13,0,0,0-6.28,5.12,7.36,7.36,0,0,0,.63.41,17.71,17.71,0,0,1,10.11,14.16,137.27,137.27,0,0,1,.71,28.44,18.26,18.26,0,0,1-5.74,12.55,17.45,17.45,0,0,1-8.88,4.27,77.39,77.39,0,0,1-12.3,1.34c-5.49.06-9.56-3-12.75-7.21-3.08-4.11-4.45-8.89-5.25-13.86a71,71,0,0,1-1.06-17.22c.63-7.56,4.8-19.12,13.15-22.06" transform="translate(-114 -290.49)"/></g></svg>